M48
; DRILL file {KiCad 8.0.0} date 2024-03-10T19:40:47-0400
; FORMAT={-:-/ absolute / inch / decimal}
; #@! TF.CreationDate,2024-03-10T19:40:47-04:00
; #@! TF.GenerationSoftware,Kicad,Pcbnew,8.0.0
; #@! TF.FileFunction,Plated,1,2,PTH
FMAT,2
INCH
; #@! TA.AperFunction,Plated,PTH,ComponentDrill
T1C0.0295
; #@! TA.AperFunction,Plated,PTH,ComponentDrill
T2C0.0300
; #@! TA.AperFunction,Plated,PTH,ComponentDrill
T3C0.0315
; #@! TA.AperFunction,Plated,PTH,ComponentDrill
T4C0.0320
; #@! TA.AperFunction,Plated,PTH,ComponentDrill
T5C0.0350
; #@! TA.AperFunction,Plated,PTH,ComponentDrill
T6C0.0433
; #@! TA.AperFunction,Plated,PTH,ComponentDrill
T7C0.0472
; #@! TA.AperFunction,Plated,PTH,ComponentDrill
T8C0.0512
%
G90
G05
T1
X3.9998Y-4.4618
X3.9998Y-4.5118
X3.9998Y-4.5618
X4.744Y-3.5877
X4.794Y-3.5877
X4.844Y-3.5877
X6.454Y-3.506
X6.504Y-3.506
X6.554Y-3.506
T2
X4.309Y-4.106
X4.309Y-4.226
X4.599Y-4.106
X4.599Y-4.226
T3
X3.84Y-3.53
X3.84Y-3.83
X3.9716Y-3.9084
X3.98Y-3.56
X3.98Y-3.7569
X3.994Y-4.046
X3.994Y-4.346
X4.104Y-3.566
X4.124Y-4.046
X4.124Y-4.346
X4.164Y-4.716
X4.164Y-5.016
X4.1684Y-3.9084
X4.2024Y-3.566
X4.314Y-3.676
X4.314Y-3.816
X4.314Y-3.956
X4.3224Y-4.7876
X4.3224Y-4.9844
X4.344Y-3.426
X4.344Y-4.366
X4.344Y-4.666
X4.474Y-4.366
X4.474Y-4.666
X4.61Y-4.47
X4.61Y-4.77
X4.614Y-3.676
X4.614Y-3.816
X4.614Y-3.956
X4.644Y-3.426
X4.734Y-3.796
X4.734Y-4.096
X4.744Y-4.866
X4.874Y-3.756
X4.874Y-3.9529
X4.874Y-4.046
X4.874Y-4.346
X4.914Y-4.446
X4.914Y-4.746
X4.974Y-3.356
X4.974Y-3.656
X5.014Y-3.756
X5.014Y-4.056
X5.044Y-4.866
X5.064Y-4.446
X5.064Y-4.746
X5.1124Y-3.3576
X5.1124Y-3.5544
X5.204Y-4.866
X5.2324Y-4.5276
X5.2324Y-4.7244
X5.244Y-3.356
X5.244Y-3.656
X5.274Y-5.006
X5.3724Y-4.5276
X5.3724Y-4.7244
X5.3771Y-3.246
X5.384Y-3.3676
X5.384Y-3.5644
X5.384Y-3.6576
X5.384Y-3.8544
X5.504Y-4.866
X5.5124Y-4.5276
X5.5124Y-4.7244
X5.574Y-3.246
X5.574Y-5.006
X5.644Y-4.516
X5.644Y-4.816
X5.694Y-4.926
X5.844Y-4.716
X5.9424Y-4.716
X5.994Y-4.926
X6.1071Y-3.466
X6.1224Y-3.7976
X6.1224Y-3.9944
X6.2024Y-4.7076
X6.2024Y-4.9044
X6.2724Y-3.6476
X6.2724Y-3.9476
X6.304Y-3.466
X6.414Y-3.8091
X6.414Y-4.006
X6.4416Y-4.77
X6.554Y-3.8076
X6.554Y-4.0044
X6.634Y-4.156
X6.634Y-4.456
X6.6384Y-4.77
X6.67Y-3.63
X6.68Y-3.79
X6.714Y-3.946
X6.82Y-4.59
X6.82Y-4.89
X6.9109Y-3.946
X6.97Y-3.63
X6.98Y-3.79
X7.27Y-4.21
X7.27Y-4.51
T4
X6.064Y-4.116
X6.064Y-4.416
X6.164Y-4.116
X6.164Y-4.416
X6.264Y-4.116
X6.264Y-4.416
X6.364Y-4.116
X6.364Y-4.416
X6.8165Y-4.1435
X6.8165Y-4.4685
X6.9165Y-4.1435
X6.9165Y-4.4685
X7.0165Y-4.1435
X7.0165Y-4.4685
X7.1165Y-4.1435
X7.1165Y-4.4685
T5
X5.164Y-3.966
X5.164Y-4.266
X5.264Y-3.966
X5.264Y-4.266
X5.364Y-3.966
X5.364Y-4.266
X5.464Y-3.966
X5.464Y-4.266
T6
X3.84Y-3.9789
X3.84Y-4.16
X3.84Y-4.3411
X4.7789Y-5.01
X4.96Y-5.01
X6.3794Y-4.9594
X6.5606Y-4.9594
T7
X7.1961Y-3.6555
X7.1961Y-3.8524
T8
X5.5571Y-3.586
X5.6835Y-4.196
X5.754Y-3.7829
X5.904Y-4.196
X5.9509Y-3.586
M30
