G04 #@! TF.GenerationSoftware,KiCad,Pcbnew,(7.0.0)*
G04 #@! TF.CreationDate,2023-03-14T20:30:01-04:00*
G04 #@! TF.ProjectId,2ndmixer-2ndlo,326e646d-6978-4657-922d-326e646c6f2e,1*
G04 #@! TF.SameCoordinates,Original*
G04 #@! TF.FileFunction,Soldermask,Bot*
G04 #@! TF.FilePolarity,Negative*
%FSLAX46Y46*%
G04 Gerber Fmt 4.6, Leading zero omitted, Abs format (unit mm)*
G04 Created by KiCad (PCBNEW (7.0.0)) date 2023-03-14 20:30:01*
%MOMM*%
%LPD*%
G01*
G04 APERTURE LIST*
G04 Aperture macros list*
%AMRoundRect*
0 Rectangle with rounded corners*
0 $1 Rounding radius*
0 $2 $3 $4 $5 $6 $7 $8 $9 X,Y pos of 4 corners*
0 Add a 4 corners polygon primitive as box body*
4,1,4,$2,$3,$4,$5,$6,$7,$8,$9,$2,$3,0*
0 Add four circle primitives for the rounded corners*
1,1,$1+$1,$2,$3*
1,1,$1+$1,$4,$5*
1,1,$1+$1,$6,$7*
1,1,$1+$1,$8,$9*
0 Add four rect primitives between the rounded corners*
20,1,$1+$1,$2,$3,$4,$5,0*
20,1,$1+$1,$4,$5,$6,$7,0*
20,1,$1+$1,$6,$7,$8,$9,0*
20,1,$1+$1,$8,$9,$2,$3,0*%
G04 Aperture macros list end*
%ADD10C,1.600000*%
%ADD11O,1.600000X1.600000*%
%ADD12R,1.701800X1.701800*%
%ADD13C,1.701800*%
%ADD14RoundRect,0.250001X0.799999X-0.799999X0.799999X0.799999X-0.799999X0.799999X-0.799999X-0.799999X0*%
%ADD15C,2.100000*%
%ADD16C,1.800000*%
%ADD17C,3.200000*%
%ADD18C,2.600000*%
%ADD19RoundRect,0.400000X-0.400000X-0.400000X0.400000X-0.400000X0.400000X0.400000X-0.400000X0.400000X0*%
%ADD20R,1.110000X1.110000*%
%ADD21C,1.110000*%
%ADD22C,1.500000*%
%ADD23C,3.000000*%
G04 APERTURE END LIST*
D10*
X181533800Y-118414800D03*
D11*
X189153799Y-118414799D03*
D10*
X152207600Y-93929200D03*
X147207600Y-93929200D03*
X199313800Y-85140800D03*
D11*
X199313799Y-92760799D03*
D10*
X149598800Y-114604800D03*
X149598800Y-119604800D03*
D12*
X164744399Y-79959199D03*
D13*
X164744400Y-85039200D03*
D10*
X169976800Y-119049800D03*
D11*
X162356799Y-119049799D03*
D10*
X200710800Y-103047800D03*
D11*
X200710799Y-95427799D03*
D14*
X136053200Y-114655600D03*
D15*
X136053200Y-110055600D03*
D16*
X138430000Y-91806400D03*
X138430000Y-86806400D03*
D17*
X202599000Y-119500000D03*
D10*
X172212000Y-98755200D03*
D11*
X164591999Y-98755199D03*
D10*
X192963800Y-100253800D03*
X192963800Y-95253800D03*
X175056800Y-98338000D03*
X175056800Y-103338000D03*
X149148800Y-111760000D03*
D11*
X156768799Y-111759999D03*
D10*
X144322800Y-85394800D03*
D11*
X144322799Y-93014799D03*
D17*
X139599000Y-119500000D03*
D10*
X197027800Y-95300800D03*
D11*
X197027799Y-102920799D03*
D10*
X170357800Y-77901800D03*
D11*
X170357799Y-85521799D03*
D10*
X172212000Y-102805200D03*
D11*
X164591999Y-102805199D03*
D14*
X205028800Y-110949800D03*
D15*
X205028800Y-106349800D03*
D17*
X202599000Y-81000000D03*
D18*
X152857200Y-103022400D03*
X152857200Y-108622400D03*
D10*
X142951200Y-98653600D03*
D11*
X142951199Y-106273599D03*
D10*
X169700000Y-89204800D03*
X164700000Y-89204800D03*
X139598400Y-101233600D03*
X139598400Y-106233600D03*
D19*
X180390800Y-110540800D03*
D10*
X182930800Y-110540800D03*
X185470800Y-110540800D03*
X188010800Y-110540800D03*
D20*
X151333199Y-89357199D03*
D21*
X152603200Y-88087200D03*
X151333200Y-86817200D03*
X150063200Y-88087200D03*
D10*
X161340800Y-105925200D03*
D11*
X161340799Y-98305199D03*
D17*
X139599000Y-81000000D03*
D10*
X161086800Y-89244800D03*
X161086800Y-94244800D03*
X197368800Y-118414800D03*
X192368800Y-118414800D03*
X174294800Y-79338800D03*
X174294800Y-84338800D03*
X136296400Y-106222800D03*
D11*
X136296399Y-98602799D03*
D10*
X162356800Y-122224800D03*
D11*
X169976799Y-122224799D03*
D10*
X192709800Y-114731800D03*
X187709800Y-114731800D03*
X177596800Y-114731800D03*
D11*
X185216799Y-114731799D03*
D22*
X149656800Y-98552000D03*
X154536800Y-98552000D03*
D10*
X172770800Y-116676800D03*
X172770800Y-121676800D03*
X169976800Y-115874800D03*
D11*
X162356799Y-115874799D03*
D20*
X198297799Y-108889799D03*
D21*
X197027800Y-107619800D03*
X195757800Y-108889800D03*
X197027800Y-110159800D03*
D18*
X183946800Y-98348800D03*
X183946800Y-103948800D03*
X169595800Y-106857800D03*
X169595800Y-112457800D03*
D23*
X180376800Y-84124800D03*
X187876800Y-91624800D03*
X195376800Y-84124800D03*
D10*
X158953200Y-76606400D03*
D11*
X158953199Y-84226399D03*
D10*
X157050000Y-89204800D03*
X157050000Y-94204800D03*
D18*
X150266400Y-76809600D03*
X150266400Y-82409600D03*
M02*
