M48
; DRILL file {KiCad (7.0.0)} date Tue Mar 14 20:31:30 2023
; FORMAT={-:-/ absolute / inch / decimal}
; #@! TF.CreationDate,2023-03-14T20:31:30-04:00
; #@! TF.GenerationSoftware,Kicad,Pcbnew,(7.0.0)
; #@! TF.FileFunction,MixedPlating,1,2
FMAT,2
INCH
; #@! TA.AperFunction,Plated,PTH,ComponentDrill
T1C0.0280
; #@! TA.AperFunction,Plated,PTH,ComponentDrill
T2C0.0315
; #@! TA.AperFunction,Plated,PTH,ComponentDrill
T3C0.0433
; #@! TA.AperFunction,Plated,PTH,ComponentDrill
T4C0.0470
; #@! TA.AperFunction,Plated,PTH,ComponentDrill
T5C0.0472
; #@! TA.AperFunction,Plated,PTH,ComponentDrill
T6C0.0512
; #@! TA.AperFunction,NonPlated,NPTH,ComponentDrill
T7C0.1260
%
G90
G05
T1
X5.908Y-3.468
X5.958Y-3.418
X5.958Y-3.518
X6.008Y-3.468
X7.707Y-4.287
X7.757Y-4.237
X7.757Y-4.337
X7.807Y-4.287
T2
X5.366Y-3.882
X5.366Y-4.182
X5.496Y-3.9856
X5.496Y-4.1824
X5.628Y-3.884
X5.628Y-4.184
X5.682Y-3.362
X5.682Y-3.662
X5.7956Y-3.698
X5.872Y-4.4
X5.8897Y-4.512
X5.8897Y-4.7089
X5.892Y-3.88
X5.9924Y-3.698
X6.0841Y-3.88
X6.172Y-4.4
X6.1831Y-3.512
X6.1831Y-3.7089
X6.258Y-3.016
X6.258Y-3.316
X6.342Y-3.5136
X6.342Y-3.7104
X6.352Y-3.8703
X6.352Y-4.1703
X6.392Y-4.562
X6.392Y-4.687
X6.392Y-4.812
X6.48Y-3.888
X6.48Y-4.0474
X6.4843Y-3.512
X6.6811Y-3.512
X6.692Y-4.562
X6.692Y-4.687
X6.692Y-4.812
X6.707Y-3.067
X6.707Y-3.367
X6.78Y-3.888
X6.78Y-4.0474
X6.802Y-4.5936
X6.802Y-4.7904
X6.862Y-3.1236
X6.862Y-3.3204
X6.892Y-3.8716
X6.892Y-4.0684
X6.992Y-4.517
X7.102Y-4.352
X7.147Y-4.662
X7.202Y-4.352
X7.292Y-4.517
X7.302Y-4.352
X7.3901Y-4.517
X7.402Y-4.352
X7.447Y-4.662
X7.5736Y-4.662
X7.587Y-4.517
X7.597Y-3.7501
X7.597Y-3.947
X7.757Y-3.752
X7.757Y-4.052
X7.7704Y-4.662
X7.847Y-3.352
X7.847Y-3.652
X7.902Y-3.757
X7.902Y-4.057
T3
X5.3564Y-4.3329
X5.3564Y-4.514
X8.072Y-4.187
X8.072Y-4.3681
T4
X6.486Y-3.148
X6.486Y-3.348
T5
X5.45Y-3.4176
X5.45Y-3.6144
X7.1014Y-3.312
X7.3967Y-3.6073
X7.692Y-3.312
T6
X5.916Y-3.024
X5.916Y-3.2445
X6.018Y-4.056
X6.018Y-4.2765
X6.677Y-4.207
X6.677Y-4.4275
X7.242Y-3.872
X7.242Y-4.0925
T7
X5.496Y-3.189
X5.496Y-4.7047
X7.9763Y-3.189
X7.9763Y-4.7047
T0
M30
