M48
; DRILL file {KiCad 8.0.0} date 2024-03-10T20:00:19-0400
; FORMAT={-:-/ absolute / metric / decimal}
; #@! TF.CreationDate,2024-03-10T20:00:19-04:00
; #@! TF.GenerationSoftware,Kicad,Pcbnew,8.0.0
; #@! TF.FileFunction,Plated,1,2,PTH
FMAT,2
METRIC
; #@! TA.AperFunction,Plated,PTH,ComponentDrill
T1C0.750
; #@! TA.AperFunction,Plated,PTH,ComponentDrill
T2C0.762
; #@! TA.AperFunction,Plated,PTH,ComponentDrill
T3C0.800
; #@! TA.AperFunction,Plated,PTH,ComponentDrill
T4C0.813
; #@! TA.AperFunction,Plated,PTH,ComponentDrill
T5C0.889
; #@! TA.AperFunction,Plated,PTH,ComponentDrill
T6C1.100
; #@! TA.AperFunction,Plated,PTH,ComponentDrill
T7C1.200
; #@! TA.AperFunction,Plated,PTH,ComponentDrill
T8C1.300
%
G90
G05
T1
X101.596Y-113.33
X101.596Y-114.6
X101.596Y-115.87
X120.498Y-91.126
X121.768Y-91.126
X123.038Y-91.126
X163.932Y-89.052
X165.202Y-89.052
X166.472Y-89.052
T2
X109.449Y-104.292
X109.449Y-107.34
X116.815Y-104.292
X116.815Y-107.34
T3
X97.536Y-89.662
X97.536Y-97.282
X100.878Y-99.274
X101.092Y-90.424
X101.092Y-95.424
X101.448Y-102.768
X101.448Y-110.388
X104.242Y-90.576
X104.75Y-102.768
X104.75Y-110.388
X105.766Y-119.786
X105.766Y-127.406
X105.878Y-99.274
X106.742Y-90.576
X109.576Y-93.37
X109.576Y-96.926
X109.576Y-100.482
X109.79Y-121.604
X109.79Y-126.604
X110.338Y-87.02
X110.338Y-110.896
X110.338Y-118.516
X113.64Y-110.896
X113.64Y-118.516
X117.094Y-113.538
X117.094Y-121.158
X117.196Y-93.37
X117.196Y-96.926
X117.196Y-100.482
X117.958Y-87.02
X120.244Y-96.418
X120.244Y-104.038
X120.498Y-123.596
X123.8Y-95.402
X123.8Y-100.402
X123.8Y-102.768
X123.8Y-110.388
X124.816Y-112.928
X124.816Y-120.548
X126.34Y-85.242
X126.34Y-92.862
X127.356Y-95.402
X127.356Y-103.022
X128.118Y-123.596
X128.626Y-112.928
X128.626Y-120.548
X129.856Y-85.282
X129.856Y-90.282
X132.182Y-123.596
X132.904Y-115.0
X132.904Y-120.0
X133.198Y-85.242
X133.198Y-92.862
X133.96Y-127.152
X136.46Y-115.0
X136.46Y-120.0
X136.58Y-82.448
X136.754Y-85.536
X136.754Y-90.536
X136.754Y-92.902
X136.754Y-97.902
X139.802Y-123.596
X140.016Y-115.0
X140.016Y-120.0
X141.58Y-82.448
X141.58Y-127.152
X143.358Y-114.706
X143.358Y-122.326
X144.628Y-125.12
X148.438Y-119.786
X150.938Y-119.786
X152.248Y-125.12
X155.122Y-88.036
X155.51Y-96.458
X155.51Y-101.458
X157.542Y-119.572
X157.542Y-124.572
X159.32Y-92.648
X159.32Y-100.268
X160.122Y-88.036
X162.916Y-96.752
X162.916Y-101.752
X163.616Y-121.158
X166.472Y-96.712
X166.472Y-101.712
X168.504Y-105.562
X168.504Y-113.182
X168.616Y-121.158
X169.418Y-92.202
X169.672Y-96.266
X170.536Y-100.228
X173.228Y-116.586
X173.228Y-124.206
X175.536Y-100.228
X177.038Y-92.202
X177.292Y-96.266
X184.658Y-106.934
X184.658Y-114.554
T4
X154.026Y-104.546
X154.026Y-112.166
X156.566Y-104.546
X156.566Y-112.166
X159.106Y-104.546
X159.106Y-112.166
X161.646Y-104.546
X161.646Y-112.166
X173.139Y-105.245
X173.139Y-113.5
X175.679Y-105.245
X175.679Y-113.5
X178.219Y-105.245
X178.219Y-113.5
X180.759Y-105.245
X180.759Y-113.5
T5
X131.166Y-100.736
X131.166Y-108.356
X133.706Y-100.736
X133.706Y-108.356
X136.246Y-100.736
X136.246Y-108.356
X138.786Y-100.736
X138.786Y-108.356
T6
X97.536Y-101.064
X97.536Y-105.664
X97.536Y-110.264
X121.384Y-127.254
X125.984Y-127.254
X162.038Y-125.97
X166.638Y-125.97
T7
X182.78Y-92.85
X182.78Y-97.85
T8
X141.152Y-91.084
X144.362Y-106.578
X146.152Y-96.084
X149.962Y-106.578
X151.152Y-91.084
M30
