  0
SECTION
  2
HEADER
  9
$ANGBASE
  50
0.0
  9
$ANGDIR
  70
1
  9
$MEASUREMENT
  70
1
  0
ENDSEC
  0
SECTION
  2
TABLES
  0
TABLE
  2
LTYPE
  70
4
  0
LTYPE
  5
40F
  2
CONTINUOUS
  70
0
  3
Solid line
  72
65
  73
0
  40
0.0
  0
LTYPE
  5
410
  2
DASHDOT
 70
0
  3
Dash Dot ____ _ ____ _
 72
65
 73
4
 40
2.0
 49
1.25
 49
-0.25
 49
0.25
 49
-0.25
  0
LTYPE
  5
411
  2
DASHED
 70
0
  3
Dashed __ __ __ __ __
 72
65
 73
2
 40
0.75
 49
0.5
 49
-0.25
  0
LTYPE
  5
43B
  2
DOTTED
 70
0
  3
Dotted .  .  .  .
 72
65
 73
2
 40
0.2
 49
0.0
 49
-0.2
  0
ENDTAB
  0
TABLE
  2
STYLE
  70
4
  0
STYLE
  2
KICAD
  70
0
  40
0
  41
1
  42
1
  50
0
  71
0
  3
isocp.shx
  0
STYLE
  2
KICADB
  70
0
  40
0
  41
1
  42
1
  50
0
  71
0
  3
isocp.shx
  0
STYLE
  2
KICADI
  70
0
  40
0
  41
1
  42
1
  50
15
  71
0
  3
isocp.shx
  0
STYLE
  2
KICADBI
  70
0
  40
0
  41
1
  42
1
  50
15
  71
0
  3
isocp.shx
  0
ENDTAB
  0
TABLE
  2
LAYER
  70
1
  0
LAYER
  2
BLACK
  70
0
  62
7
  6
CONTINUOUS
  0
ENDTAB
  0
ENDSEC
  0
SECTION
  2
ENTITIES
0
LINE
8
BLACK
6
CONTINUOUS
10
125.714
20
-124.272
11
125.775
21
-124.104
0
LINE
8
BLACK
6
CONTINUOUS
10
125.775
20
-124.104
11
125.872
21
-123.954
0
LINE
8
BLACK
6
CONTINUOUS
10
125.872
20
-123.954
11
125.999
21
-123.83
0
LINE
8
BLACK
6
CONTINUOUS
10
125.999
20
-123.83
11
126.151
21
-123.736
0
LINE
8
BLACK
6
CONTINUOUS
10
126.151
20
-123.736
11
126.32
21
-123.679
0
LINE
8
BLACK
6
CONTINUOUS
10
126.32
20
-123.679
11
126.498
21
-123.66
0
LINE
8
BLACK
6
CONTINUOUS
10
126.498
20
-123.66
11
126.675
21
-123.681
0
LINE
8
BLACK
6
CONTINUOUS
10
126.675
20
-123.681
11
126.843
21
-123.741
0
LINE
8
BLACK
6
CONTINUOUS
10
126.843
20
-123.741
11
126.993
21
-123.837
0
LINE
8
BLACK
6
CONTINUOUS
10
126.993
20
-123.837
11
127.119
21
-123.963
0
LINE
8
BLACK
6
CONTINUOUS
10
127.119
20
-123.963
11
127.213
21
-124.114
0
LINE
8
BLACK
6
CONTINUOUS
10
127.213
20
-124.114
11
127.272
21
-124.283
0
LINE
8
BLACK
6
CONTINUOUS
10
127.272
20
-124.283
11
127.278
21
-124.335
0
LINE
8
BLACK
6
CONTINUOUS
10
127.278
20
-124.335
11
130.274
21
-124.335
0
LINE
8
BLACK
6
CONTINUOUS
10
130.274
20
-124.335
11
139.421
21
-115.188
0
LINE
8
BLACK
6
CONTINUOUS
10
139.421
20
-115.188
11
127.494
21
-103.262
0
LINE
8
BLACK
6
CONTINUOUS
10
127.494
20
-103.262
11
127.355
21
-103.345
0
LINE
8
BLACK
6
CONTINUOUS
10
127.355
20
-103.345
11
127.186
21
-103.4
0
LINE
8
BLACK
6
CONTINUOUS
10
127.186
20
-103.4
11
127.008
21
-103.416
0
LINE
8
BLACK
6
CONTINUOUS
10
127.008
20
-103.416
11
126.831
21
-103.392
0
LINE
8
BLACK
6
CONTINUOUS
10
126.831
20
-103.392
11
126.664
21
-103.33
0
LINE
8
BLACK
6
CONTINUOUS
10
126.664
20
-103.33
11
126.515
21
-103.232
0
LINE
8
BLACK
6
CONTINUOUS
10
126.515
20
-103.232
11
126.391
21
-103.104
0
LINE
8
BLACK
6
CONTINUOUS
10
126.391
20
-103.104
11
126.299
21
-102.952
0
LINE
8
BLACK
6
CONTINUOUS
10
126.299
20
-102.952
11
126.242
21
-102.782
0
LINE
8
BLACK
6
CONTINUOUS
10
126.242
20
-102.782
11
126.225
21
-102.605
0
LINE
8
BLACK
6
CONTINUOUS
10
126.225
20
-102.605
11
126.247
21
-102.428
0
LINE
8
BLACK
6
CONTINUOUS
10
126.247
20
-102.428
11
126.308
21
-102.26
0
LINE
8
BLACK
6
CONTINUOUS
10
126.308
20
-102.26
11
126.405
21
-102.11
0
LINE
8
BLACK
6
CONTINUOUS
10
126.405
20
-102.11
11
126.532
21
-101.986
0
LINE
8
BLACK
6
CONTINUOUS
10
126.532
20
-101.986
11
126.684
21
-101.892
0
LINE
8
BLACK
6
CONTINUOUS
10
126.684
20
-101.892
11
126.853
21
-101.835
0
LINE
8
BLACK
6
CONTINUOUS
10
126.853
20
-101.835
11
127.03
21
-101.816
0
LINE
8
BLACK
6
CONTINUOUS
10
127.03
20
-101.816
11
127.208
21
-101.837
0
LINE
8
BLACK
6
CONTINUOUS
10
127.208
20
-101.837
11
127.376
21
-101.897
0
LINE
8
BLACK
6
CONTINUOUS
10
127.376
20
-101.897
11
127.526
21
-101.993
0
LINE
8
BLACK
6
CONTINUOUS
10
127.526
20
-101.993
11
127.652
21
-102.119
0
LINE
8
BLACK
6
CONTINUOUS
10
127.652
20
-102.119
11
127.746
21
-102.27
0
LINE
8
BLACK
6
CONTINUOUS
10
127.746
20
-102.27
11
127.805
21
-102.439
0
LINE
8
BLACK
6
CONTINUOUS
10
127.805
20
-102.439
11
127.825
21
-102.616
0
LINE
8
BLACK
6
CONTINUOUS
10
127.825
20
-102.616
11
127.825
21
-102.638
0
LINE
8
BLACK
6
CONTINUOUS
10
127.825
20
-102.638
11
127.8
21
-102.815
0
LINE
8
BLACK
6
CONTINUOUS
10
127.8
20
-102.815
11
127.736
21
-102.982
0
LINE
8
BLACK
6
CONTINUOUS
10
127.736
20
-102.982
11
127.669
21
-103.083
0
LINE
8
BLACK
6
CONTINUOUS
10
127.669
20
-103.083
11
139.686
21
-115.1
0
LINE
8
BLACK
6
CONTINUOUS
10
139.686
20
-115.1
11
139.686
21
-115.1
0
LINE
8
BLACK
6
CONTINUOUS
10
139.686
20
-115.1
11
139.686
21
-115.1
0
LINE
8
BLACK
6
CONTINUOUS
10
139.686
20
-115.1
11
140.539
21
-115.953
0
LINE
8
BLACK
6
CONTINUOUS
10
140.539
20
-115.953
11
148.019
21
-115.953
0
LINE
8
BLACK
6
CONTINUOUS
10
148.019
20
-115.953
11
148.025
21
-115.893
0
LINE
8
BLACK
6
CONTINUOUS
10
148.025
20
-115.893
11
148.083
21
-115.716
0
LINE
8
BLACK
6
CONTINUOUS
10
148.083
20
-115.716
11
148.176
21
-115.555
0
LINE
8
BLACK
6
CONTINUOUS
10
148.176
20
-115.555
11
148.3
21
-115.417
0
LINE
8
BLACK
6
CONTINUOUS
10
148.3
20
-115.417
11
148.45
21
-115.308
0
LINE
8
BLACK
6
CONTINUOUS
10
148.45
20
-115.308
11
148.62
21
-115.233
0
LINE
8
BLACK
6
CONTINUOUS
10
148.62
20
-115.233
11
148.802
21
-115.194
0
LINE
8
BLACK
6
CONTINUOUS
10
148.802
20
-115.194
11
148.988
21
-115.194
0
LINE
8
BLACK
6
CONTINUOUS
10
148.988
20
-115.194
11
149.17
21
-115.233
0
LINE
8
BLACK
6
CONTINUOUS
10
149.17
20
-115.233
11
149.339
21
-115.308
0
LINE
8
BLACK
6
CONTINUOUS
10
149.339
20
-115.308
11
149.49
21
-115.417
0
LINE
8
BLACK
6
CONTINUOUS
10
149.49
20
-115.417
11
149.614
21
-115.555
0
LINE
8
BLACK
6
CONTINUOUS
10
149.614
20
-115.555
11
149.707
21
-115.716
0
LINE
8
BLACK
6
CONTINUOUS
10
149.707
20
-115.716
11
149.764
21
-115.893
0
LINE
8
BLACK
6
CONTINUOUS
10
149.764
20
-115.893
11
149.784
21
-116.078
0
LINE
8
BLACK
6
CONTINUOUS
10
149.784
20
-116.078
11
149.764
21
-116.263
0
LINE
8
BLACK
6
CONTINUOUS
10
149.764
20
-116.263
11
149.707
21
-116.44
0
LINE
8
BLACK
6
CONTINUOUS
10
149.707
20
-116.44
11
149.614
21
-116.601
0
LINE
8
BLACK
6
CONTINUOUS
10
149.614
20
-116.601
11
149.49
21
-116.739
0
LINE
8
BLACK
6
CONTINUOUS
10
149.49
20
-116.739
11
149.339
21
-116.848
0
LINE
8
BLACK
6
CONTINUOUS
10
149.339
20
-116.848
11
149.17
21
-116.923
0
LINE
8
BLACK
6
CONTINUOUS
10
149.17
20
-116.923
11
148.988
21
-116.962
0
LINE
8
BLACK
6
CONTINUOUS
10
148.988
20
-116.962
11
148.802
21
-116.962
0
LINE
8
BLACK
6
CONTINUOUS
10
148.802
20
-116.962
11
148.62
21
-116.923
0
LINE
8
BLACK
6
CONTINUOUS
10
148.62
20
-116.923
11
148.45
21
-116.848
0
LINE
8
BLACK
6
CONTINUOUS
10
148.45
20
-116.848
11
148.3
21
-116.739
0
LINE
8
BLACK
6
CONTINUOUS
10
148.3
20
-116.739
11
148.176
21
-116.601
0
LINE
8
BLACK
6
CONTINUOUS
10
148.176
20
-116.601
11
148.083
21
-116.44
0
LINE
8
BLACK
6
CONTINUOUS
10
148.083
20
-116.44
11
148.025
21
-116.263
0
LINE
8
BLACK
6
CONTINUOUS
10
148.025
20
-116.263
11
148.019
21
-116.203
0
LINE
8
BLACK
6
CONTINUOUS
10
148.019
20
-116.203
11
140.487
21
-116.203
0
LINE
8
BLACK
6
CONTINUOUS
10
140.487
20
-116.203
11
140.465
21
-116.2
0
LINE
8
BLACK
6
CONTINUOUS
10
140.465
20
-116.2
11
140.46
21
-116.2
0
LINE
8
BLACK
6
CONTINUOUS
10
140.46
20
-116.2
11
140.458
21
-116.199
0
LINE
8
BLACK
6
CONTINUOUS
10
140.458
20
-116.199
11
140.451
21
-116.198
0
LINE
8
BLACK
6
CONTINUOUS
10
140.451
20
-116.198
11
140.426
21
-116.181
0
LINE
8
BLACK
6
CONTINUOUS
10
140.426
20
-116.181
11
140.399
21
-116.166
0
LINE
8
BLACK
6
CONTINUOUS
10
140.399
20
-116.166
11
139.597
21
-115.365
0
LINE
8
BLACK
6
CONTINUOUS
10
139.597
20
-115.365
11
130.414
21
-124.548
0
LINE
8
BLACK
6
CONTINUOUS
10
130.414
20
-124.548
11
130.396
21
-124.562
0
LINE
8
BLACK
6
CONTINUOUS
10
130.396
20
-124.562
11
130.393
21
-124.565
0
LINE
8
BLACK
6
CONTINUOUS
10
130.393
20
-124.565
11
130.391
21
-124.566
0
LINE
8
BLACK
6
CONTINUOUS
10
130.391
20
-124.566
11
130.385
21
-124.57
0
LINE
8
BLACK
6
CONTINUOUS
10
130.385
20
-124.57
11
130.355
21
-124.576
0
LINE
8
BLACK
6
CONTINUOUS
10
130.355
20
-124.576
11
130.326
21
-124.585
0
LINE
8
BLACK
6
CONTINUOUS
10
130.326
20
-124.585
11
127.277
21
-124.585
0
LINE
8
BLACK
6
CONTINUOUS
10
127.277
20
-124.585
11
127.267
21
-124.659
0
LINE
8
BLACK
6
CONTINUOUS
10
127.267
20
-124.659
11
127.204
21
-124.826
0
LINE
8
BLACK
6
CONTINUOUS
10
127.204
20
-124.826
11
127.105
21
-124.974
0
LINE
8
BLACK
6
CONTINUOUS
10
127.105
20
-124.974
11
126.976
21
-125.097
0
LINE
8
BLACK
6
CONTINUOUS
10
126.976
20
-125.097
11
126.822
21
-125.189
0
LINE
8
BLACK
6
CONTINUOUS
10
126.822
20
-125.189
11
126.653
21
-125.244
0
LINE
8
BLACK
6
CONTINUOUS
10
126.653
20
-125.244
11
126.475
21
-125.26
0
LINE
8
BLACK
6
CONTINUOUS
10
126.475
20
-125.26
11
126.298
21
-125.236
0
LINE
8
BLACK
6
CONTINUOUS
10
126.298
20
-125.236
11
126.131
21
-125.174
0
LINE
8
BLACK
6
CONTINUOUS
10
126.131
20
-125.174
11
125.982
21
-125.076
0
LINE
8
BLACK
6
CONTINUOUS
10
125.982
20
-125.076
11
125.858
21
-124.948
0
LINE
8
BLACK
6
CONTINUOUS
10
125.858
20
-124.948
11
125.766
21
-124.796
0
LINE
8
BLACK
6
CONTINUOUS
10
125.766
20
-124.796
11
125.709
21
-124.626
0
LINE
8
BLACK
6
CONTINUOUS
10
125.709
20
-124.626
11
125.705
21
-124.585
0
LINE
8
BLACK
6
CONTINUOUS
10
125.705
20
-124.585
11
125.412
21
-124.585
0
LINE
8
BLACK
6
CONTINUOUS
10
125.412
20
-124.585
11
125.412
21
-130.518
0
LINE
8
BLACK
6
CONTINUOUS
10
125.412
20
-130.518
11
126.087
21
-130.518
0
LINE
8
BLACK
6
CONTINUOUS
10
126.087
20
-130.518
11
126.087
21
-132.118
0
LINE
8
BLACK
6
CONTINUOUS
10
126.087
20
-132.118
11
124.487
21
-132.118
0
LINE
8
BLACK
6
CONTINUOUS
10
124.487
20
-132.118
11
124.487
21
-130.518
0
LINE
8
BLACK
6
CONTINUOUS
10
124.487
20
-130.518
11
125.162
21
-130.518
0
LINE
8
BLACK
6
CONTINUOUS
10
125.162
20
-130.518
11
125.162
21
-124.585
0
LINE
8
BLACK
6
CONTINUOUS
10
125.162
20
-124.585
11
112.763
21
-124.585
0
LINE
8
BLACK
6
CONTINUOUS
10
112.763
20
-124.585
11
112.741
21
-124.582
0
LINE
8
BLACK
6
CONTINUOUS
10
112.741
20
-124.582
11
112.737
21
-124.582
0
LINE
8
BLACK
6
CONTINUOUS
10
112.737
20
-124.582
11
112.734
21
-124.581
0
LINE
8
BLACK
6
CONTINUOUS
10
112.734
20
-124.581
11
112.728
21
-124.58
0
LINE
8
BLACK
6
CONTINUOUS
10
112.728
20
-124.58
11
112.702
21
-124.563
0
LINE
8
BLACK
6
CONTINUOUS
10
112.702
20
-124.563
11
112.675
21
-124.548
0
LINE
8
BLACK
6
CONTINUOUS
10
112.675
20
-124.548
11
104.584
21
-116.457
0
LINE
8
BLACK
6
CONTINUOUS
10
104.584
20
-116.457
11
104.31
21
-116.457
0
LINE
8
BLACK
6
CONTINUOUS
10
104.31
20
-116.457
11
104.31
21
-117.221
0
LINE
8
BLACK
6
CONTINUOUS
10
104.31
20
-117.221
11
102.532
21
-117.221
0
LINE
8
BLACK
6
CONTINUOUS
10
102.532
20
-117.221
11
102.532
21
-116.457
0
LINE
8
BLACK
6
CONTINUOUS
10
102.532
20
-116.457
11
97.368
21
-116.457
0
LINE
8
BLACK
6
CONTINUOUS
10
97.368
20
-116.457
11
97.346
21
-116.454
0
LINE
8
BLACK
6
CONTINUOUS
10
97.346
20
-116.454
11
97.3414
21
-116.454
0
LINE
8
BLACK
6
CONTINUOUS
10
97.3414
20
-116.454
11
97.3389
21
-116.453
0
LINE
8
BLACK
6
CONTINUOUS
10
97.3389
20
-116.453
11
97.3325
21
-116.452
0
LINE
8
BLACK
6
CONTINUOUS
10
97.3325
20
-116.452
11
97.3066
21
-116.435
0
LINE
8
BLACK
6
CONTINUOUS
10
97.3066
20
-116.435
11
97.2796
21
-116.42
0
LINE
8
BLACK
6
CONTINUOUS
10
97.2796
20
-116.42
11
86.1672
21
-105.308
0
LINE
8
BLACK
6
CONTINUOUS
10
86.1672
20
-105.308
11
84.3915
21
-105.308
0
LINE
8
BLACK
6
CONTINUOUS
10
84.3915
20
-105.308
11
84.3915
21
-103.308
0
LINE
8
BLACK
6
CONTINUOUS
10
84.3915
20
-103.308
11
86.2965
21
-103.308
0
LINE
8
BLACK
6
CONTINUOUS
10
86.2965
20
-103.308
11
86.2965
21
-105.084
0
LINE
8
BLACK
6
CONTINUOUS
10
86.2965
20
-105.084
11
97.4198
21
-116.207
0
LINE
8
BLACK
6
CONTINUOUS
10
97.4198
20
-116.207
11
102.532
21
-116.207
0
LINE
8
BLACK
6
CONTINUOUS
10
102.532
20
-116.207
11
102.532
21
-115.443
0
LINE
8
BLACK
6
CONTINUOUS
10
102.532
20
-115.443
11
104.31
21
-115.443
0
LINE
8
BLACK
6
CONTINUOUS
10
104.31
20
-115.443
11
104.31
21
-116.207
0
LINE
8
BLACK
6
CONTINUOUS
10
104.31
20
-116.207
11
104.635
21
-116.207
0
LINE
8
BLACK
6
CONTINUOUS
10
104.635
20
-116.207
11
104.657
21
-116.21
0
LINE
8
BLACK
6
CONTINUOUS
10
104.657
20
-116.21
11
104.662
21
-116.21
0
LINE
8
BLACK
6
CONTINUOUS
10
104.662
20
-116.21
11
104.665
21
-116.211
0
LINE
8
BLACK
6
CONTINUOUS
10
104.665
20
-116.211
11
104.671
21
-116.212
0
LINE
8
BLACK
6
CONTINUOUS
10
104.671
20
-116.212
11
104.697
21
-116.229
0
LINE
8
BLACK
6
CONTINUOUS
10
104.697
20
-116.229
11
104.724
21
-116.244
0
LINE
8
BLACK
6
CONTINUOUS
10
104.724
20
-116.244
11
112.815
21
-124.335
0
LINE
8
BLACK
6
CONTINUOUS
10
112.815
20
-124.335
11
125.706
21
-124.335
0
LINE
8
BLACK
6
CONTINUOUS
10
125.706
20
-124.335
11
125.714
21
-124.272
0
LINE
8
BLACK
6
CONTINUOUS
10
127.97
20
-130.539
11
128.138
21
-130.599
0
LINE
8
BLACK
6
CONTINUOUS
10
128.138
20
-130.599
11
128.288
21
-130.695
0
LINE
8
BLACK
6
CONTINUOUS
10
128.288
20
-130.695
11
128.414
21
-130.821
0
LINE
8
BLACK
6
CONTINUOUS
10
128.414
20
-130.821
11
128.508
21
-130.972
0
LINE
8
BLACK
6
CONTINUOUS
10
128.508
20
-130.972
11
128.567
21
-131.141
0
LINE
8
BLACK
6
CONTINUOUS
10
128.567
20
-131.141
11
128.587
21
-131.318
0
LINE
8
BLACK
6
CONTINUOUS
10
128.587
20
-131.318
11
128.587
21
-131.34
0
LINE
8
BLACK
6
CONTINUOUS
10
128.587
20
-131.34
11
128.562
21
-131.517
0
LINE
8
BLACK
6
CONTINUOUS
10
128.562
20
-131.517
11
128.498
21
-131.684
0
LINE
8
BLACK
6
CONTINUOUS
10
128.498
20
-131.684
11
128.4
21
-131.832
0
LINE
8
BLACK
6
CONTINUOUS
10
128.4
20
-131.832
11
128.271
21
-131.955
0
LINE
8
BLACK
6
CONTINUOUS
10
128.271
20
-131.955
11
128.117
21
-132.047
0
LINE
8
BLACK
6
CONTINUOUS
10
128.117
20
-132.047
11
127.948
21
-132.102
0
LINE
8
BLACK
6
CONTINUOUS
10
127.948
20
-132.102
11
127.77
21
-132.118
0
LINE
8
BLACK
6
CONTINUOUS
10
127.77
20
-132.118
11
127.593
21
-132.094
0
LINE
8
BLACK
6
CONTINUOUS
10
127.593
20
-132.094
11
127.426
21
-132.032
0
LINE
8
BLACK
6
CONTINUOUS
10
127.426
20
-132.032
11
127.277
21
-131.934
0
LINE
8
BLACK
6
CONTINUOUS
10
127.277
20
-131.934
11
127.153
21
-131.806
0
LINE
8
BLACK
6
CONTINUOUS
10
127.153
20
-131.806
11
127.061
21
-131.654
0
LINE
8
BLACK
6
CONTINUOUS
10
127.061
20
-131.654
11
127.004
21
-131.484
0
LINE
8
BLACK
6
CONTINUOUS
10
127.004
20
-131.484
11
126.987
21
-131.307
0
LINE
8
BLACK
6
CONTINUOUS
10
126.987
20
-131.307
11
127.009
21
-131.13
0
LINE
8
BLACK
6
CONTINUOUS
10
127.009
20
-131.13
11
127.07
21
-130.962
0
LINE
8
BLACK
6
CONTINUOUS
10
127.07
20
-130.962
11
127.167
21
-130.812
0
LINE
8
BLACK
6
CONTINUOUS
10
127.167
20
-130.812
11
127.294
21
-130.688
0
LINE
8
BLACK
6
CONTINUOUS
10
127.294
20
-130.688
11
127.446
21
-130.594
0
LINE
8
BLACK
6
CONTINUOUS
10
127.446
20
-130.594
11
127.615
21
-130.537
0
LINE
8
BLACK
6
CONTINUOUS
10
127.615
20
-130.537
11
127.792
21
-130.518
0
LINE
8
BLACK
6
CONTINUOUS
10
127.792
20
-130.518
11
127.97
21
-130.539
0
LINE
8
BLACK
6
CONTINUOUS
10
88.0365
20
-119.225
11
88.2925
21
-119.266
0
LINE
8
BLACK
6
CONTINUOUS
10
88.2925
20
-119.266
11
88.5396
21
-119.345
0
LINE
8
BLACK
6
CONTINUOUS
10
88.5396
20
-119.345
11
88.7722
21
-119.46
0
LINE
8
BLACK
6
CONTINUOUS
10
88.7722
20
-119.46
11
88.9853
21
-119.608
0
LINE
8
BLACK
6
CONTINUOUS
10
88.9853
20
-119.608
11
89.1742
21
-119.786
0
LINE
8
BLACK
6
CONTINUOUS
10
89.1742
20
-119.786
11
89.3348
21
-119.989
0
LINE
8
BLACK
6
CONTINUOUS
10
89.3348
20
-119.989
11
89.4635
21
-120.215
0
LINE
8
BLACK
6
CONTINUOUS
10
89.4635
20
-120.215
11
89.5575
21
-120.456
0
LINE
8
BLACK
6
CONTINUOUS
10
89.5575
20
-120.456
11
89.6148
21
-120.709
0
LINE
8
BLACK
6
CONTINUOUS
10
89.6148
20
-120.709
11
89.634
21
-120.968
0
LINE
8
BLACK
6
CONTINUOUS
10
89.634
20
-120.968
11
89.6316
21
-121.06
0
LINE
8
BLACK
6
CONTINUOUS
10
89.6316
20
-121.06
11
89.5989
21
-121.317
0
LINE
8
BLACK
6
CONTINUOUS
10
89.5989
20
-121.317
11
89.5285
21
-121.567
0
LINE
8
BLACK
6
CONTINUOUS
10
89.5285
20
-121.567
11
89.4219
21
-121.803
0
LINE
8
BLACK
6
CONTINUOUS
10
89.4219
20
-121.803
11
89.2816
21
-122.021
0
LINE
8
BLACK
6
CONTINUOUS
10
89.2816
20
-122.021
11
89.1106
21
-122.216
0
LINE
8
BLACK
6
CONTINUOUS
10
89.1106
20
-122.216
11
88.9126
21
-122.384
0
LINE
8
BLACK
6
CONTINUOUS
10
88.9126
20
-122.384
11
88.6921
21
-122.52
0
LINE
8
BLACK
6
CONTINUOUS
10
88.6921
20
-122.52
11
88.4537
21
-122.623
0
LINE
8
BLACK
6
CONTINUOUS
10
88.4537
20
-122.623
11
88.2029
21
-122.689
0
LINE
8
BLACK
6
CONTINUOUS
10
88.2029
20
-122.689
11
87.9451
21
-122.717
0
LINE
8
BLACK
6
CONTINUOUS
10
87.9451
20
-122.717
11
87.6859
21
-122.707
0
LINE
8
BLACK
6
CONTINUOUS
10
87.6859
20
-122.707
11
87.4311
21
-122.658
0
LINE
8
BLACK
6
CONTINUOUS
10
87.4311
20
-122.658
11
87.1862
21
-122.573
0
LINE
8
BLACK
6
CONTINUOUS
10
87.1862
20
-122.573
11
86.9566
21
-122.452
0
LINE
8
BLACK
6
CONTINUOUS
10
86.9566
20
-122.452
11
86.7475
21
-122.299
0
LINE
8
BLACK
6
CONTINUOUS
10
86.7475
20
-122.299
11
86.5633
21
-122.116
0
LINE
8
BLACK
6
CONTINUOUS
10
86.5633
20
-122.116
11
86.4081
21
-121.908
0
LINE
8
BLACK
6
CONTINUOUS
10
86.4081
20
-121.908
11
86.2853
21
-121.68
0
LINE
8
BLACK
6
CONTINUOUS
10
86.2853
20
-121.68
11
86.1976
21
-121.436
0
LINE
8
BLACK
6
CONTINUOUS
10
86.1976
20
-121.436
11
86.147
21
-121.181
0
LINE
8
BLACK
6
CONTINUOUS
10
86.147
20
-121.181
11
86.1346
21
-120.922
0
LINE
8
BLACK
6
CONTINUOUS
10
86.1346
20
-120.922
11
86.1606
21
-120.664
0
LINE
8
BLACK
6
CONTINUOUS
10
86.1606
20
-120.664
11
86.2244
21
-120.413
0
LINE
8
BLACK
6
CONTINUOUS
10
86.2244
20
-120.413
11
86.3247
21
-120.174
0
LINE
8
BLACK
6
CONTINUOUS
10
86.3247
20
-120.174
11
86.4593
21
-119.952
0
LINE
8
BLACK
6
CONTINUOUS
10
86.4593
20
-119.952
11
86.6252
21
-119.752
0
LINE
8
BLACK
6
CONTINUOUS
10
86.6252
20
-119.752
11
86.8187
21
-119.58
0
LINE
8
BLACK
6
CONTINUOUS
10
86.8187
20
-119.58
11
87.0356
21
-119.437
0
LINE
8
BLACK
6
CONTINUOUS
10
87.0356
20
-119.437
11
87.2711
21
-119.329
0
LINE
8
BLACK
6
CONTINUOUS
10
87.2711
20
-119.329
11
87.5202
21
-119.256
0
LINE
8
BLACK
6
CONTINUOUS
10
87.5202
20
-119.256
11
87.7772
21
-119.221
0
LINE
8
BLACK
6
CONTINUOUS
10
87.7772
20
-119.221
11
88.0365
21
-119.225
0
LINE
8
BLACK
6
CONTINUOUS
10
90.5697
20
-103.319
11
90.756
21
-103.368
0
LINE
8
BLACK
6
CONTINUOUS
10
90.756
20
-103.368
11
90.9287
21
-103.453
0
LINE
8
BLACK
6
CONTINUOUS
10
90.9287
20
-103.453
11
91.0809
21
-103.571
0
LINE
8
BLACK
6
CONTINUOUS
10
91.0809
20
-103.571
11
91.2061
21
-103.717
0
LINE
8
BLACK
6
CONTINUOUS
10
91.2061
20
-103.717
11
91.2995
21
-103.885
0
LINE
8
BLACK
6
CONTINUOUS
10
91.2995
20
-103.885
11
91.357
21
-104.069
0
LINE
8
BLACK
6
CONTINUOUS
10
91.357
20
-104.069
11
91.3686
21
-104.183
0
LINE
8
BLACK
6
CONTINUOUS
10
91.3686
20
-104.183
11
103.894
21
-104.183
0
LINE
8
BLACK
6
CONTINUOUS
10
103.894
20
-104.183
11
103.916
21
-104.186
0
LINE
8
BLACK
6
CONTINUOUS
10
103.916
20
-104.186
11
103.921
21
-104.186
0
LINE
8
BLACK
6
CONTINUOUS
10
103.921
20
-104.186
11
103.923
21
-104.187
0
LINE
8
BLACK
6
CONTINUOUS
10
103.923
20
-104.187
11
103.929
21
-104.188
0
LINE
8
BLACK
6
CONTINUOUS
10
103.929
20
-104.188
11
103.955
21
-104.205
0
LINE
8
BLACK
6
CONTINUOUS
10
103.955
20
-104.205
11
103.982
21
-104.22
0
LINE
8
BLACK
6
CONTINUOUS
10
103.982
20
-104.22
11
115.387
21
-115.625
0
LINE
8
BLACK
6
CONTINUOUS
10
115.387
20
-115.625
11
115.473
21
-115.562
0
LINE
8
BLACK
6
CONTINUOUS
10
115.473
20
-115.562
11
115.643
21
-115.487
0
LINE
8
BLACK
6
CONTINUOUS
10
115.643
20
-115.487
11
115.825
21
-115.448
0
LINE
8
BLACK
6
CONTINUOUS
10
115.825
20
-115.448
11
116.011
21
-115.448
0
LINE
8
BLACK
6
CONTINUOUS
10
116.011
20
-115.448
11
116.193
21
-115.487
0
LINE
8
BLACK
6
CONTINUOUS
10
116.193
20
-115.487
11
116.362
21
-115.562
0
LINE
8
BLACK
6
CONTINUOUS
10
116.362
20
-115.562
11
116.513
21
-115.671
0
LINE
8
BLACK
6
CONTINUOUS
10
116.513
20
-115.671
11
116.637
21
-115.809
0
LINE
8
BLACK
6
CONTINUOUS
10
116.637
20
-115.809
11
116.73
21
-115.97
0
LINE
8
BLACK
6
CONTINUOUS
10
116.73
20
-115.97
11
116.787
21
-116.147
0
LINE
8
BLACK
6
CONTINUOUS
10
116.787
20
-116.147
11
116.807
21
-116.332
0
LINE
8
BLACK
6
CONTINUOUS
10
116.807
20
-116.332
11
116.787
21
-116.517
0
LINE
8
BLACK
6
CONTINUOUS
10
116.787
20
-116.517
11
116.73
21
-116.694
0
LINE
8
BLACK
6
CONTINUOUS
10
116.73
20
-116.694
11
116.637
21
-116.855
0
LINE
8
BLACK
6
CONTINUOUS
10
116.637
20
-116.855
11
116.513
21
-116.993
0
LINE
8
BLACK
6
CONTINUOUS
10
116.513
20
-116.993
11
116.362
21
-117.102
0
LINE
8
BLACK
6
CONTINUOUS
10
116.362
20
-117.102
11
116.193
21
-117.177
0
LINE
8
BLACK
6
CONTINUOUS
10
116.193
20
-117.177
11
116.011
21
-117.216
0
LINE
8
BLACK
6
CONTINUOUS
10
116.011
20
-117.216
11
115.825
21
-117.216
0
LINE
8
BLACK
6
CONTINUOUS
10
115.825
20
-117.216
11
115.643
21
-117.177
0
LINE
8
BLACK
6
CONTINUOUS
10
115.643
20
-117.177
11
115.473
21
-117.102
0
LINE
8
BLACK
6
CONTINUOUS
10
115.473
20
-117.102
11
115.323
21
-116.993
0
LINE
8
BLACK
6
CONTINUOUS
10
115.323
20
-116.993
11
115.199
21
-116.855
0
LINE
8
BLACK
6
CONTINUOUS
10
115.199
20
-116.855
11
115.106
21
-116.694
0
LINE
8
BLACK
6
CONTINUOUS
10
115.106
20
-116.694
11
115.048
21
-116.517
0
LINE
8
BLACK
6
CONTINUOUS
10
115.048
20
-116.517
11
115.029
21
-116.332
0
LINE
8
BLACK
6
CONTINUOUS
10
115.029
20
-116.332
11
115.048
21
-116.147
0
LINE
8
BLACK
6
CONTINUOUS
10
115.048
20
-116.147
11
115.106
21
-115.97
0
LINE
8
BLACK
6
CONTINUOUS
10
115.106
20
-115.97
11
115.199
21
-115.809
0
LINE
8
BLACK
6
CONTINUOUS
10
115.199
20
-115.809
11
115.208
21
-115.799
0
LINE
8
BLACK
6
CONTINUOUS
10
115.208
20
-115.799
11
103.842
21
-104.433
0
LINE
8
BLACK
6
CONTINUOUS
10
103.842
20
-104.433
11
91.3724
21
-104.433
0
LINE
8
BLACK
6
CONTINUOUS
10
91.3724
20
-104.433
11
91.3713
21
-104.455
0
LINE
8
BLACK
6
CONTINUOUS
10
91.3713
20
-104.455
11
91.3319
21
-104.644
0
LINE
8
BLACK
6
CONTINUOUS
10
91.3319
20
-104.644
11
91.2555
21
-104.82
0
LINE
8
BLACK
6
CONTINUOUS
10
91.2555
20
-104.82
11
91.145
21
-104.978
0
LINE
8
BLACK
6
CONTINUOUS
10
91.145
20
-104.978
11
91.0052
21
-105.11
0
LINE
8
BLACK
6
CONTINUOUS
10
91.0052
20
-105.11
11
90.8415
21
-105.212
0
LINE
8
BLACK
6
CONTINUOUS
10
90.8415
20
-105.212
11
90.6609
21
-105.278
0
LINE
8
BLACK
6
CONTINUOUS
10
90.6609
20
-105.278
11
90.4705
21
-105.307
0
LINE
8
BLACK
6
CONTINUOUS
10
90.4705
20
-105.307
11
90.2783
21
-105.297
0
LINE
8
BLACK
6
CONTINUOUS
10
90.2783
20
-105.297
11
90.092
21
-105.248
0
LINE
8
BLACK
6
CONTINUOUS
10
90.092
20
-105.248
11
89.9193
21
-105.163
0
LINE
8
BLACK
6
CONTINUOUS
10
89.9193
20
-105.163
11
89.7671
21
-105.045
0
LINE
8
BLACK
6
CONTINUOUS
10
89.7671
20
-105.045
11
89.6419
21
-104.899
0
LINE
8
BLACK
6
CONTINUOUS
10
89.6419
20
-104.899
11
89.5485
21
-104.731
0
LINE
8
BLACK
6
CONTINUOUS
10
89.5485
20
-104.731
11
89.491
21
-104.547
0
LINE
8
BLACK
6
CONTINUOUS
10
89.491
20
-104.547
11
89.4715
21
-104.355
0
LINE
8
BLACK
6
CONTINUOUS
10
89.4715
20
-104.355
11
89.4715
21
-104.26
0
LINE
8
BLACK
6
CONTINUOUS
10
89.4715
20
-104.26
11
89.4767
21
-104.161
0
LINE
8
BLACK
6
CONTINUOUS
10
89.4767
20
-104.161
11
89.5161
21
-103.972
0
LINE
8
BLACK
6
CONTINUOUS
10
89.5161
20
-103.972
11
89.5925
21
-103.796
0
LINE
8
BLACK
6
CONTINUOUS
10
89.5925
20
-103.796
11
89.703
21
-103.638
0
LINE
8
BLACK
6
CONTINUOUS
10
89.703
20
-103.638
11
89.8428
21
-103.506
0
LINE
8
BLACK
6
CONTINUOUS
10
89.8428
20
-103.506
11
90.0065
21
-103.404
0
LINE
8
BLACK
6
CONTINUOUS
10
90.0065
20
-103.404
11
90.1871
21
-103.338
0
LINE
8
BLACK
6
CONTINUOUS
10
90.1871
20
-103.338
11
90.3775
21
-103.309
0
LINE
8
BLACK
6
CONTINUOUS
10
90.3775
20
-103.309
11
90.5697
21
-103.319
0
LINE
8
BLACK
6
CONTINUOUS
10
85.7885
20
-80.1917
11
109.329
21
-103.733
0
LINE
8
BLACK
6
CONTINUOUS
10
109.329
20
-103.733
11
122.963
21
-103.733
0
LINE
8
BLACK
6
CONTINUOUS
10
122.963
20
-103.733
11
122.985
21
-103.736
0
LINE
8
BLACK
6
CONTINUOUS
10
122.985
20
-103.736
11
122.99
21
-103.735
0
LINE
8
BLACK
6
CONTINUOUS
10
122.99
20
-103.735
11
122.992
21
-103.737
0
LINE
8
BLACK
6
CONTINUOUS
10
122.992
20
-103.737
11
122.999
21
-103.738
0
LINE
8
BLACK
6
CONTINUOUS
10
122.999
20
-103.738
11
123.025
21
-103.754
0
LINE
8
BLACK
6
CONTINUOUS
10
123.025
20
-103.754
11
123.052
21
-103.769
0
LINE
8
BLACK
6
CONTINUOUS
10
123.052
20
-103.769
11
135.235
21
-115.953
0
LINE
8
BLACK
6
CONTINUOUS
10
135.235
20
-115.953
11
135.509
21
-115.953
0
LINE
8
BLACK
6
CONTINUOUS
10
135.509
20
-115.953
11
135.509
21
-115.189
0
LINE
8
BLACK
6
CONTINUOUS
10
135.509
20
-115.189
11
137.287
21
-115.189
0
LINE
8
BLACK
6
CONTINUOUS
10
137.287
20
-115.189
11
137.287
21
-116.967
0
LINE
8
BLACK
6
CONTINUOUS
10
137.287
20
-116.967
11
135.509
21
-116.967
0
LINE
8
BLACK
6
CONTINUOUS
10
135.509
20
-116.967
11
135.509
21
-116.203
0
LINE
8
BLACK
6
CONTINUOUS
10
135.509
20
-116.203
11
135.184
21
-116.203
0
LINE
8
BLACK
6
CONTINUOUS
10
135.184
20
-116.203
11
135.162
21
-116.2
0
LINE
8
BLACK
6
CONTINUOUS
10
135.162
20
-116.2
11
135.157
21
-116.2
0
LINE
8
BLACK
6
CONTINUOUS
10
135.157
20
-116.2
11
135.155
21
-116.199
0
LINE
8
BLACK
6
CONTINUOUS
10
135.155
20
-116.199
11
135.148
21
-116.198
0
LINE
8
BLACK
6
CONTINUOUS
10
135.148
20
-116.198
11
135.122
21
-116.181
0
LINE
8
BLACK
6
CONTINUOUS
10
135.122
20
-116.181
11
135.095
21
-116.166
0
LINE
8
BLACK
6
CONTINUOUS
10
135.095
20
-116.166
11
122.912
21
-103.983
0
LINE
8
BLACK
6
CONTINUOUS
10
122.912
20
-103.983
11
109.278
21
-103.983
0
LINE
8
BLACK
6
CONTINUOUS
10
109.278
20
-103.983
11
109.256
21
-103.979
0
LINE
8
BLACK
6
CONTINUOUS
10
109.256
20
-103.979
11
109.251
21
-103.98
0
LINE
8
BLACK
6
CONTINUOUS
10
109.251
20
-103.98
11
109.248
21
-103.978
0
LINE
8
BLACK
6
CONTINUOUS
10
109.248
20
-103.978
11
109.242
21
-103.977
0
LINE
8
BLACK
6
CONTINUOUS
10
109.242
20
-103.977
11
109.216
21
-103.961
0
LINE
8
BLACK
6
CONTINUOUS
10
109.216
20
-103.961
11
109.189
21
-103.946
0
LINE
8
BLACK
6
CONTINUOUS
10
109.189
20
-103.946
11
85.6592
21
-80.416
0
LINE
8
BLACK
6
CONTINUOUS
10
85.6592
20
-80.416
11
83.8835
21
-80.416
0
LINE
8
BLACK
6
CONTINUOUS
10
83.8835
20
-80.416
11
83.8835
21
-78.416
0
LINE
8
BLACK
6
CONTINUOUS
10
83.8835
20
-78.416
11
85.7885
21
-78.416
0
LINE
8
BLACK
6
CONTINUOUS
10
85.7885
20
-78.416
11
85.7885
21
-80.1917
0
LINE
8
BLACK
6
CONTINUOUS
10
126.675
20
-110.981
11
126.843
21
-111.041
0
LINE
8
BLACK
6
CONTINUOUS
10
126.843
20
-111.041
11
126.993
21
-111.137
0
LINE
8
BLACK
6
CONTINUOUS
10
126.993
20
-111.137
11
127.119
21
-111.263
0
LINE
8
BLACK
6
CONTINUOUS
10
127.119
20
-111.263
11
127.213
21
-111.414
0
LINE
8
BLACK
6
CONTINUOUS
10
127.213
20
-111.414
11
127.272
21
-111.583
0
LINE
8
BLACK
6
CONTINUOUS
10
127.272
20
-111.583
11
127.292
21
-111.76
0
LINE
8
BLACK
6
CONTINUOUS
10
127.292
20
-111.76
11
127.292
21
-111.782
0
LINE
8
BLACK
6
CONTINUOUS
10
127.292
20
-111.782
11
127.267
21
-111.959
0
LINE
8
BLACK
6
CONTINUOUS
10
127.267
20
-111.959
11
127.204
21
-112.126
0
LINE
8
BLACK
6
CONTINUOUS
10
127.204
20
-112.126
11
127.105
21
-112.274
0
LINE
8
BLACK
6
CONTINUOUS
10
127.105
20
-112.274
11
126.976
21
-112.397
0
LINE
8
BLACK
6
CONTINUOUS
10
126.976
20
-112.397
11
126.822
21
-112.489
0
LINE
8
BLACK
6
CONTINUOUS
10
126.822
20
-112.489
11
126.653
21
-112.544
0
LINE
8
BLACK
6
CONTINUOUS
10
126.653
20
-112.544
11
126.475
21
-112.56
0
LINE
8
BLACK
6
CONTINUOUS
10
126.475
20
-112.56
11
126.298
21
-112.536
0
LINE
8
BLACK
6
CONTINUOUS
10
126.298
20
-112.536
11
126.131
21
-112.474
0
LINE
8
BLACK
6
CONTINUOUS
10
126.131
20
-112.474
11
125.982
21
-112.376
0
LINE
8
BLACK
6
CONTINUOUS
10
125.982
20
-112.376
11
125.858
21
-112.248
0
LINE
8
BLACK
6
CONTINUOUS
10
125.858
20
-112.248
11
125.766
21
-112.096
0
LINE
8
BLACK
6
CONTINUOUS
10
125.766
20
-112.096
11
125.709
21
-111.926
0
LINE
8
BLACK
6
CONTINUOUS
10
125.709
20
-111.926
11
125.692
21
-111.749
0
LINE
8
BLACK
6
CONTINUOUS
10
125.692
20
-111.749
11
125.714
21
-111.572
0
LINE
8
BLACK
6
CONTINUOUS
10
125.714
20
-111.572
11
125.775
21
-111.404
0
LINE
8
BLACK
6
CONTINUOUS
10
125.775
20
-111.404
11
125.872
21
-111.254
0
LINE
8
BLACK
6
CONTINUOUS
10
125.872
20
-111.254
11
125.999
21
-111.13
0
LINE
8
BLACK
6
CONTINUOUS
10
125.999
20
-111.13
11
126.151
21
-111.036
0
LINE
8
BLACK
6
CONTINUOUS
10
126.151
20
-111.036
11
126.32
21
-110.979
0
LINE
8
BLACK
6
CONTINUOUS
10
126.32
20
-110.979
11
126.498
21
-110.96
0
LINE
8
BLACK
6
CONTINUOUS
10
126.498
20
-110.96
11
126.675
21
-110.981
0
LINE
8
BLACK
6
CONTINUOUS
10
88.0297
20
-103.319
11
88.216
21
-103.368
0
LINE
8
BLACK
6
CONTINUOUS
10
88.216
20
-103.368
11
88.3887
21
-103.453
0
LINE
8
BLACK
6
CONTINUOUS
10
88.3887
20
-103.453
11
88.5409
21
-103.571
0
LINE
8
BLACK
6
CONTINUOUS
10
88.5409
20
-103.571
11
88.6661
21
-103.717
0
LINE
8
BLACK
6
CONTINUOUS
10
88.6661
20
-103.717
11
88.7595
21
-103.885
0
LINE
8
BLACK
6
CONTINUOUS
10
88.7595
20
-103.885
11
88.817
21
-104.069
0
LINE
8
BLACK
6
CONTINUOUS
10
88.817
20
-104.069
11
88.8365
21
-104.26
0
LINE
8
BLACK
6
CONTINUOUS
10
88.8365
20
-104.26
11
88.8365
21
-104.355
0
LINE
8
BLACK
6
CONTINUOUS
10
88.8365
20
-104.355
11
88.8313
21
-104.455
0
LINE
8
BLACK
6
CONTINUOUS
10
88.8313
20
-104.455
11
88.7919
21
-104.644
0
LINE
8
BLACK
6
CONTINUOUS
10
88.7919
20
-104.644
11
88.7155
21
-104.82
0
LINE
8
BLACK
6
CONTINUOUS
10
88.7155
20
-104.82
11
88.605
21
-104.978
0
LINE
8
BLACK
6
CONTINUOUS
10
88.605
20
-104.978
11
88.4652
21
-105.11
0
LINE
8
BLACK
6
CONTINUOUS
10
88.4652
20
-105.11
11
88.3015
21
-105.212
0
LINE
8
BLACK
6
CONTINUOUS
10
88.3015
20
-105.212
11
88.1209
21
-105.278
0
LINE
8
BLACK
6
CONTINUOUS
10
88.1209
20
-105.278
11
87.9305
21
-105.307
0
LINE
8
BLACK
6
CONTINUOUS
10
87.9305
20
-105.307
11
87.7383
21
-105.297
0
LINE
8
BLACK
6
CONTINUOUS
10
87.7383
20
-105.297
11
87.552
21
-105.248
0
LINE
8
BLACK
6
CONTINUOUS
10
87.552
20
-105.248
11
87.3793
21
-105.163
0
LINE
8
BLACK
6
CONTINUOUS
10
87.3793
20
-105.163
11
87.2271
21
-105.045
0
LINE
8
BLACK
6
CONTINUOUS
10
87.2271
20
-105.045
11
87.1019
21
-104.899
0
LINE
8
BLACK
6
CONTINUOUS
10
87.1019
20
-104.899
11
87.0085
21
-104.731
0
LINE
8
BLACK
6
CONTINUOUS
10
87.0085
20
-104.731
11
86.951
21
-104.547
0
LINE
8
BLACK
6
CONTINUOUS
10
86.951
20
-104.547
11
86.9315
21
-104.355
0
LINE
8
BLACK
6
CONTINUOUS
10
86.9315
20
-104.355
11
86.9315
21
-104.26
0
LINE
8
BLACK
6
CONTINUOUS
10
86.9315
20
-104.26
11
86.9367
21
-104.161
0
LINE
8
BLACK
6
CONTINUOUS
10
86.9367
20
-104.161
11
86.9761
21
-103.972
0
LINE
8
BLACK
6
CONTINUOUS
10
86.9761
20
-103.972
11
87.0525
21
-103.796
0
LINE
8
BLACK
6
CONTINUOUS
10
87.0525
20
-103.796
11
87.163
21
-103.638
0
LINE
8
BLACK
6
CONTINUOUS
10
87.163
20
-103.638
11
87.3028
21
-103.506
0
LINE
8
BLACK
6
CONTINUOUS
10
87.3028
20
-103.506
11
87.4665
21
-103.404
0
LINE
8
BLACK
6
CONTINUOUS
10
87.4665
20
-103.404
11
87.6471
21
-103.338
0
LINE
8
BLACK
6
CONTINUOUS
10
87.6471
20
-103.338
11
87.8375
21
-103.309
0
LINE
8
BLACK
6
CONTINUOUS
10
87.8375
20
-103.309
11
88.0297
21
-103.319
0
LINE
8
BLACK
6
CONTINUOUS
10
125.325
20
-103.416
11
123.725
21
-103.416
0
LINE
8
BLACK
6
CONTINUOUS
10
123.725
20
-103.416
11
123.725
21
-101.816
0
LINE
8
BLACK
6
CONTINUOUS
10
123.725
20
-101.816
11
125.325
21
-101.816
0
LINE
8
BLACK
6
CONTINUOUS
10
125.325
20
-101.816
11
125.325
21
-103.416
0
LINE
8
BLACK
6
CONTINUOUS
10
87.5285
20
-94.3327
11
87.7845
21
-94.3744
0
LINE
8
BLACK
6
CONTINUOUS
10
87.7845
20
-94.3744
11
88.0316
21
-94.4534
0
LINE
8
BLACK
6
CONTINUOUS
10
88.0316
20
-94.4534
11
88.2642
21
-94.5681
0
LINE
8
BLACK
6
CONTINUOUS
10
88.2642
20
-94.5681
11
88.4773
21
-94.716
0
LINE
8
BLACK
6
CONTINUOUS
10
88.4773
20
-94.716
11
88.6662
21
-94.8937
0
LINE
8
BLACK
6
CONTINUOUS
10
88.6662
20
-94.8937
11
88.8268
21
-95.0974
0
LINE
8
BLACK
6
CONTINUOUS
10
88.8268
20
-95.0974
11
88.9555
21
-95.3226
0
LINE
8
BLACK
6
CONTINUOUS
10
88.9555
20
-95.3226
11
89.0495
21
-95.5643
0
LINE
8
BLACK
6
CONTINUOUS
10
89.0495
20
-95.5643
11
89.1068
21
-95.8173
0
LINE
8
BLACK
6
CONTINUOUS
10
89.1068
20
-95.8173
11
89.126
21
-96.076
0
LINE
8
BLACK
6
CONTINUOUS
10
89.126
20
-96.076
11
89.1236
21
-96.1676
0
LINE
8
BLACK
6
CONTINUOUS
10
89.1236
20
-96.1676
11
89.0909
21
-96.4249
0
LINE
8
BLACK
6
CONTINUOUS
10
89.0909
20
-96.4249
11
89.0205
21
-96.6745
0
LINE
8
BLACK
6
CONTINUOUS
10
89.0205
20
-96.6745
11
88.9139
21
-96.911
0
LINE
8
BLACK
6
CONTINUOUS
10
88.9139
20
-96.911
11
88.7736
21
-97.1292
0
LINE
8
BLACK
6
CONTINUOUS
10
88.7736
20
-97.1292
11
88.6026
21
-97.3242
0
LINE
8
BLACK
6
CONTINUOUS
10
88.6026
20
-97.3242
11
88.4046
21
-97.4918
0
LINE
8
BLACK
6
CONTINUOUS
10
88.4046
20
-97.4918
11
88.1841
21
-97.6283
0
LINE
8
BLACK
6
CONTINUOUS
10
88.1841
20
-97.6283
11
87.9457
21
-97.7307
0
LINE
8
BLACK
6
CONTINUOUS
10
87.9457
20
-97.7307
11
87.6949
21
-97.7967
0
LINE
8
BLACK
6
CONTINUOUS
10
87.6949
20
-97.7967
11
87.4371
21
-97.8249
0
LINE
8
BLACK
6
CONTINUOUS
10
87.4371
20
-97.8249
11
87.1779
21
-97.8148
0
LINE
8
BLACK
6
CONTINUOUS
10
87.1779
20
-97.8148
11
86.9231
21
-97.7664
0
LINE
8
BLACK
6
CONTINUOUS
10
86.9231
20
-97.7664
11
86.6782
21
-97.6809
0
LINE
8
BLACK
6
CONTINUOUS
10
86.6782
20
-97.6809
11
86.4486
21
-97.5601
0
LINE
8
BLACK
6
CONTINUOUS
10
86.4486
20
-97.5601
11
86.2395
21
-97.4067
0
LINE
8
BLACK
6
CONTINUOUS
10
86.2395
20
-97.4067
11
86.0553
21
-97.2241
0
LINE
8
BLACK
6
CONTINUOUS
10
86.0553
20
-97.2241
11
85.9001
21
-97.0163
0
LINE
8
BLACK
6
CONTINUOUS
10
85.9001
20
-97.0163
11
85.7773
21
-96.7878
0
LINE
8
BLACK
6
CONTINUOUS
10
85.7773
20
-96.7878
11
85.6896
21
-96.5437
0
LINE
8
BLACK
6
CONTINUOUS
10
85.6896
20
-96.5437
11
85.639
21
-96.2893
0
LINE
8
BLACK
6
CONTINUOUS
10
85.639
20
-96.2893
11
85.6266
21
-96.0302
0
LINE
8
BLACK
6
CONTINUOUS
10
85.6266
20
-96.0302
11
85.6526
21
-95.7721
0
LINE
8
BLACK
6
CONTINUOUS
10
85.6526
20
-95.7721
11
85.7164
21
-95.5207
0
LINE
8
BLACK
6
CONTINUOUS
10
85.7164
20
-95.5207
11
85.8167
21
-95.2815
0
LINE
8
BLACK
6
CONTINUOUS
10
85.8167
20
-95.2815
11
85.9513
21
-95.0598
0
LINE
8
BLACK
6
CONTINUOUS
10
85.9513
20
-95.0598
11
86.1172
21
-94.8603
0
LINE
8
BLACK
6
CONTINUOUS
10
86.1172
20
-94.8603
11
86.3107
21
-94.6876
0
LINE
8
BLACK
6
CONTINUOUS
10
86.3107
20
-94.6876
11
86.5276
21
-94.5454
0
LINE
8
BLACK
6
CONTINUOUS
10
86.5276
20
-94.5454
11
86.7631
21
-94.4368
0
LINE
8
BLACK
6
CONTINUOUS
10
86.7631
20
-94.4368
11
87.0122
21
-94.3642
0
LINE
8
BLACK
6
CONTINUOUS
10
87.0122
20
-94.3642
11
87.2692
21
-94.3293
0
LINE
8
BLACK
6
CONTINUOUS
10
87.2692
20
-94.3293
11
87.5285
21
-94.3327
0
LINE
8
BLACK
6
CONTINUOUS
10
90.0617
20
-78.4272
11
90.248
21
-78.4757
0
LINE
8
BLACK
6
CONTINUOUS
10
90.248
20
-78.4757
11
90.4207
21
-78.5607
0
LINE
8
BLACK
6
CONTINUOUS
10
90.4207
20
-78.5607
11
90.5729
21
-78.6787
0
LINE
8
BLACK
6
CONTINUOUS
10
90.5729
20
-78.6787
11
90.6981
21
-78.8249
0
LINE
8
BLACK
6
CONTINUOUS
10
90.6981
20
-78.8249
11
90.7915
21
-78.9933
0
LINE
8
BLACK
6
CONTINUOUS
10
90.7915
20
-78.9933
11
90.849
21
-79.177
0
LINE
8
BLACK
6
CONTINUOUS
10
90.849
20
-79.177
11
90.8606
21
-79.291
0
LINE
8
BLACK
6
CONTINUOUS
10
90.8606
20
-79.291
11
92.1717
21
-79.291
0
LINE
8
BLACK
6
CONTINUOUS
10
92.1717
20
-79.291
11
92.1937
21
-79.2942
0
LINE
8
BLACK
6
CONTINUOUS
10
92.1937
20
-79.2942
11
92.1983
21
-79.2939
0
LINE
8
BLACK
6
CONTINUOUS
10
92.1983
20
-79.2939
11
92.2008
21
-79.2952
0
LINE
8
BLACK
6
CONTINUOUS
10
92.2008
20
-79.2952
11
92.2072
21
-79.2961
0
LINE
8
BLACK
6
CONTINUOUS
10
92.2072
20
-79.2961
11
92.2331
21
-79.3128
0
LINE
8
BLACK
6
CONTINUOUS
10
92.2331
20
-79.3128
11
92.2601
21
-79.3276
0
LINE
8
BLACK
6
CONTINUOUS
10
92.2601
20
-79.3276
11
101.707
21
-88.775
0
LINE
8
BLACK
6
CONTINUOUS
10
101.707
20
-88.775
11
101.981
21
-88.775
0
LINE
8
BLACK
6
CONTINUOUS
10
101.981
20
-88.775
11
101.981
21
-88.011
0
LINE
8
BLACK
6
CONTINUOUS
10
101.981
20
-88.011
11
103.759
21
-88.011
0
LINE
8
BLACK
6
CONTINUOUS
10
103.759
20
-88.011
11
103.759
21
-88.775
0
LINE
8
BLACK
6
CONTINUOUS
10
103.759
20
-88.775
11
104.084
21
-88.775
0
LINE
8
BLACK
6
CONTINUOUS
10
104.084
20
-88.775
11
104.106
21
-88.7782
0
LINE
8
BLACK
6
CONTINUOUS
10
104.106
20
-88.7782
11
104.111
21
-88.7779
0
LINE
8
BLACK
6
CONTINUOUS
10
104.111
20
-88.7779
11
104.113
21
-88.7792
0
LINE
8
BLACK
6
CONTINUOUS
10
104.113
20
-88.7792
11
104.12
21
-88.7801
0
LINE
8
BLACK
6
CONTINUOUS
10
104.12
20
-88.7801
11
104.146
21
-88.7968
0
LINE
8
BLACK
6
CONTINUOUS
10
104.146
20
-88.7968
11
104.173
21
-88.8116
0
LINE
8
BLACK
6
CONTINUOUS
10
104.173
20
-88.8116
11
110.74
21
-95.379
0
LINE
8
BLACK
6
CONTINUOUS
10
110.74
20
-95.379
11
124.944
21
-95.379
0
LINE
8
BLACK
6
CONTINUOUS
10
124.944
20
-95.379
11
124.952
21
-95.3159
0
LINE
8
BLACK
6
CONTINUOUS
10
124.952
20
-95.3159
11
125.013
21
-95.1483
0
LINE
8
BLACK
6
CONTINUOUS
10
125.013
20
-95.1483
11
125.11
21
-94.9984
0
LINE
8
BLACK
6
CONTINUOUS
10
125.11
20
-94.9984
11
125.237
21
-94.8736
0
LINE
8
BLACK
6
CONTINUOUS
10
125.237
20
-94.8736
11
125.389
21
-94.7801
0
LINE
8
BLACK
6
CONTINUOUS
10
125.389
20
-94.7801
11
125.558
21
-94.7227
0
LINE
8
BLACK
6
CONTINUOUS
10
125.558
20
-94.7227
11
125.736
21
-94.704
0
LINE
8
BLACK
6
CONTINUOUS
10
125.736
20
-94.704
11
125.913
21
-94.7251
0
LINE
8
BLACK
6
CONTINUOUS
10
125.913
20
-94.7251
11
126.081
21
-94.785
0
LINE
8
BLACK
6
CONTINUOUS
10
126.081
20
-94.785
11
126.231
21
-94.8805
0
LINE
8
BLACK
6
CONTINUOUS
10
126.231
20
-94.8805
11
126.357
21
-95.0071
0
LINE
8
BLACK
6
CONTINUOUS
10
126.357
20
-95.0071
11
126.451
21
-95.1583
0
LINE
8
BLACK
6
CONTINUOUS
10
126.451
20
-95.1583
11
126.51
21
-95.3268
0
LINE
8
BLACK
6
CONTINUOUS
10
126.51
20
-95.3268
11
126.53
21
-95.504
0
LINE
8
BLACK
6
CONTINUOUS
10
126.53
20
-95.504
11
126.53
21
-95.5263
0
LINE
8
BLACK
6
CONTINUOUS
10
126.53
20
-95.5263
11
126.505
21
-95.703
0
LINE
8
BLACK
6
CONTINUOUS
10
126.505
20
-95.703
11
126.442
21
-95.8697
0
LINE
8
BLACK
6
CONTINUOUS
10
126.442
20
-95.8697
11
126.343
21
-96.0182
0
LINE
8
BLACK
6
CONTINUOUS
10
126.343
20
-96.0182
11
126.214
21
-96.1412
0
LINE
8
BLACK
6
CONTINUOUS
10
126.214
20
-96.1412
11
126.06
21
-96.2325
0
LINE
8
BLACK
6
CONTINUOUS
10
126.06
20
-96.2325
11
125.891
21
-96.2877
0
LINE
8
BLACK
6
CONTINUOUS
10
125.891
20
-96.2877
11
125.713
21
-96.3038
0
LINE
8
BLACK
6
CONTINUOUS
10
125.713
20
-96.3038
11
125.536
21
-96.2802
0
LINE
8
BLACK
6
CONTINUOUS
10
125.536
20
-96.2802
11
125.369
21
-96.2181
0
LINE
8
BLACK
6
CONTINUOUS
10
125.369
20
-96.2181
11
125.22
21
-96.1204
0
LINE
8
BLACK
6
CONTINUOUS
10
125.22
20
-96.1204
11
125.096
21
-95.9921
0
LINE
8
BLACK
6
CONTINUOUS
10
125.096
20
-95.9921
11
125.004
21
-95.8396
0
LINE
8
BLACK
6
CONTINUOUS
10
125.004
20
-95.8396
11
124.947
21
-95.6703
0
LINE
8
BLACK
6
CONTINUOUS
10
124.947
20
-95.6703
11
124.943
21
-95.629
0
LINE
8
BLACK
6
CONTINUOUS
10
124.943
20
-95.629
11
110.688
21
-95.629
0
LINE
8
BLACK
6
CONTINUOUS
10
110.688
20
-95.629
11
110.666
21
-95.6258
0
LINE
8
BLACK
6
CONTINUOUS
10
110.666
20
-95.6258
11
110.662
21
-95.6261
0
LINE
8
BLACK
6
CONTINUOUS
10
110.662
20
-95.6261
11
110.659
21
-95.6248
0
LINE
8
BLACK
6
CONTINUOUS
10
110.659
20
-95.6248
11
110.653
21
-95.6239
0
LINE
8
BLACK
6
CONTINUOUS
10
110.653
20
-95.6239
11
110.627
21
-95.6072
0
LINE
8
BLACK
6
CONTINUOUS
10
110.627
20
-95.6072
11
110.6
21
-95.5924
0
LINE
8
BLACK
6
CONTINUOUS
10
110.6
20
-95.5924
11
104.033
21
-89.025
0
LINE
8
BLACK
6
CONTINUOUS
10
104.033
20
-89.025
11
103.759
21
-89.025
0
LINE
8
BLACK
6
CONTINUOUS
10
103.759
20
-89.025
11
103.759
21
-89.789
0
LINE
8
BLACK
6
CONTINUOUS
10
103.759
20
-89.789
11
101.981
21
-89.789
0
LINE
8
BLACK
6
CONTINUOUS
10
101.981
20
-89.789
11
101.981
21
-89.025
0
LINE
8
BLACK
6
CONTINUOUS
10
101.981
20
-89.025
11
101.656
21
-89.025
0
LINE
8
BLACK
6
CONTINUOUS
10
101.656
20
-89.025
11
101.634
21
-89.0218
0
LINE
8
BLACK
6
CONTINUOUS
10
101.634
20
-89.0218
11
101.629
21
-89.0221
0
LINE
8
BLACK
6
CONTINUOUS
10
101.629
20
-89.0221
11
101.627
21
-89.0208
0
LINE
8
BLACK
6
CONTINUOUS
10
101.627
20
-89.0208
11
101.62
21
-89.0199
0
LINE
8
BLACK
6
CONTINUOUS
10
101.62
20
-89.0199
11
101.594
21
-89.0031
0
LINE
8
BLACK
6
CONTINUOUS
10
101.594
20
-89.0031
11
101.567
21
-88.9884
0
LINE
8
BLACK
6
CONTINUOUS
10
101.567
20
-88.9884
11
92.1199
21
-79.541
0
LINE
8
BLACK
6
CONTINUOUS
10
92.1199
20
-79.541
11
90.8644
21
-79.541
0
LINE
8
BLACK
6
CONTINUOUS
10
90.8644
20
-79.541
11
90.8633
21
-79.5631
0
LINE
8
BLACK
6
CONTINUOUS
10
90.8633
20
-79.5631
11
90.8239
21
-79.7515
0
LINE
8
BLACK
6
CONTINUOUS
10
90.8239
20
-79.7515
11
90.7475
21
-79.9282
0
LINE
8
BLACK
6
CONTINUOUS
10
90.7475
20
-79.9282
11
90.637
21
-80.0859
0
LINE
8
BLACK
6
CONTINUOUS
10
90.637
20
-80.0859
11
90.4972
21
-80.2182
0
LINE
8
BLACK
6
CONTINUOUS
10
90.4972
20
-80.2182
11
90.3335
21
-80.3196
0
LINE
8
BLACK
6
CONTINUOUS
10
90.3335
20
-80.3196
11
90.1529
21
-80.3861
0
LINE
8
BLACK
6
CONTINUOUS
10
90.1529
20
-80.3861
11
89.9625
21
-80.4149
0
LINE
8
BLACK
6
CONTINUOUS
10
89.9625
20
-80.4149
11
89.7703
21
-80.4048
0
LINE
8
BLACK
6
CONTINUOUS
10
89.7703
20
-80.4048
11
89.584
21
-80.3563
0
LINE
8
BLACK
6
CONTINUOUS
10
89.584
20
-80.3563
11
89.4113
21
-80.2713
0
LINE
8
BLACK
6
CONTINUOUS
10
89.4113
20
-80.2713
11
89.2591
21
-80.1533
0
LINE
8
BLACK
6
CONTINUOUS
10
89.2591
20
-80.1533
11
89.1339
21
-80.0071
0
LINE
8
BLACK
6
CONTINUOUS
10
89.1339
20
-80.0071
11
89.0405
21
-79.8387
0
LINE
8
BLACK
6
CONTINUOUS
10
89.0405
20
-79.8387
11
88.983
21
-79.655
0
LINE
8
BLACK
6
CONTINUOUS
10
88.983
20
-79.655
11
88.9635
21
-79.4635
0
LINE
8
BLACK
6
CONTINUOUS
10
88.9635
20
-79.4635
11
88.9635
21
-79.3685
0
LINE
8
BLACK
6
CONTINUOUS
10
88.9635
20
-79.3685
11
88.9687
21
-79.2689
0
LINE
8
BLACK
6
CONTINUOUS
10
88.9687
20
-79.2689
11
89.0081
21
-79.0805
0
LINE
8
BLACK
6
CONTINUOUS
10
89.0081
20
-79.0805
11
89.0845
21
-78.9038
0
LINE
8
BLACK
6
CONTINUOUS
10
89.0845
20
-78.9038
11
89.195
21
-78.7461
0
LINE
8
BLACK
6
CONTINUOUS
10
89.195
20
-78.7461
11
89.3348
21
-78.6138
0
LINE
8
BLACK
6
CONTINUOUS
10
89.3348
20
-78.6138
11
89.4985
21
-78.5124
0
LINE
8
BLACK
6
CONTINUOUS
10
89.4985
20
-78.5124
11
89.6791
21
-78.4459
0
LINE
8
BLACK
6
CONTINUOUS
10
89.6791
20
-78.4459
11
89.8695
21
-78.4171
0
LINE
8
BLACK
6
CONTINUOUS
10
89.8695
20
-78.4171
11
90.0617
21
-78.4272
0
LINE
8
BLACK
6
CONTINUOUS
10
125.913
20
-82.0251
11
126.081
21
-82.085
0
LINE
8
BLACK
6
CONTINUOUS
10
126.081
20
-82.085
11
126.231
21
-82.1805
0
LINE
8
BLACK
6
CONTINUOUS
10
126.231
20
-82.1805
11
126.357
21
-82.3071
0
LINE
8
BLACK
6
CONTINUOUS
10
126.357
20
-82.3071
11
126.451
21
-82.4583
0
LINE
8
BLACK
6
CONTINUOUS
10
126.451
20
-82.4583
11
126.51
21
-82.6268
0
LINE
8
BLACK
6
CONTINUOUS
10
126.51
20
-82.6268
11
126.516
21
-82.679
0
LINE
8
BLACK
6
CONTINUOUS
10
126.516
20
-82.679
11
126.855
21
-82.679
0
LINE
8
BLACK
6
CONTINUOUS
10
126.855
20
-82.679
11
126.877
21
-82.6822
0
LINE
8
BLACK
6
CONTINUOUS
10
126.877
20
-82.6822
11
126.882
21
-82.6819
0
LINE
8
BLACK
6
CONTINUOUS
10
126.882
20
-82.6819
11
126.884
21
-82.6832
0
LINE
8
BLACK
6
CONTINUOUS
10
126.884
20
-82.6832
11
126.891
21
-82.6841
0
LINE
8
BLACK
6
CONTINUOUS
10
126.891
20
-82.6841
11
126.917
21
-82.7008
0
LINE
8
BLACK
6
CONTINUOUS
10
126.917
20
-82.7008
11
126.944
21
-82.7156
0
LINE
8
BLACK
6
CONTINUOUS
10
126.944
20
-82.7156
11
133.003
21
-88.775
0
LINE
8
BLACK
6
CONTINUOUS
10
133.003
20
-88.775
11
134.493
21
-88.775
0
LINE
8
BLACK
6
CONTINUOUS
10
134.493
20
-88.775
11
134.493
21
-88.011
0
LINE
8
BLACK
6
CONTINUOUS
10
134.493
20
-88.011
11
136.271
21
-88.011
0
LINE
8
BLACK
6
CONTINUOUS
10
136.271
20
-88.011
11
136.271
21
-89.789
0
LINE
8
BLACK
6
CONTINUOUS
10
136.271
20
-89.789
11
134.493
21
-89.789
0
LINE
8
BLACK
6
CONTINUOUS
10
134.493
20
-89.789
11
134.493
21
-89.025
0
LINE
8
BLACK
6
CONTINUOUS
10
134.493
20
-89.025
11
132.951
21
-89.025
0
LINE
8
BLACK
6
CONTINUOUS
10
132.951
20
-89.025
11
132.929
21
-89.0218
0
LINE
8
BLACK
6
CONTINUOUS
10
132.929
20
-89.0218
11
132.925
21
-89.0221
0
LINE
8
BLACK
6
CONTINUOUS
10
132.925
20
-89.0221
11
132.922
21
-89.0208
0
LINE
8
BLACK
6
CONTINUOUS
10
132.922
20
-89.0208
11
132.916
21
-89.0199
0
LINE
8
BLACK
6
CONTINUOUS
10
132.916
20
-89.0199
11
132.89
21
-89.0032
0
LINE
8
BLACK
6
CONTINUOUS
10
132.89
20
-89.0032
11
132.863
21
-88.9884
0
LINE
8
BLACK
6
CONTINUOUS
10
132.863
20
-88.9884
11
126.804
21
-82.929
0
LINE
8
BLACK
6
CONTINUOUS
10
126.804
20
-82.929
11
126.515
21
-82.929
0
LINE
8
BLACK
6
CONTINUOUS
10
126.515
20
-82.929
11
126.505
21
-83.003
0
LINE
8
BLACK
6
CONTINUOUS
10
126.505
20
-83.003
11
126.442
21
-83.1697
0
LINE
8
BLACK
6
CONTINUOUS
10
126.442
20
-83.1697
11
126.343
21
-83.3182
0
LINE
8
BLACK
6
CONTINUOUS
10
126.343
20
-83.3182
11
126.214
21
-83.4412
0
LINE
8
BLACK
6
CONTINUOUS
10
126.214
20
-83.4412
11
126.06
21
-83.5325
0
LINE
8
BLACK
6
CONTINUOUS
10
126.06
20
-83.5325
11
125.891
21
-83.5877
0
LINE
8
BLACK
6
CONTINUOUS
10
125.891
20
-83.5877
11
125.713
21
-83.6038
0
LINE
8
BLACK
6
CONTINUOUS
10
125.713
20
-83.6038
11
125.536
21
-83.5802
0
LINE
8
BLACK
6
CONTINUOUS
10
125.536
20
-83.5802
11
125.369
21
-83.5181
0
LINE
8
BLACK
6
CONTINUOUS
10
125.369
20
-83.5181
11
125.22
21
-83.4204
0
LINE
8
BLACK
6
CONTINUOUS
10
125.22
20
-83.4204
11
125.096
21
-83.2921
0
LINE
8
BLACK
6
CONTINUOUS
10
125.096
20
-83.2921
11
125.004
21
-83.1396
0
LINE
8
BLACK
6
CONTINUOUS
10
125.004
20
-83.1396
11
124.947
21
-82.9703
0
LINE
8
BLACK
6
CONTINUOUS
10
124.947
20
-82.9703
11
124.943
21
-82.929
0
LINE
8
BLACK
6
CONTINUOUS
10
124.943
20
-82.929
11
121.515
21
-82.929
0
LINE
8
BLACK
6
CONTINUOUS
10
121.515
20
-82.929
11
116.077
21
-88.367
0
LINE
8
BLACK
6
CONTINUOUS
10
116.077
20
-88.367
11
116.086
21
-88.3775
0
LINE
8
BLACK
6
CONTINUOUS
10
116.086
20
-88.3775
11
116.179
21
-88.5384
0
LINE
8
BLACK
6
CONTINUOUS
10
116.179
20
-88.5384
11
116.236
21
-88.7152
0
LINE
8
BLACK
6
CONTINUOUS
10
116.236
20
-88.7152
11
116.256
21
-88.9
0
LINE
8
BLACK
6
CONTINUOUS
10
116.256
20
-88.9
11
116.236
21
-89.0848
0
LINE
8
BLACK
6
CONTINUOUS
10
116.236
20
-89.0848
11
116.179
21
-89.2616
0
LINE
8
BLACK
6
CONTINUOUS
10
116.179
20
-89.2616
11
116.086
21
-89.4225
0
LINE
8
BLACK
6
CONTINUOUS
10
116.086
20
-89.4225
11
115.962
21
-89.5607
0
LINE
8
BLACK
6
CONTINUOUS
10
115.962
20
-89.5607
11
115.811
21
-89.6699
0
LINE
8
BLACK
6
CONTINUOUS
10
115.811
20
-89.6699
11
115.642
21
-89.7455
0
LINE
8
BLACK
6
CONTINUOUS
10
115.642
20
-89.7455
11
115.46
21
-89.7841
0
LINE
8
BLACK
6
CONTINUOUS
10
115.46
20
-89.7841
11
115.274
21
-89.7841
0
LINE
8
BLACK
6
CONTINUOUS
10
115.274
20
-89.7841
11
115.092
21
-89.7455
0
LINE
8
BLACK
6
CONTINUOUS
10
115.092
20
-89.7455
11
114.922
21
-89.6699
0
LINE
8
BLACK
6
CONTINUOUS
10
114.922
20
-89.6699
11
114.772
21
-89.5607
0
LINE
8
BLACK
6
CONTINUOUS
10
114.772
20
-89.5607
11
114.648
21
-89.4225
0
LINE
8
BLACK
6
CONTINUOUS
10
114.648
20
-89.4225
11
114.555
21
-89.2616
0
LINE
8
BLACK
6
CONTINUOUS
10
114.555
20
-89.2616
11
114.497
21
-89.0848
0
LINE
8
BLACK
6
CONTINUOUS
10
114.497
20
-89.0848
11
114.478
21
-88.9
0
LINE
8
BLACK
6
CONTINUOUS
10
114.478
20
-88.9
11
114.497
21
-88.7152
0
LINE
8
BLACK
6
CONTINUOUS
10
114.497
20
-88.7152
11
114.555
21
-88.5384
0
LINE
8
BLACK
6
CONTINUOUS
10
114.555
20
-88.5384
11
114.648
21
-88.3775
0
LINE
8
BLACK
6
CONTINUOUS
10
114.648
20
-88.3775
11
114.772
21
-88.2393
0
LINE
8
BLACK
6
CONTINUOUS
10
114.772
20
-88.2393
11
114.922
21
-88.1301
0
LINE
8
BLACK
6
CONTINUOUS
10
114.922
20
-88.1301
11
115.092
21
-88.0545
0
LINE
8
BLACK
6
CONTINUOUS
10
115.092
20
-88.0545
11
115.274
21
-88.0159
0
LINE
8
BLACK
6
CONTINUOUS
10
115.274
20
-88.0159
11
115.46
21
-88.0159
0
LINE
8
BLACK
6
CONTINUOUS
10
115.46
20
-88.0159
11
115.642
21
-88.0545
0
LINE
8
BLACK
6
CONTINUOUS
10
115.642
20
-88.0545
11
115.811
21
-88.1301
0
LINE
8
BLACK
6
CONTINUOUS
10
115.811
20
-88.1301
11
115.897
21
-88.1926
0
LINE
8
BLACK
6
CONTINUOUS
10
115.897
20
-88.1926
11
121.374
21
-82.7156
0
LINE
8
BLACK
6
CONTINUOUS
10
121.374
20
-82.7156
11
121.392
21
-82.7023
0
LINE
8
BLACK
6
CONTINUOUS
10
121.392
20
-82.7023
11
121.395
21
-82.6988
0
LINE
8
BLACK
6
CONTINUOUS
10
121.395
20
-82.6988
11
121.398
21
-82.698
0
LINE
8
BLACK
6
CONTINUOUS
10
121.398
20
-82.698
11
121.403
21
-82.6941
0
LINE
8
BLACK
6
CONTINUOUS
10
121.403
20
-82.6941
11
121.433
21
-82.6877
0
LINE
8
BLACK
6
CONTINUOUS
10
121.433
20
-82.6877
11
121.463
21
-82.679
0
LINE
8
BLACK
6
CONTINUOUS
10
121.463
20
-82.679
11
124.944
21
-82.679
0
LINE
8
BLACK
6
CONTINUOUS
10
124.944
20
-82.679
11
124.952
21
-82.6159
0
LINE
8
BLACK
6
CONTINUOUS
10
124.952
20
-82.6159
11
125.013
21
-82.4483
0
LINE
8
BLACK
6
CONTINUOUS
10
125.013
20
-82.4483
11
125.11
21
-82.2984
0
LINE
8
BLACK
6
CONTINUOUS
10
125.11
20
-82.2984
11
125.237
21
-82.1736
0
LINE
8
BLACK
6
CONTINUOUS
10
125.237
20
-82.1736
11
125.389
21
-82.0801
0
LINE
8
BLACK
6
CONTINUOUS
10
125.389
20
-82.0801
11
125.558
21
-82.0227
0
LINE
8
BLACK
6
CONTINUOUS
10
125.558
20
-82.0227
11
125.736
21
-82.004
0
LINE
8
BLACK
6
CONTINUOUS
10
125.736
20
-82.004
11
125.913
21
-82.0251
0
LINE
8
BLACK
6
CONTINUOUS
10
115.499
20
-68.7611
11
115.667
21
-68.821
0
LINE
8
BLACK
6
CONTINUOUS
10
115.667
20
-68.821
11
115.817
21
-68.9165
0
LINE
8
BLACK
6
CONTINUOUS
10
115.817
20
-68.9165
11
115.943
21
-69.0431
0
LINE
8
BLACK
6
CONTINUOUS
10
115.943
20
-69.0431
11
116.037
21
-69.1943
0
LINE
8
BLACK
6
CONTINUOUS
10
116.037
20
-69.1943
11
116.096
21
-69.3628
0
LINE
8
BLACK
6
CONTINUOUS
10
116.096
20
-69.3628
11
116.102
21
-69.415
0
LINE
8
BLACK
6
CONTINUOUS
10
116.102
20
-69.415
11
128.519
21
-69.415
0
LINE
8
BLACK
6
CONTINUOUS
10
128.519
20
-69.415
11
128.541
21
-69.4182
0
LINE
8
BLACK
6
CONTINUOUS
10
128.541
20
-69.4182
11
128.545
21
-69.4179
0
LINE
8
BLACK
6
CONTINUOUS
10
128.545
20
-69.4179
11
128.548
21
-69.4192
0
LINE
8
BLACK
6
CONTINUOUS
10
128.548
20
-69.4192
11
128.554
21
-69.4201
0
LINE
8
BLACK
6
CONTINUOUS
10
128.554
20
-69.4201
11
128.58
21
-69.4368
0
LINE
8
BLACK
6
CONTINUOUS
10
128.58
20
-69.4368
11
128.607
21
-69.4516
0
LINE
8
BLACK
6
CONTINUOUS
10
128.607
20
-69.4516
11
147.348
21
-88.1926
0
LINE
8
BLACK
6
CONTINUOUS
10
147.348
20
-88.1926
11
147.434
21
-88.1301
0
LINE
8
BLACK
6
CONTINUOUS
10
147.434
20
-88.1301
11
147.604
21
-88.0545
0
LINE
8
BLACK
6
CONTINUOUS
10
147.604
20
-88.0545
11
147.786
21
-88.0159
0
LINE
8
BLACK
6
CONTINUOUS
10
147.786
20
-88.0159
11
147.972
21
-88.0159
0
LINE
8
BLACK
6
CONTINUOUS
10
147.972
20
-88.0159
11
148.154
21
-88.0545
0
LINE
8
BLACK
6
CONTINUOUS
10
148.154
20
-88.0545
11
148.323
21
-88.1301
0
LINE
8
BLACK
6
CONTINUOUS
10
148.323
20
-88.1301
11
148.474
21
-88.2393
0
LINE
8
BLACK
6
CONTINUOUS
10
148.474
20
-88.2393
11
148.598
21
-88.3775
0
LINE
8
BLACK
6
CONTINUOUS
10
148.598
20
-88.3775
11
148.691
21
-88.5384
0
LINE
8
BLACK
6
CONTINUOUS
10
148.691
20
-88.5384
11
148.748
21
-88.7152
0
LINE
8
BLACK
6
CONTINUOUS
10
148.748
20
-88.7152
11
148.768
21
-88.9
0
LINE
8
BLACK
6
CONTINUOUS
10
148.768
20
-88.9
11
148.748
21
-89.0848
0
LINE
8
BLACK
6
CONTINUOUS
10
148.748
20
-89.0848
11
148.691
21
-89.2616
0
LINE
8
BLACK
6
CONTINUOUS
10
148.691
20
-89.2616
11
148.598
21
-89.4225
0
LINE
8
BLACK
6
CONTINUOUS
10
148.598
20
-89.4225
11
148.474
21
-89.5607
0
LINE
8
BLACK
6
CONTINUOUS
10
148.474
20
-89.5607
11
148.323
21
-89.6699
0
LINE
8
BLACK
6
CONTINUOUS
10
148.323
20
-89.6699
11
148.154
21
-89.7455
0
LINE
8
BLACK
6
CONTINUOUS
10
148.154
20
-89.7455
11
147.972
21
-89.7841
0
LINE
8
BLACK
6
CONTINUOUS
10
147.972
20
-89.7841
11
147.786
21
-89.7841
0
LINE
8
BLACK
6
CONTINUOUS
10
147.786
20
-89.7841
11
147.604
21
-89.7455
0
LINE
8
BLACK
6
CONTINUOUS
10
147.604
20
-89.7455
11
147.434
21
-89.6699
0
LINE
8
BLACK
6
CONTINUOUS
10
147.434
20
-89.6699
11
147.284
21
-89.5607
0
LINE
8
BLACK
6
CONTINUOUS
10
147.284
20
-89.5607
11
147.16
21
-89.4225
0
LINE
8
BLACK
6
CONTINUOUS
10
147.16
20
-89.4225
11
147.067
21
-89.2616
0
LINE
8
BLACK
6
CONTINUOUS
10
147.067
20
-89.2616
11
147.009
21
-89.0848
0
LINE
8
BLACK
6
CONTINUOUS
10
147.009
20
-89.0848
11
146.99
21
-88.9
0
LINE
8
BLACK
6
CONTINUOUS
10
146.99
20
-88.9
11
147.009
21
-88.7152
0
LINE
8
BLACK
6
CONTINUOUS
10
147.009
20
-88.7152
11
147.067
21
-88.5384
0
LINE
8
BLACK
6
CONTINUOUS
10
147.067
20
-88.5384
11
147.16
21
-88.3775
0
LINE
8
BLACK
6
CONTINUOUS
10
147.16
20
-88.3775
11
147.169
21
-88.367
0
LINE
8
BLACK
6
CONTINUOUS
10
147.169
20
-88.367
11
128.467
21
-69.665
0
LINE
8
BLACK
6
CONTINUOUS
10
128.467
20
-69.665
11
116.101
21
-69.665
0
LINE
8
BLACK
6
CONTINUOUS
10
116.101
20
-69.665
11
116.091
21
-69.739
0
LINE
8
BLACK
6
CONTINUOUS
10
116.091
20
-69.739
11
116.028
21
-69.9057
0
LINE
8
BLACK
6
CONTINUOUS
10
116.028
20
-69.9057
11
115.929
21
-70.0542
0
LINE
8
BLACK
6
CONTINUOUS
10
115.929
20
-70.0542
11
115.8
21
-70.1772
0
LINE
8
BLACK
6
CONTINUOUS
10
115.8
20
-70.1772
11
115.646
21
-70.2685
0
LINE
8
BLACK
6
CONTINUOUS
10
115.646
20
-70.2685
11
115.477
21
-70.3237
0
LINE
8
BLACK
6
CONTINUOUS
10
115.477
20
-70.3237
11
115.299
21
-70.3398
0
LINE
8
BLACK
6
CONTINUOUS
10
115.299
20
-70.3398
11
115.122
21
-70.3162
0
LINE
8
BLACK
6
CONTINUOUS
10
115.122
20
-70.3162
11
114.955
21
-70.2541
0
LINE
8
BLACK
6
CONTINUOUS
10
114.955
20
-70.2541
11
114.849
21
-70.1842
0
LINE
8
BLACK
6
CONTINUOUS
10
114.849
20
-70.1842
11
113.062
21
-71.9704
0
LINE
8
BLACK
6
CONTINUOUS
10
113.062
20
-71.9704
11
113.045
21
-71.9837
0
LINE
8
BLACK
6
CONTINUOUS
10
113.045
20
-71.9837
11
113.042
21
-71.9872
0
LINE
8
BLACK
6
CONTINUOUS
10
113.042
20
-71.9872
11
113.039
21
-71.988
0
LINE
8
BLACK
6
CONTINUOUS
10
113.039
20
-71.988
11
113.034
21
-71.9919
0
LINE
8
BLACK
6
CONTINUOUS
10
113.034
20
-71.9919
11
113.004
21
-71.9983
0
LINE
8
BLACK
6
CONTINUOUS
10
113.004
20
-71.9983
11
112.974
21
-72.007
0
LINE
8
BLACK
6
CONTINUOUS
10
112.974
20
-72.007
11
110.574
21
-72.007
0
LINE
8
BLACK
6
CONTINUOUS
10
110.574
20
-72.007
11
110.574
21
-72.982
0
LINE
8
BLACK
6
CONTINUOUS
10
110.574
20
-72.982
11
108.374
21
-72.982
0
LINE
8
BLACK
6
CONTINUOUS
10
108.374
20
-72.982
11
108.374
21
-72.007
0
LINE
8
BLACK
6
CONTINUOUS
10
108.374
20
-72.007
11
108.049
21
-72.007
0
LINE
8
BLACK
6
CONTINUOUS
10
108.049
20
-72.007
11
108.027
21
-72.0038
0
LINE
8
BLACK
6
CONTINUOUS
10
108.027
20
-72.0038
11
108.022
21
-72.0041
0
LINE
8
BLACK
6
CONTINUOUS
10
108.022
20
-72.0041
11
108.02
21
-72.0028
0
LINE
8
BLACK
6
CONTINUOUS
10
108.02
20
-72.0028
11
108.013
21
-72.0019
0
LINE
8
BLACK
6
CONTINUOUS
10
108.013
20
-72.0019
11
107.987
21
-71.9852
0
LINE
8
BLACK
6
CONTINUOUS
10
107.987
20
-71.9852
11
107.96
21
-71.9704
0
LINE
8
BLACK
6
CONTINUOUS
10
107.96
20
-71.9704
11
106.84
21
-70.85
0
LINE
8
BLACK
6
CONTINUOUS
10
106.84
20
-70.85
11
103.943
21
-70.85
0
LINE
8
BLACK
6
CONTINUOUS
10
103.943
20
-70.85
11
102.822
21
-71.9704
0
LINE
8
BLACK
6
CONTINUOUS
10
102.822
20
-71.9704
11
102.805
21
-71.9837
0
LINE
8
BLACK
6
CONTINUOUS
10
102.805
20
-71.9837
11
102.802
21
-71.9872
0
LINE
8
BLACK
6
CONTINUOUS
10
102.802
20
-71.9872
11
102.799
21
-71.988
0
LINE
8
BLACK
6
CONTINUOUS
10
102.799
20
-71.988
11
102.794
21
-71.9919
0
LINE
8
BLACK
6
CONTINUOUS
10
102.794
20
-71.9919
11
102.764
21
-71.9983
0
LINE
8
BLACK
6
CONTINUOUS
10
102.764
20
-71.9983
11
102.734
21
-72.007
0
LINE
8
BLACK
6
CONTINUOUS
10
102.734
20
-72.007
11
99.144
21
-72.007
0
LINE
8
BLACK
6
CONTINUOUS
10
99.144
20
-72.007
11
99.144
21
-72.982
0
LINE
8
BLACK
6
CONTINUOUS
10
99.144
20
-72.982
11
96.944
21
-72.982
0
LINE
8
BLACK
6
CONTINUOUS
10
96.944
20
-72.982
11
96.944
21
-70.782
0
LINE
8
BLACK
6
CONTINUOUS
10
96.944
20
-70.782
11
99.144
21
-70.782
0
LINE
8
BLACK
6
CONTINUOUS
10
99.144
20
-70.782
11
99.144
21
-71.757
0
LINE
8
BLACK
6
CONTINUOUS
10
99.144
20
-71.757
11
102.682
21
-71.757
0
LINE
8
BLACK
6
CONTINUOUS
10
102.682
20
-71.757
11
103.766
21
-70.6732
0
LINE
8
BLACK
6
CONTINUOUS
10
103.766
20
-70.6732
11
103.766
21
-70.3534
0
LINE
8
BLACK
6
CONTINUOUS
10
103.766
20
-70.3534
11
103.697
21
-70.3442
0
LINE
8
BLACK
6
CONTINUOUS
10
103.697
20
-70.3442
11
103.53
21
-70.2821
0
LINE
8
BLACK
6
CONTINUOUS
10
103.53
20
-70.2821
11
103.381
21
-70.1844
0
LINE
8
BLACK
6
CONTINUOUS
10
103.381
20
-70.1844
11
103.257
21
-70.0561
0
LINE
8
BLACK
6
CONTINUOUS
10
103.257
20
-70.0561
11
103.165
21
-69.9036
0
LINE
8
BLACK
6
CONTINUOUS
10
103.165
20
-69.9036
11
103.108
21
-69.7343
0
LINE
8
BLACK
6
CONTINUOUS
10
103.108
20
-69.7343
11
103.091
21
-69.5568
0
LINE
8
BLACK
6
CONTINUOUS
10
103.091
20
-69.5568
11
103.113
21
-69.3799
0
LINE
8
BLACK
6
CONTINUOUS
10
103.113
20
-69.3799
11
103.174
21
-69.2123
0
LINE
8
BLACK
6
CONTINUOUS
10
103.174
20
-69.2123
11
103.271
21
-69.0624
0
LINE
8
BLACK
6
CONTINUOUS
10
103.271
20
-69.0624
11
103.398
21
-68.9376
0
LINE
8
BLACK
6
CONTINUOUS
10
103.398
20
-68.9376
11
103.55
21
-68.8441
0
LINE
8
BLACK
6
CONTINUOUS
10
103.55
20
-68.8441
11
103.719
21
-68.7867
0
LINE
8
BLACK
6
CONTINUOUS
10
103.719
20
-68.7867
11
103.897
21
-68.768
0
LINE
8
BLACK
6
CONTINUOUS
10
103.897
20
-68.768
11
104.074
21
-68.7891
0
LINE
8
BLACK
6
CONTINUOUS
10
104.074
20
-68.7891
11
104.242
21
-68.849
0
LINE
8
BLACK
6
CONTINUOUS
10
104.242
20
-68.849
11
104.392
21
-68.9445
0
LINE
8
BLACK
6
CONTINUOUS
10
104.392
20
-68.9445
11
104.518
21
-69.0711
0
LINE
8
BLACK
6
CONTINUOUS
10
104.518
20
-69.0711
11
104.612
21
-69.2223
0
LINE
8
BLACK
6
CONTINUOUS
10
104.612
20
-69.2223
11
104.671
21
-69.3908
0
LINE
8
BLACK
6
CONTINUOUS
10
104.671
20
-69.3908
11
104.691
21
-69.568
0
LINE
8
BLACK
6
CONTINUOUS
10
104.691
20
-69.568
11
104.691
21
-69.5903
0
LINE
8
BLACK
6
CONTINUOUS
10
104.691
20
-69.5903
11
104.666
21
-69.767
0
LINE
8
BLACK
6
CONTINUOUS
10
104.666
20
-69.767
11
104.603
21
-69.9337
0
LINE
8
BLACK
6
CONTINUOUS
10
104.603
20
-69.9337
11
104.504
21
-70.0822
0
LINE
8
BLACK
6
CONTINUOUS
10
104.504
20
-70.0822
11
104.375
21
-70.2052
0
LINE
8
BLACK
6
CONTINUOUS
10
104.375
20
-70.2052
11
104.221
21
-70.2965
0
LINE
8
BLACK
6
CONTINUOUS
10
104.221
20
-70.2965
11
104.052
21
-70.3517
0
LINE
8
BLACK
6
CONTINUOUS
10
104.052
20
-70.3517
11
104.016
21
-70.3549
0
LINE
8
BLACK
6
CONTINUOUS
10
104.016
20
-70.3549
11
104.016
21
-70.6
0
LINE
8
BLACK
6
CONTINUOUS
10
104.016
20
-70.6
11
106.892
21
-70.6
0
LINE
8
BLACK
6
CONTINUOUS
10
106.892
20
-70.6
11
106.914
21
-70.6032
0
LINE
8
BLACK
6
CONTINUOUS
10
106.914
20
-70.6032
11
106.918
21
-70.6029
0
LINE
8
BLACK
6
CONTINUOUS
10
106.918
20
-70.6029
11
106.921
21
-70.6042
0
LINE
8
BLACK
6
CONTINUOUS
10
106.921
20
-70.6042
11
106.927
21
-70.6051
0
LINE
8
BLACK
6
CONTINUOUS
10
106.927
20
-70.6051
11
106.953
21
-70.6218
0
LINE
8
BLACK
6
CONTINUOUS
10
106.953
20
-70.6218
11
106.98
21
-70.6366
0
LINE
8
BLACK
6
CONTINUOUS
10
106.98
20
-70.6366
11
108.1
21
-71.757
0
LINE
8
BLACK
6
CONTINUOUS
10
108.1
20
-71.757
11
108.374
21
-71.757
0
LINE
8
BLACK
6
CONTINUOUS
10
108.374
20
-71.757
11
108.374
21
-70.782
0
LINE
8
BLACK
6
CONTINUOUS
10
108.374
20
-70.782
11
110.574
21
-70.782
0
LINE
8
BLACK
6
CONTINUOUS
10
110.574
20
-70.782
11
110.574
21
-71.757
0
LINE
8
BLACK
6
CONTINUOUS
10
110.574
20
-71.757
11
112.922
21
-71.757
0
LINE
8
BLACK
6
CONTINUOUS
10
112.922
20
-71.757
11
114.67
21
-70.0088
0
LINE
8
BLACK
6
CONTINUOUS
10
114.67
20
-70.0088
11
114.59
21
-69.8756
0
LINE
8
BLACK
6
CONTINUOUS
10
114.59
20
-69.8756
11
114.533
21
-69.7063
0
LINE
8
BLACK
6
CONTINUOUS
10
114.533
20
-69.7063
11
114.516
21
-69.5288
0
LINE
8
BLACK
6
CONTINUOUS
10
114.516
20
-69.5288
11
114.538
21
-69.3519
0
LINE
8
BLACK
6
CONTINUOUS
10
114.538
20
-69.3519
11
114.599
21
-69.1843
0
LINE
8
BLACK
6
CONTINUOUS
10
114.599
20
-69.1843
11
114.696
21
-69.0344
0
LINE
8
BLACK
6
CONTINUOUS
10
114.696
20
-69.0344
11
114.823
21
-68.9096
0
LINE
8
BLACK
6
CONTINUOUS
10
114.823
20
-68.9096
11
114.975
21
-68.8161
0
LINE
8
BLACK
6
CONTINUOUS
10
114.975
20
-68.8161
11
115.144
21
-68.7587
0
LINE
8
BLACK
6
CONTINUOUS
10
115.144
20
-68.7587
11
115.322
21
-68.74
0
LINE
8
BLACK
6
CONTINUOUS
10
115.322
20
-68.74
11
115.499
21
-68.7611
0
LINE
8
BLACK
6
CONTINUOUS
10
87.5217
20
-78.4272
11
87.708
21
-78.4757
0
LINE
8
BLACK
6
CONTINUOUS
10
87.708
20
-78.4757
11
87.8807
21
-78.5607
0
LINE
8
BLACK
6
CONTINUOUS
10
87.8807
20
-78.5607
11
88.0329
21
-78.6787
0
LINE
8
BLACK
6
CONTINUOUS
10
88.0329
20
-78.6787
11
88.1581
21
-78.8249
0
LINE
8
BLACK
6
CONTINUOUS
10
88.1581
20
-78.8249
11
88.2515
21
-78.9933
0
LINE
8
BLACK
6
CONTINUOUS
10
88.2515
20
-78.9933
11
88.309
21
-79.177
0
LINE
8
BLACK
6
CONTINUOUS
10
88.309
20
-79.177
11
88.3285
21
-79.3685
0
LINE
8
BLACK
6
CONTINUOUS
10
88.3285
20
-79.3685
11
88.3285
21
-79.4635
0
LINE
8
BLACK
6
CONTINUOUS
10
88.3285
20
-79.4635
11
88.3233
21
-79.5631
0
LINE
8
BLACK
6
CONTINUOUS
10
88.3233
20
-79.5631
11
88.2839
21
-79.7515
0
LINE
8
BLACK
6
CONTINUOUS
10
88.2839
20
-79.7515
11
88.2075
21
-79.9282
0
LINE
8
BLACK
6
CONTINUOUS
10
88.2075
20
-79.9282
11
88.097
21
-80.0859
0
LINE
8
BLACK
6
CONTINUOUS
10
88.097
20
-80.0859
11
87.9572
21
-80.2182
0
LINE
8
BLACK
6
CONTINUOUS
10
87.9572
20
-80.2182
11
87.7935
21
-80.3196
0
LINE
8
BLACK
6
CONTINUOUS
10
87.7935
20
-80.3196
11
87.6129
21
-80.3861
0
LINE
8
BLACK
6
CONTINUOUS
10
87.6129
20
-80.3861
11
87.4225
21
-80.4149
0
LINE
8
BLACK
6
CONTINUOUS
10
87.4225
20
-80.4149
11
87.2303
21
-80.4048
0
LINE
8
BLACK
6
CONTINUOUS
10
87.2303
20
-80.4048
11
87.044
21
-80.3563
0
LINE
8
BLACK
6
CONTINUOUS
10
87.044
20
-80.3563
11
86.8713
21
-80.2713
0
LINE
8
BLACK
6
CONTINUOUS
10
86.8713
20
-80.2713
11
86.7191
21
-80.1533
0
LINE
8
BLACK
6
CONTINUOUS
10
86.7191
20
-80.1533
11
86.5939
21
-80.0071
0
LINE
8
BLACK
6
CONTINUOUS
10
86.5939
20
-80.0071
11
86.5005
21
-79.8387
0
LINE
8
BLACK
6
CONTINUOUS
10
86.5005
20
-79.8387
11
86.443
21
-79.655
0
LINE
8
BLACK
6
CONTINUOUS
10
86.443
20
-79.655
11
86.4235
21
-79.4635
0
LINE
8
BLACK
6
CONTINUOUS
10
86.4235
20
-79.4635
11
86.4235
21
-79.3685
0
LINE
8
BLACK
6
CONTINUOUS
10
86.4235
20
-79.3685
11
86.4287
21
-79.2689
0
LINE
8
BLACK
6
CONTINUOUS
10
86.4287
20
-79.2689
11
86.4681
21
-79.0805
0
LINE
8
BLACK
6
CONTINUOUS
10
86.4681
20
-79.0805
11
86.5445
21
-78.9038
0
LINE
8
BLACK
6
CONTINUOUS
10
86.5445
20
-78.9038
11
86.655
21
-78.7461
0
LINE
8
BLACK
6
CONTINUOUS
10
86.655
20
-78.7461
11
86.7948
21
-78.6138
0
LINE
8
BLACK
6
CONTINUOUS
10
86.7948
20
-78.6138
11
86.9585
21
-78.5124
0
LINE
8
BLACK
6
CONTINUOUS
10
86.9585
20
-78.5124
11
87.1391
21
-78.4459
0
LINE
8
BLACK
6
CONTINUOUS
10
87.1391
20
-78.4459
11
87.3295
21
-78.4171
0
LINE
8
BLACK
6
CONTINUOUS
10
87.3295
20
-78.4171
11
87.5217
21
-78.4272
0
LINE
8
BLACK
6
CONTINUOUS
10
98.159
20
-63.168
11
98.3564
21
-63.2073
0
LINE
8
BLACK
6
CONTINUOUS
10
98.3564
20
-63.2073
11
98.5434
21
-63.2819
0
LINE
8
BLACK
6
CONTINUOUS
10
98.5434
20
-63.2819
11
98.7136
21
-63.3893
0
LINE
8
BLACK
6
CONTINUOUS
10
98.7136
20
-63.3893
11
98.8615
21
-63.526
0
LINE
8
BLACK
6
CONTINUOUS
10
98.8615
20
-63.526
11
98.9819
21
-63.6873
0
LINE
8
BLACK
6
CONTINUOUS
10
98.9819
20
-63.6873
11
99.0709
21
-63.8678
0
LINE
8
BLACK
6
CONTINUOUS
10
99.0709
20
-63.8678
11
99.1256
21
-64.0615
0
LINE
8
BLACK
6
CONTINUOUS
10
99.1256
20
-64.0615
11
99.1325
21
-64.137
0
LINE
8
BLACK
6
CONTINUOUS
10
99.1325
20
-64.137
11
102.085
21
-64.137
0
LINE
8
BLACK
6
CONTINUOUS
10
102.085
20
-64.137
11
102.107
21
-64.1402
0
LINE
8
BLACK
6
CONTINUOUS
10
102.107
20
-64.1402
11
102.112
21
-64.1399
0
LINE
8
BLACK
6
CONTINUOUS
10
102.112
20
-64.1399
11
102.114
21
-64.1412
0
LINE
8
BLACK
6
CONTINUOUS
10
102.114
20
-64.1412
11
102.121
21
-64.1421
0
LINE
8
BLACK
6
CONTINUOUS
10
102.121
20
-64.1421
11
102.146
21
-64.1588
0
LINE
8
BLACK
6
CONTINUOUS
10
102.146
20
-64.1588
11
102.173
21
-64.1736
0
LINE
8
BLACK
6
CONTINUOUS
10
102.173
20
-64.1736
11
103.423
21
-65.4228
0
LINE
8
BLACK
6
CONTINUOUS
10
103.423
20
-65.4228
11
103.55
21
-65.3441
0
LINE
8
BLACK
6
CONTINUOUS
10
103.55
20
-65.3441
11
103.719
21
-65.2867
0
LINE
8
BLACK
6
CONTINUOUS
10
103.719
20
-65.2867
11
103.897
21
-65.268
0
LINE
8
BLACK
6
CONTINUOUS
10
103.897
20
-65.268
11
104.074
21
-65.2891
0
LINE
8
BLACK
6
CONTINUOUS
10
104.074
20
-65.2891
11
104.242
21
-65.349
0
LINE
8
BLACK
6
CONTINUOUS
10
104.242
20
-65.349
11
104.392
21
-65.4445
0
LINE
8
BLACK
6
CONTINUOUS
10
104.392
20
-65.4445
11
104.518
21
-65.5711
0
LINE
8
BLACK
6
CONTINUOUS
10
104.518
20
-65.5711
11
104.612
21
-65.7223
0
LINE
8
BLACK
6
CONTINUOUS
10
104.612
20
-65.7223
11
104.671
21
-65.8908
0
LINE
8
BLACK
6
CONTINUOUS
10
104.671
20
-65.8908
11
104.691
21
-66.068
0
LINE
8
BLACK
6
CONTINUOUS
10
104.691
20
-66.068
11
104.691
21
-66.0903
0
LINE
8
BLACK
6
CONTINUOUS
10
104.691
20
-66.0903
11
104.666
21
-66.267
0
LINE
8
BLACK
6
CONTINUOUS
10
104.666
20
-66.267
11
104.603
21
-66.4337
0
LINE
8
BLACK
6
CONTINUOUS
10
104.603
20
-66.4337
11
104.504
21
-66.5822
0
LINE
8
BLACK
6
CONTINUOUS
10
104.504
20
-66.5822
11
104.375
21
-66.7052
0
LINE
8
BLACK
6
CONTINUOUS
10
104.375
20
-66.7052
11
104.221
21
-66.7965
0
LINE
8
BLACK
6
CONTINUOUS
10
104.221
20
-66.7965
11
104.052
21
-66.8517
0
LINE
8
BLACK
6
CONTINUOUS
10
104.052
20
-66.8517
11
103.874
21
-66.8678
0
LINE
8
BLACK
6
CONTINUOUS
10
103.874
20
-66.8678
11
103.697
21
-66.8442
0
LINE
8
BLACK
6
CONTINUOUS
10
103.697
20
-66.8442
11
103.53
21
-66.7821
0
LINE
8
BLACK
6
CONTINUOUS
10
103.53
20
-66.7821
11
103.381
21
-66.6844
0
LINE
8
BLACK
6
CONTINUOUS
10
103.381
20
-66.6844
11
103.257
21
-66.5561
0
LINE
8
BLACK
6
CONTINUOUS
10
103.257
20
-66.5561
11
103.165
21
-66.4036
0
LINE
8
BLACK
6
CONTINUOUS
10
103.165
20
-66.4036
11
103.108
21
-66.2343
0
LINE
8
BLACK
6
CONTINUOUS
10
103.108
20
-66.2343
11
103.091
21
-66.0568
0
LINE
8
BLACK
6
CONTINUOUS
10
103.091
20
-66.0568
11
103.113
21
-65.8799
0
LINE
8
BLACK
6
CONTINUOUS
10
103.113
20
-65.8799
11
103.174
21
-65.7123
0
LINE
8
BLACK
6
CONTINUOUS
10
103.174
20
-65.7123
11
103.247
21
-65.6003
0
LINE
8
BLACK
6
CONTINUOUS
10
103.247
20
-65.6003
11
102.033
21
-64.387
0
LINE
8
BLACK
6
CONTINUOUS
10
102.033
20
-64.387
11
99.1327
21
-64.387
0
LINE
8
BLACK
6
CONTINUOUS
10
99.1327
20
-64.387
11
99.1136
21
-64.5188
0
LINE
8
BLACK
6
CONTINUOUS
10
99.1136
20
-64.5188
11
99.0489
21
-64.7094
0
LINE
8
BLACK
6
CONTINUOUS
10
99.0489
20
-64.7094
11
98.9505
21
-64.885
0
LINE
8
BLACK
6
CONTINUOUS
10
98.9505
20
-64.885
11
98.8218
21
-65.0398
0
LINE
8
BLACK
6
CONTINUOUS
10
98.8218
20
-65.0398
11
98.667
21
-65.1685
0
LINE
8
BLACK
6
CONTINUOUS
10
98.667
20
-65.1685
11
98.4914
21
-65.2669
0
LINE
8
BLACK
6
CONTINUOUS
10
98.4914
20
-65.2669
11
98.3008
21
-65.3316
0
LINE
8
BLACK
6
CONTINUOUS
10
98.3008
20
-65.3316
11
98.1016
21
-65.3605
0
LINE
8
BLACK
6
CONTINUOUS
10
98.1016
20
-65.3605
11
97.9004
21
-65.3526
0
LINE
8
BLACK
6
CONTINUOUS
10
97.9004
20
-65.3526
11
97.7041
21
-65.3082
0
LINE
8
BLACK
6
CONTINUOUS
10
97.7041
20
-65.3082
11
97.5191
21
-65.2287
0
LINE
8
BLACK
6
CONTINUOUS
10
97.5191
20
-65.2287
11
97.3517
21
-65.1169
0
LINE
8
BLACK
6
CONTINUOUS
10
97.3517
20
-65.1169
11
97.2076
21
-64.9764
0
LINE
8
BLACK
6
CONTINUOUS
10
97.2076
20
-64.9764
11
97.0914
21
-64.812
0
LINE
8
BLACK
6
CONTINUOUS
10
97.0914
20
-64.812
11
97.0071
21
-64.6292
0
LINE
8
BLACK
6
CONTINUOUS
10
97.0071
20
-64.6292
11
96.9575
21
-64.4341
0
LINE
8
BLACK
6
CONTINUOUS
10
96.9575
20
-64.4341
11
96.9444
21
-64.2332
0
LINE
8
BLACK
6
CONTINUOUS
10
96.9444
20
-64.2332
11
96.968
21
-64.0333
0
LINE
8
BLACK
6
CONTINUOUS
10
96.968
20
-64.0333
11
97.0277
21
-63.841
0
LINE
8
BLACK
6
CONTINUOUS
10
97.0277
20
-63.841
11
97.1215
21
-63.6629
0
LINE
8
BLACK
6
CONTINUOUS
10
97.1215
20
-63.6629
11
97.2461
21
-63.5048
0
LINE
8
BLACK
6
CONTINUOUS
10
97.2461
20
-63.5048
11
97.3974
21
-63.3721
0
LINE
8
BLACK
6
CONTINUOUS
10
97.3974
20
-63.3721
11
97.5704
21
-63.2692
0
LINE
8
BLACK
6
CONTINUOUS
10
97.5704
20
-63.2692
11
97.7593
21
-63.1995
0
LINE
8
BLACK
6
CONTINUOUS
10
97.7593
20
-63.1995
11
97.9577
21
-63.1654
0
LINE
8
BLACK
6
CONTINUOUS
10
97.9577
20
-63.1654
11
98.159
21
-63.168
0
LINE
8
BLACK
6
CONTINUOUS
10
115.499
20
-65.2611
11
115.667
21
-65.321
0
LINE
8
BLACK
6
CONTINUOUS
10
115.667
20
-65.321
11
115.817
21
-65.4165
0
LINE
8
BLACK
6
CONTINUOUS
10
115.817
20
-65.4165
11
115.943
21
-65.5431
0
LINE
8
BLACK
6
CONTINUOUS
10
115.943
20
-65.5431
11
116.037
21
-65.6943
0
LINE
8
BLACK
6
CONTINUOUS
10
116.037
20
-65.6943
11
116.096
21
-65.8628
0
LINE
8
BLACK
6
CONTINUOUS
10
116.096
20
-65.8628
11
116.116
21
-66.04
0
LINE
8
BLACK
6
CONTINUOUS
10
116.116
20
-66.04
11
116.116
21
-66.0623
0
LINE
8
BLACK
6
CONTINUOUS
10
116.116
20
-66.0623
11
116.091
21
-66.239
0
LINE
8
BLACK
6
CONTINUOUS
10
116.091
20
-66.239
11
116.028
21
-66.4057
0
LINE
8
BLACK
6
CONTINUOUS
10
116.028
20
-66.4057
11
115.929
21
-66.5542
0
LINE
8
BLACK
6
CONTINUOUS
10
115.929
20
-66.5542
11
115.8
21
-66.6772
0
LINE
8
BLACK
6
CONTINUOUS
10
115.8
20
-66.6772
11
115.646
21
-66.7685
0
LINE
8
BLACK
6
CONTINUOUS
10
115.646
20
-66.7685
11
115.477
21
-66.8237
0
LINE
8
BLACK
6
CONTINUOUS
10
115.477
20
-66.8237
11
115.299
21
-66.8398
0
LINE
8
BLACK
6
CONTINUOUS
10
115.299
20
-66.8398
11
115.122
21
-66.8162
0
LINE
8
BLACK
6
CONTINUOUS
10
115.122
20
-66.8162
11
114.955
21
-66.7541
0
LINE
8
BLACK
6
CONTINUOUS
10
114.955
20
-66.7541
11
114.806
21
-66.6564
0
LINE
8
BLACK
6
CONTINUOUS
10
114.806
20
-66.6564
11
114.682
21
-66.5281
0
LINE
8
BLACK
6
CONTINUOUS
10
114.682
20
-66.5281
11
114.59
21
-66.3756
0
LINE
8
BLACK
6
CONTINUOUS
10
114.59
20
-66.3756
11
114.533
21
-66.2063
0
LINE
8
BLACK
6
CONTINUOUS
10
114.533
20
-66.2063
11
114.516
21
-66.0288
0
LINE
8
BLACK
6
CONTINUOUS
10
114.516
20
-66.0288
11
114.538
21
-65.8519
0
LINE
8
BLACK
6
CONTINUOUS
10
114.538
20
-65.8519
11
114.599
21
-65.6843
0
LINE
8
BLACK
6
CONTINUOUS
10
114.599
20
-65.6843
11
114.696
21
-65.5344
0
LINE
8
BLACK
6
CONTINUOUS
10
114.696
20
-65.5344
11
114.823
21
-65.4096
0
LINE
8
BLACK
6
CONTINUOUS
10
114.823
20
-65.4096
11
114.975
21
-65.3161
0
LINE
8
BLACK
6
CONTINUOUS
10
114.975
20
-65.3161
11
115.144
21
-65.2587
0
LINE
8
BLACK
6
CONTINUOUS
10
115.144
20
-65.2587
11
115.322
21
-65.24
0
LINE
8
BLACK
6
CONTINUOUS
10
115.322
20
-65.24
11
115.499
21
-65.2611
0
LINE
8
BLACK
6
CONTINUOUS
10
115.25
20
-56.5691
11
115.418
21
-56.629
0
LINE
8
BLACK
6
CONTINUOUS
10
115.418
20
-56.629
11
115.568
21
-56.7245
0
LINE
8
BLACK
6
CONTINUOUS
10
115.568
20
-56.7245
11
115.694
21
-56.8511
0
LINE
8
BLACK
6
CONTINUOUS
10
115.694
20
-56.8511
11
115.788
21
-57.0023
0
LINE
8
BLACK
6
CONTINUOUS
10
115.788
20
-57.0023
11
115.847
21
-57.1708
0
LINE
8
BLACK
6
CONTINUOUS
10
115.847
20
-57.1708
11
115.867
21
-57.348
0
LINE
8
BLACK
6
CONTINUOUS
10
115.867
20
-57.348
11
115.867
21
-57.3703
0
LINE
8
BLACK
6
CONTINUOUS
10
115.867
20
-57.3703
11
115.842
21
-57.547
0
LINE
8
BLACK
6
CONTINUOUS
10
115.842
20
-57.547
11
115.779
21
-57.7137
0
LINE
8
BLACK
6
CONTINUOUS
10
115.779
20
-57.7137
11
115.68
21
-57.8622
0
LINE
8
BLACK
6
CONTINUOUS
10
115.68
20
-57.8622
11
115.551
21
-57.9852
0
LINE
8
BLACK
6
CONTINUOUS
10
115.551
20
-57.9852
11
115.397
21
-58.0765
0
LINE
8
BLACK
6
CONTINUOUS
10
115.397
20
-58.0765
11
115.228
21
-58.1317
0
LINE
8
BLACK
6
CONTINUOUS
10
115.228
20
-58.1317
11
115.05
21
-58.1478
0
LINE
8
BLACK
6
CONTINUOUS
10
115.05
20
-58.1478
11
114.873
21
-58.1242
0
LINE
8
BLACK
6
CONTINUOUS
10
114.873
20
-58.1242
11
114.706
21
-58.0621
0
LINE
8
BLACK
6
CONTINUOUS
10
114.706
20
-58.0621
11
114.557
21
-57.9644
0
LINE
8
BLACK
6
CONTINUOUS
10
114.557
20
-57.9644
11
114.433
21
-57.8361
0
LINE
8
BLACK
6
CONTINUOUS
10
114.433
20
-57.8361
11
114.341
21
-57.6836
0
LINE
8
BLACK
6
CONTINUOUS
10
114.341
20
-57.6836
11
114.284
21
-57.5143
0
LINE
8
BLACK
6
CONTINUOUS
10
114.284
20
-57.5143
11
114.28
21
-57.473
0
LINE
8
BLACK
6
CONTINUOUS
10
114.28
20
-57.473
11
113.801
21
-57.473
0
LINE
8
BLACK
6
CONTINUOUS
10
113.801
20
-57.473
11
110.988
21
-60.2864
0
LINE
8
BLACK
6
CONTINUOUS
10
110.988
20
-60.2864
11
110.97
21
-60.2997
0
LINE
8
BLACK
6
CONTINUOUS
10
110.97
20
-60.2997
11
110.967
21
-60.3032
0
LINE
8
BLACK
6
CONTINUOUS
10
110.967
20
-60.3032
11
110.964
21
-60.304
0
LINE
8
BLACK
6
CONTINUOUS
10
110.964
20
-60.304
11
110.959
21
-60.3079
0
LINE
8
BLACK
6
CONTINUOUS
10
110.959
20
-60.3079
11
110.929
21
-60.3143
0
LINE
8
BLACK
6
CONTINUOUS
10
110.929
20
-60.3143
11
110.899
21
-60.323
0
LINE
8
BLACK
6
CONTINUOUS
10
110.899
20
-60.323
11
110.574
21
-60.323
0
LINE
8
BLACK
6
CONTINUOUS
10
110.574
20
-60.323
11
110.574
21
-61.298
0
LINE
8
BLACK
6
CONTINUOUS
10
110.574
20
-61.298
11
108.374
21
-61.298
0
LINE
8
BLACK
6
CONTINUOUS
10
108.374
20
-61.298
11
108.374
21
-60.323
0
LINE
8
BLACK
6
CONTINUOUS
10
108.374
20
-60.323
11
108.1
21
-60.323
0
LINE
8
BLACK
6
CONTINUOUS
10
108.1
20
-60.323
11
107.513
21
-60.9106
0
LINE
8
BLACK
6
CONTINUOUS
10
107.513
20
-60.9106
11
109.314
21
-62.7117
0
LINE
8
BLACK
6
CONTINUOUS
10
109.314
20
-62.7117
11
109.474
21
-62.7117
0
LINE
8
BLACK
6
CONTINUOUS
10
109.474
20
-62.7117
11
109.51
21
-62.7168
0
LINE
8
BLACK
6
CONTINUOUS
10
109.51
20
-62.7168
11
109.517
21
-62.7217
0
LINE
8
BLACK
6
CONTINUOUS
10
109.517
20
-62.7217
11
109.526
21
-62.723
0
LINE
8
BLACK
6
CONTINUOUS
10
109.526
20
-62.723
11
109.546
21
-62.7405
0
LINE
8
BLACK
6
CONTINUOUS
10
109.546
20
-62.7405
11
109.569
21
-62.755
0
LINE
8
BLACK
6
CONTINUOUS
10
109.569
20
-62.755
11
109.572
21
-62.7632
0
LINE
8
BLACK
6
CONTINUOUS
10
109.572
20
-62.7632
11
109.579
21
-62.7692
0
LINE
8
BLACK
6
CONTINUOUS
10
109.579
20
-62.7692
11
109.587
21
-62.7948
0
LINE
8
BLACK
6
CONTINUOUS
10
109.587
20
-62.7948
11
109.598
21
-62.8191
0
LINE
8
BLACK
6
CONTINUOUS
10
109.598
20
-62.8191
11
109.596
21
-62.828
0
LINE
8
BLACK
6
CONTINUOUS
10
109.596
20
-62.828
11
109.599
21
-62.8367
0
LINE
8
BLACK
6
CONTINUOUS
10
109.599
20
-62.8367
11
109.599
21
-63.17
0
LINE
8
BLACK
6
CONTINUOUS
10
109.599
20
-63.17
11
109.786
21
-63.2073
0
LINE
8
BLACK
6
CONTINUOUS
10
109.786
20
-63.2073
11
109.973
21
-63.2819
0
LINE
8
BLACK
6
CONTINUOUS
10
109.973
20
-63.2819
11
110.144
21
-63.3893
0
LINE
8
BLACK
6
CONTINUOUS
10
110.144
20
-63.3893
11
110.291
21
-63.526
0
LINE
8
BLACK
6
CONTINUOUS
10
110.291
20
-63.526
11
110.412
21
-63.6873
0
LINE
8
BLACK
6
CONTINUOUS
10
110.412
20
-63.6873
11
110.501
21
-63.8678
0
LINE
8
BLACK
6
CONTINUOUS
10
110.501
20
-63.8678
11
110.556
21
-64.0615
0
LINE
8
BLACK
6
CONTINUOUS
10
110.556
20
-64.0615
11
110.574
21
-64.262
0
LINE
8
BLACK
6
CONTINUOUS
10
110.574
20
-64.262
11
110.572
21
-64.3196
0
LINE
8
BLACK
6
CONTINUOUS
10
110.572
20
-64.3196
11
110.544
21
-64.5188
0
LINE
8
BLACK
6
CONTINUOUS
10
110.544
20
-64.5188
11
110.479
21
-64.7094
0
LINE
8
BLACK
6
CONTINUOUS
10
110.479
20
-64.7094
11
110.381
21
-64.885
0
LINE
8
BLACK
6
CONTINUOUS
10
110.381
20
-64.885
11
110.252
21
-65.0398
0
LINE
8
BLACK
6
CONTINUOUS
10
110.252
20
-65.0398
11
110.097
21
-65.1685
0
LINE
8
BLACK
6
CONTINUOUS
10
110.097
20
-65.1685
11
109.921
21
-65.2669
0
LINE
8
BLACK
6
CONTINUOUS
10
109.921
20
-65.2669
11
109.731
21
-65.3316
0
LINE
8
BLACK
6
CONTINUOUS
10
109.731
20
-65.3316
11
109.532
21
-65.3605
0
LINE
8
BLACK
6
CONTINUOUS
10
109.532
20
-65.3605
11
109.33
21
-65.3526
0
LINE
8
BLACK
6
CONTINUOUS
10
109.33
20
-65.3526
11
109.134
21
-65.3082
0
LINE
8
BLACK
6
CONTINUOUS
10
109.134
20
-65.3082
11
108.949
21
-65.2287
0
LINE
8
BLACK
6
CONTINUOUS
10
108.949
20
-65.2287
11
108.782
21
-65.1169
0
LINE
8
BLACK
6
CONTINUOUS
10
108.782
20
-65.1169
11
108.638
21
-64.9764
0
LINE
8
BLACK
6
CONTINUOUS
10
108.638
20
-64.9764
11
108.521
21
-64.812
0
LINE
8
BLACK
6
CONTINUOUS
10
108.521
20
-64.812
11
108.437
21
-64.6292
0
LINE
8
BLACK
6
CONTINUOUS
10
108.437
20
-64.6292
11
108.388
21
-64.4341
0
LINE
8
BLACK
6
CONTINUOUS
10
108.388
20
-64.4341
11
108.374
21
-64.2332
0
LINE
8
BLACK
6
CONTINUOUS
10
108.374
20
-64.2332
11
108.398
21
-64.0333
0
LINE
8
BLACK
6
CONTINUOUS
10
108.398
20
-64.0333
11
108.458
21
-63.841
0
LINE
8
BLACK
6
CONTINUOUS
10
108.458
20
-63.841
11
108.551
21
-63.6629
0
LINE
8
BLACK
6
CONTINUOUS
10
108.551
20
-63.6629
11
108.676
21
-63.5048
0
LINE
8
BLACK
6
CONTINUOUS
10
108.676
20
-63.5048
11
108.827
21
-63.3721
0
LINE
8
BLACK
6
CONTINUOUS
10
108.827
20
-63.3721
11
109
21
-63.2692
0
LINE
8
BLACK
6
CONTINUOUS
10
109
20
-63.2692
11
109.189
21
-63.1995
0
LINE
8
BLACK
6
CONTINUOUS
10
109.189
20
-63.1995
11
109.349
21
-63.172
0
LINE
8
BLACK
6
CONTINUOUS
10
109.349
20
-63.172
11
109.349
21
-62.9617
0
LINE
8
BLACK
6
CONTINUOUS
10
109.349
20
-62.9617
11
109.262
21
-62.9617
0
LINE
8
BLACK
6
CONTINUOUS
10
109.262
20
-62.9617
11
109.24
21
-62.9585
0
LINE
8
BLACK
6
CONTINUOUS
10
109.24
20
-62.9585
11
109.236
21
-62.9588
0
LINE
8
BLACK
6
CONTINUOUS
10
109.236
20
-62.9588
11
109.233
21
-62.9575
0
LINE
8
BLACK
6
CONTINUOUS
10
109.233
20
-62.9575
11
109.227
21
-62.9566
0
LINE
8
BLACK
6
CONTINUOUS
10
109.227
20
-62.9566
11
109.201
21
-62.9399
0
LINE
8
BLACK
6
CONTINUOUS
10
109.201
20
-62.9399
11
109.174
21
-62.9251
0
LINE
8
BLACK
6
CONTINUOUS
10
109.174
20
-62.9251
11
107.336
21
-61.0874
0
LINE
8
BLACK
6
CONTINUOUS
10
107.336
20
-61.0874
11
106.712
21
-61.7117
0
LINE
8
BLACK
6
CONTINUOUS
10
106.712
20
-61.7117
11
106.694
21
-61.725
0
LINE
8
BLACK
6
CONTINUOUS
10
106.694
20
-61.725
11
106.691
21
-61.7285
0
LINE
8
BLACK
6
CONTINUOUS
10
106.691
20
-61.7285
11
106.688
21
-61.7293
0
LINE
8
BLACK
6
CONTINUOUS
10
106.688
20
-61.7293
11
106.683
21
-61.7332
0
LINE
8
BLACK
6
CONTINUOUS
10
106.683
20
-61.7332
11
106.653
21
-61.7396
0
LINE
8
BLACK
6
CONTINUOUS
10
106.653
20
-61.7396
11
106.623
21
-61.7483
0
LINE
8
BLACK
6
CONTINUOUS
10
106.623
20
-61.7483
11
91.3973
21
-61.7483
0
LINE
8
BLACK
6
CONTINUOUS
10
91.3973
20
-61.7483
11
91.3753
21
-61.7451
0
LINE
8
BLACK
6
CONTINUOUS
10
91.3753
20
-61.7451
11
91.3707
21
-61.7454
0
LINE
8
BLACK
6
CONTINUOUS
10
91.3707
20
-61.7454
11
91.3682
21
-61.7441
0
LINE
8
BLACK
6
CONTINUOUS
10
91.3682
20
-61.7441
11
91.3618
21
-61.7432
0
LINE
8
BLACK
6
CONTINUOUS
10
91.3618
20
-61.7432
11
91.3359
21
-61.7265
0
LINE
8
BLACK
6
CONTINUOUS
10
91.3359
20
-61.7265
11
91.3089
21
-61.7117
0
LINE
8
BLACK
6
CONTINUOUS
10
91.3089
20
-61.7117
11
91.2164
21
-61.6192
0
LINE
8
BLACK
6
CONTINUOUS
10
91.2164
20
-61.6192
11
91.128
21
-61.6834
0
LINE
8
BLACK
6
CONTINUOUS
10
91.128
20
-61.6834
11
90.9561
21
-61.76
0
LINE
8
BLACK
6
CONTINUOUS
10
90.9561
20
-61.76
11
90.7721
21
-61.7991
0
LINE
8
BLACK
6
CONTINUOUS
10
90.7721
20
-61.7991
11
90.5839
21
-61.7991
0
LINE
8
BLACK
6
CONTINUOUS
10
90.5839
20
-61.7991
11
90.3999
21
-61.76
0
LINE
8
BLACK
6
CONTINUOUS
10
90.3999
20
-61.76
11
90.228
21
-61.6834
0
LINE
8
BLACK
6
CONTINUOUS
10
90.228
20
-61.6834
11
90.0758
21
-61.5728
0
LINE
8
BLACK
6
CONTINUOUS
10
90.0758
20
-61.5728
11
89.9499
21
-61.433
0
LINE
8
BLACK
6
CONTINUOUS
10
89.9499
20
-61.433
11
89.8558
21
-61.2701
0
LINE
8
BLACK
6
CONTINUOUS
10
89.8558
20
-61.2701
11
89.7977
21
-61.0911
0
LINE
8
BLACK
6
CONTINUOUS
10
89.7977
20
-61.0911
11
89.778
21
-60.904
0
LINE
8
BLACK
6
CONTINUOUS
10
89.778
20
-60.904
11
89.7977
21
-60.7169
0
LINE
8
BLACK
6
CONTINUOUS
10
89.7977
20
-60.7169
11
89.8558
21
-60.5379
0
LINE
8
BLACK
6
CONTINUOUS
10
89.8558
20
-60.5379
11
89.9499
21
-60.375
0
LINE
8
BLACK
6
CONTINUOUS
10
89.9499
20
-60.375
11
90.0758
21
-60.2352
0
LINE
8
BLACK
6
CONTINUOUS
10
90.0758
20
-60.2352
11
90.228
21
-60.1246
0
LINE
8
BLACK
6
CONTINUOUS
10
90.228
20
-60.1246
11
90.3999
21
-60.048
0
LINE
8
BLACK
6
CONTINUOUS
10
90.3999
20
-60.048
11
90.5839
21
-60.0089
0
LINE
8
BLACK
6
CONTINUOUS
10
90.5839
20
-60.0089
11
90.7721
21
-60.0089
0
LINE
8
BLACK
6
CONTINUOUS
10
90.7721
20
-60.0089
11
90.9561
21
-60.048
0
LINE
8
BLACK
6
CONTINUOUS
10
90.9561
20
-60.048
11
91.128
21
-60.1246
0
LINE
8
BLACK
6
CONTINUOUS
10
91.128
20
-60.1246
11
91.2802
21
-60.2352
0
LINE
8
BLACK
6
CONTINUOUS
10
91.2802
20
-60.2352
11
91.4061
21
-60.375
0
LINE
8
BLACK
6
CONTINUOUS
10
91.4061
20
-60.375
11
91.5002
21
-60.5379
0
LINE
8
BLACK
6
CONTINUOUS
10
91.5002
20
-60.5379
11
91.5583
21
-60.7169
0
LINE
8
BLACK
6
CONTINUOUS
10
91.5583
20
-60.7169
11
91.578
21
-60.904
0
LINE
8
BLACK
6
CONTINUOUS
10
91.578
20
-60.904
11
91.5583
21
-61.0911
0
LINE
8
BLACK
6
CONTINUOUS
10
91.5583
20
-61.0911
11
91.5002
21
-61.2701
0
LINE
8
BLACK
6
CONTINUOUS
10
91.5002
20
-61.2701
11
91.4061
21
-61.433
0
LINE
8
BLACK
6
CONTINUOUS
10
91.4061
20
-61.433
11
91.3955
21
-61.4448
0
LINE
8
BLACK
6
CONTINUOUS
10
91.3955
20
-61.4448
11
91.4491
21
-61.4983
0
LINE
8
BLACK
6
CONTINUOUS
10
91.4491
20
-61.4983
11
106.572
21
-61.4983
0
LINE
8
BLACK
6
CONTINUOUS
10
106.572
20
-61.4983
11
107.248
21
-60.8222
0
LINE
8
BLACK
6
CONTINUOUS
10
107.248
20
-60.8222
11
107.96
21
-60.1096
0
LINE
8
BLACK
6
CONTINUOUS
10
107.96
20
-60.1096
11
107.978
21
-60.0963
0
LINE
8
BLACK
6
CONTINUOUS
10
107.978
20
-60.0963
11
107.981
21
-60.0928
0
LINE
8
BLACK
6
CONTINUOUS
10
107.981
20
-60.0928
11
107.984
21
-60.092
0
LINE
8
BLACK
6
CONTINUOUS
10
107.984
20
-60.092
11
107.989
21
-60.0881
0
LINE
8
BLACK
6
CONTINUOUS
10
107.989
20
-60.0881
11
108.019
21
-60.0817
0
LINE
8
BLACK
6
CONTINUOUS
10
108.019
20
-60.0817
11
108.049
21
-60.073
0
LINE
8
BLACK
6
CONTINUOUS
10
108.049
20
-60.073
11
108.374
21
-60.073
0
LINE
8
BLACK
6
CONTINUOUS
10
108.374
20
-60.073
11
108.374
21
-59.098
0
LINE
8
BLACK
6
CONTINUOUS
10
108.374
20
-59.098
11
110.574
21
-59.098
0
LINE
8
BLACK
6
CONTINUOUS
10
110.574
20
-59.098
11
110.574
21
-60.073
0
LINE
8
BLACK
6
CONTINUOUS
10
110.574
20
-60.073
11
110.848
21
-60.073
0
LINE
8
BLACK
6
CONTINUOUS
10
110.848
20
-60.073
11
113.661
21
-57.2596
0
LINE
8
BLACK
6
CONTINUOUS
10
113.661
20
-57.2596
11
113.679
21
-57.2463
0
LINE
8
BLACK
6
CONTINUOUS
10
113.679
20
-57.2463
11
113.682
21
-57.2428
0
LINE
8
BLACK
6
CONTINUOUS
10
113.682
20
-57.2428
11
113.684
21
-57.242
0
LINE
8
BLACK
6
CONTINUOUS
10
113.684
20
-57.242
11
113.69
21
-57.2381
0
LINE
8
BLACK
6
CONTINUOUS
10
113.69
20
-57.2381
11
113.72
21
-57.2317
0
LINE
8
BLACK
6
CONTINUOUS
10
113.72
20
-57.2317
11
113.749
21
-57.223
0
LINE
8
BLACK
6
CONTINUOUS
10
113.749
20
-57.223
11
114.281
21
-57.223
0
LINE
8
BLACK
6
CONTINUOUS
10
114.281
20
-57.223
11
114.289
21
-57.1599
0
LINE
8
BLACK
6
CONTINUOUS
10
114.289
20
-57.1599
11
114.35
21
-56.9923
0
LINE
8
BLACK
6
CONTINUOUS
10
114.35
20
-56.9923
11
114.447
21
-56.8424
0
LINE
8
BLACK
6
CONTINUOUS
10
114.447
20
-56.8424
11
114.574
21
-56.7176
0
LINE
8
BLACK
6
CONTINUOUS
10
114.574
20
-56.7176
11
114.726
21
-56.6241
0
LINE
8
BLACK
6
CONTINUOUS
10
114.726
20
-56.6241
11
114.895
21
-56.5667
0
LINE
8
BLACK
6
CONTINUOUS
10
114.895
20
-56.5667
11
115.073
21
-56.548
0
LINE
8
BLACK
6
CONTINUOUS
10
115.073
20
-56.548
11
115.25
21
-56.5691
0
LINE
8
BLACK
6
CONTINUOUS
10
123.214
20
-60.302
11
123.386
21
-60.3786
0
LINE
8
BLACK
6
CONTINUOUS
10
123.386
20
-60.3786
11
123.538
21
-60.4892
0
LINE
8
BLACK
6
CONTINUOUS
10
123.538
20
-60.4892
11
123.664
21
-60.629
0
LINE
8
BLACK
6
CONTINUOUS
10
123.664
20
-60.629
11
123.758
21
-60.7919
0
LINE
8
BLACK
6
CONTINUOUS
10
123.758
20
-60.7919
11
123.816
21
-60.9709
0
LINE
8
BLACK
6
CONTINUOUS
10
123.816
20
-60.9709
11
123.836
21
-61.158
0
LINE
8
BLACK
6
CONTINUOUS
10
123.836
20
-61.158
11
123.816
21
-61.3451
0
LINE
8
BLACK
6
CONTINUOUS
10
123.816
20
-61.3451
11
123.758
21
-61.5241
0
LINE
8
BLACK
6
CONTINUOUS
10
123.758
20
-61.5241
11
123.664
21
-61.687
0
LINE
8
BLACK
6
CONTINUOUS
10
123.664
20
-61.687
11
123.538
21
-61.8268
0
LINE
8
BLACK
6
CONTINUOUS
10
123.538
20
-61.8268
11
123.386
21
-61.9374
0
LINE
8
BLACK
6
CONTINUOUS
10
123.386
20
-61.9374
11
123.214
21
-62.014
0
LINE
8
BLACK
6
CONTINUOUS
10
123.214
20
-62.014
11
123.03
21
-62.0531
0
LINE
8
BLACK
6
CONTINUOUS
10
123.03
20
-62.0531
11
122.842
21
-62.0531
0
LINE
8
BLACK
6
CONTINUOUS
10
122.842
20
-62.0531
11
122.658
21
-62.014
0
LINE
8
BLACK
6
CONTINUOUS
10
122.658
20
-62.014
11
122.486
21
-61.9374
0
LINE
8
BLACK
6
CONTINUOUS
10
122.486
20
-61.9374
11
122.334
21
-61.8268
0
LINE
8
BLACK
6
CONTINUOUS
10
122.334
20
-61.8268
11
122.208
21
-61.687
0
LINE
8
BLACK
6
CONTINUOUS
10
122.208
20
-61.687
11
122.114
21
-61.5241
0
LINE
8
BLACK
6
CONTINUOUS
10
122.114
20
-61.5241
11
122.056
21
-61.3451
0
LINE
8
BLACK
6
CONTINUOUS
10
122.056
20
-61.3451
11
122.036
21
-61.158
0
LINE
8
BLACK
6
CONTINUOUS
10
122.036
20
-61.158
11
122.056
21
-60.9709
0
LINE
8
BLACK
6
CONTINUOUS
10
122.056
20
-60.9709
11
122.114
21
-60.7919
0
LINE
8
BLACK
6
CONTINUOUS
10
122.114
20
-60.7919
11
122.208
21
-60.629
0
LINE
8
BLACK
6
CONTINUOUS
10
122.208
20
-60.629
11
122.334
21
-60.4892
0
LINE
8
BLACK
6
CONTINUOUS
10
122.334
20
-60.4892
11
122.486
21
-60.3786
0
LINE
8
BLACK
6
CONTINUOUS
10
122.486
20
-60.3786
11
122.658
21
-60.302
0
LINE
8
BLACK
6
CONTINUOUS
10
122.658
20
-60.302
11
122.842
21
-60.2629
0
LINE
8
BLACK
6
CONTINUOUS
10
122.842
20
-60.2629
11
123.03
21
-60.2629
0
LINE
8
BLACK
6
CONTINUOUS
10
123.03
20
-60.2629
11
123.214
21
-60.302
0
LINE
8
BLACK
6
CONTINUOUS
10
90.9561
20
-53.048
11
91.128
21
-53.1246
0
LINE
8
BLACK
6
CONTINUOUS
10
91.128
20
-53.1246
11
91.2802
21
-53.2352
0
LINE
8
BLACK
6
CONTINUOUS
10
91.2802
20
-53.2352
11
91.4061
21
-53.375
0
LINE
8
BLACK
6
CONTINUOUS
10
91.4061
20
-53.375
11
91.5002
21
-53.5379
0
LINE
8
BLACK
6
CONTINUOUS
10
91.5002
20
-53.5379
11
91.5583
21
-53.7169
0
LINE
8
BLACK
6
CONTINUOUS
10
91.5583
20
-53.7169
11
91.578
21
-53.904
0
LINE
8
BLACK
6
CONTINUOUS
10
91.578
20
-53.904
11
91.5583
21
-54.0911
0
LINE
8
BLACK
6
CONTINUOUS
10
91.5583
20
-54.0911
11
91.5002
21
-54.2701
0
LINE
8
BLACK
6
CONTINUOUS
10
91.5002
20
-54.2701
11
91.4061
21
-54.433
0
LINE
8
BLACK
6
CONTINUOUS
10
91.4061
20
-54.433
11
91.3955
21
-54.4448
0
LINE
8
BLACK
6
CONTINUOUS
10
91.3955
20
-54.4448
11
96.7071
21
-59.7563
0
LINE
8
BLACK
6
CONTINUOUS
10
96.7071
20
-59.7563
11
96.7204
21
-59.7741
0
LINE
8
BLACK
6
CONTINUOUS
10
96.7204
20
-59.7741
11
96.7239
21
-59.7772
0
LINE
8
BLACK
6
CONTINUOUS
10
96.7239
20
-59.7772
11
96.7247
21
-59.7799
0
LINE
8
BLACK
6
CONTINUOUS
10
96.7247
20
-59.7799
11
96.7286
21
-59.7851
0
LINE
8
BLACK
6
CONTINUOUS
10
96.7286
20
-59.7851
11
96.735
21
-59.8152
0
LINE
8
BLACK
6
CONTINUOUS
10
96.735
20
-59.8152
11
96.7437
21
-59.8447
0
LINE
8
BLACK
6
CONTINUOUS
10
96.7437
20
-59.8447
11
96.7437
21
-60.073
0
LINE
8
BLACK
6
CONTINUOUS
10
96.7437
20
-60.073
11
96.944
21
-60.073
0
LINE
8
BLACK
6
CONTINUOUS
10
96.944
20
-60.073
11
96.944
21
-59.098
0
LINE
8
BLACK
6
CONTINUOUS
10
96.944
20
-59.098
11
99.144
21
-59.098
0
LINE
8
BLACK
6
CONTINUOUS
10
99.144
20
-59.098
11
99.144
21
-60.073
0
LINE
8
BLACK
6
CONTINUOUS
10
99.144
20
-60.073
11
100.763
21
-60.073
0
LINE
8
BLACK
6
CONTINUOUS
10
100.763
20
-60.073
11
102.991
21
-57.8448
0
LINE
8
BLACK
6
CONTINUOUS
10
102.991
20
-57.8448
11
102.911
21
-57.7116
0
LINE
8
BLACK
6
CONTINUOUS
10
102.911
20
-57.7116
11
102.854
21
-57.5423
0
LINE
8
BLACK
6
CONTINUOUS
10
102.854
20
-57.5423
11
102.837
21
-57.3648
0
LINE
8
BLACK
6
CONTINUOUS
10
102.837
20
-57.3648
11
102.859
21
-57.1879
0
LINE
8
BLACK
6
CONTINUOUS
10
102.859
20
-57.1879
11
102.92
21
-57.0203
0
LINE
8
BLACK
6
CONTINUOUS
10
102.92
20
-57.0203
11
103.017
21
-56.8704
0
LINE
8
BLACK
6
CONTINUOUS
10
103.017
20
-56.8704
11
103.144
21
-56.7456
0
LINE
8
BLACK
6
CONTINUOUS
10
103.144
20
-56.7456
11
103.296
21
-56.6521
0
LINE
8
BLACK
6
CONTINUOUS
10
103.296
20
-56.6521
11
103.465
21
-56.5947
0
LINE
8
BLACK
6
CONTINUOUS
10
103.465
20
-56.5947
11
103.643
21
-56.576
0
LINE
8
BLACK
6
CONTINUOUS
10
103.643
20
-56.576
11
103.82
21
-56.5971
0
LINE
8
BLACK
6
CONTINUOUS
10
103.82
20
-56.5971
11
103.988
21
-56.657
0
LINE
8
BLACK
6
CONTINUOUS
10
103.988
20
-56.657
11
104.138
21
-56.7525
0
LINE
8
BLACK
6
CONTINUOUS
10
104.138
20
-56.7525
11
104.264
21
-56.8791
0
LINE
8
BLACK
6
CONTINUOUS
10
104.264
20
-56.8791
11
104.358
21
-57.0303
0
LINE
8
BLACK
6
CONTINUOUS
10
104.358
20
-57.0303
11
104.417
21
-57.1988
0
LINE
8
BLACK
6
CONTINUOUS
10
104.417
20
-57.1988
11
104.437
21
-57.376
0
LINE
8
BLACK
6
CONTINUOUS
10
104.437
20
-57.376
11
104.437
21
-57.3983
0
LINE
8
BLACK
6
CONTINUOUS
10
104.437
20
-57.3983
11
104.412
21
-57.575
0
LINE
8
BLACK
6
CONTINUOUS
10
104.412
20
-57.575
11
104.349
21
-57.7417
0
LINE
8
BLACK
6
CONTINUOUS
10
104.349
20
-57.7417
11
104.25
21
-57.8902
0
LINE
8
BLACK
6
CONTINUOUS
10
104.25
20
-57.8902
11
104.121
21
-58.0132
0
LINE
8
BLACK
6
CONTINUOUS
10
104.121
20
-58.0132
11
103.967
21
-58.1045
0
LINE
8
BLACK
6
CONTINUOUS
10
103.967
20
-58.1045
11
103.798
21
-58.1597
0
LINE
8
BLACK
6
CONTINUOUS
10
103.798
20
-58.1597
11
103.62
21
-58.1758
0
LINE
8
BLACK
6
CONTINUOUS
10
103.62
20
-58.1758
11
103.443
21
-58.1522
0
LINE
8
BLACK
6
CONTINUOUS
10
103.443
20
-58.1522
11
103.276
21
-58.0901
0
LINE
8
BLACK
6
CONTINUOUS
10
103.276
20
-58.0901
11
103.17
21
-58.0202
0
LINE
8
BLACK
6
CONTINUOUS
10
103.17
20
-58.0202
11
100.903
21
-60.2864
0
LINE
8
BLACK
6
CONTINUOUS
10
100.903
20
-60.2864
11
100.886
21
-60.2997
0
LINE
8
BLACK
6
CONTINUOUS
10
100.886
20
-60.2997
11
100.883
21
-60.3032
0
LINE
8
BLACK
6
CONTINUOUS
10
100.883
20
-60.3032
11
100.88
21
-60.304
0
LINE
8
BLACK
6
CONTINUOUS
10
100.88
20
-60.304
11
100.875
21
-60.3079
0
LINE
8
BLACK
6
CONTINUOUS
10
100.875
20
-60.3079
11
100.845
21
-60.3143
0
LINE
8
BLACK
6
CONTINUOUS
10
100.845
20
-60.3143
11
100.815
21
-60.323
0
LINE
8
BLACK
6
CONTINUOUS
10
100.815
20
-60.323
11
99.144
21
-60.323
0
LINE
8
BLACK
6
CONTINUOUS
10
99.144
20
-60.323
11
99.144
21
-61.298
0
LINE
8
BLACK
6
CONTINUOUS
10
99.144
20
-61.298
11
96.944
21
-61.298
0
LINE
8
BLACK
6
CONTINUOUS
10
96.944
20
-61.298
11
96.944
21
-60.323
0
LINE
8
BLACK
6
CONTINUOUS
10
96.944
20
-60.323
11
96.6187
21
-60.323
0
LINE
8
BLACK
6
CONTINUOUS
10
96.6187
20
-60.323
11
96.5832
21
-60.3179
0
LINE
8
BLACK
6
CONTINUOUS
10
96.5832
20
-60.3179
11
96.5756
21
-60.313
0
LINE
8
BLACK
6
CONTINUOUS
10
96.5756
20
-60.313
11
96.5667
21
-60.3117
0
LINE
8
BLACK
6
CONTINUOUS
10
96.5667
20
-60.3117
11
96.5465
21
-60.2942
0
LINE
8
BLACK
6
CONTINUOUS
10
96.5465
20
-60.2942
11
96.5241
21
-60.2797
0
LINE
8
BLACK
6
CONTINUOUS
10
96.5241
20
-60.2797
11
96.5203
21
-60.2715
0
LINE
8
BLACK
6
CONTINUOUS
10
96.5203
20
-60.2715
11
96.5135
21
-60.2655
0
LINE
8
BLACK
6
CONTINUOUS
10
96.5135
20
-60.2655
11
96.506
21
-60.2399
0
LINE
8
BLACK
6
CONTINUOUS
10
96.506
20
-60.2399
11
96.4949
21
-60.2156
0
LINE
8
BLACK
6
CONTINUOUS
10
96.4949
20
-60.2156
11
96.4962
21
-60.2067
0
LINE
8
BLACK
6
CONTINUOUS
10
96.4962
20
-60.2067
11
96.4937
21
-60.198
0
LINE
8
BLACK
6
CONTINUOUS
10
96.4937
20
-60.198
11
96.4937
21
-59.8965
0
LINE
8
BLACK
6
CONTINUOUS
10
96.4937
20
-59.8965
11
91.2164
21
-54.6192
0
LINE
8
BLACK
6
CONTINUOUS
10
91.2164
20
-54.6192
11
91.128
21
-54.6834
0
LINE
8
BLACK
6
CONTINUOUS
10
91.128
20
-54.6834
11
90.9561
21
-54.76
0
LINE
8
BLACK
6
CONTINUOUS
10
90.9561
20
-54.76
11
90.7721
21
-54.7991
0
LINE
8
BLACK
6
CONTINUOUS
10
90.7721
20
-54.7991
11
90.5839
21
-54.7991
0
LINE
8
BLACK
6
CONTINUOUS
10
90.5839
20
-54.7991
11
90.3999
21
-54.76
0
LINE
8
BLACK
6
CONTINUOUS
10
90.3999
20
-54.76
11
90.228
21
-54.6834
0
LINE
8
BLACK
6
CONTINUOUS
10
90.228
20
-54.6834
11
90.0758
21
-54.5728
0
LINE
8
BLACK
6
CONTINUOUS
10
90.0758
20
-54.5728
11
89.9499
21
-54.433
0
LINE
8
BLACK
6
CONTINUOUS
10
89.9499
20
-54.433
11
89.8558
21
-54.2701
0
LINE
8
BLACK
6
CONTINUOUS
10
89.8558
20
-54.2701
11
89.7977
21
-54.0911
0
LINE
8
BLACK
6
CONTINUOUS
10
89.7977
20
-54.0911
11
89.778
21
-53.904
0
LINE
8
BLACK
6
CONTINUOUS
10
89.778
20
-53.904
11
89.7977
21
-53.7169
0
LINE
8
BLACK
6
CONTINUOUS
10
89.7977
20
-53.7169
11
89.8558
21
-53.5379
0
LINE
8
BLACK
6
CONTINUOUS
10
89.8558
20
-53.5379
11
89.9499
21
-53.375
0
LINE
8
BLACK
6
CONTINUOUS
10
89.9499
20
-53.375
11
90.0758
21
-53.2352
0
LINE
8
BLACK
6
CONTINUOUS
10
90.0758
20
-53.2352
11
90.228
21
-53.1246
0
LINE
8
BLACK
6
CONTINUOUS
10
90.228
20
-53.1246
11
90.3999
21
-53.048
0
LINE
8
BLACK
6
CONTINUOUS
10
90.3999
20
-53.048
11
90.5839
21
-53.0089
0
LINE
8
BLACK
6
CONTINUOUS
10
90.5839
20
-53.0089
11
90.7721
21
-53.0089
0
LINE
8
BLACK
6
CONTINUOUS
10
90.7721
20
-53.0089
11
90.9561
21
-53.048
0
LINE
8
BLACK
6
CONTINUOUS
10
123.214
20
-56.802
11
123.386
21
-56.8786
0
LINE
8
BLACK
6
CONTINUOUS
10
123.386
20
-56.8786
11
123.538
21
-56.9892
0
LINE
8
BLACK
6
CONTINUOUS
10
123.538
20
-56.9892
11
123.664
21
-57.129
0
LINE
8
BLACK
6
CONTINUOUS
10
123.664
20
-57.129
11
123.758
21
-57.2919
0
LINE
8
BLACK
6
CONTINUOUS
10
123.758
20
-57.2919
11
123.816
21
-57.4709
0
LINE
8
BLACK
6
CONTINUOUS
10
123.816
20
-57.4709
11
123.836
21
-57.658
0
LINE
8
BLACK
6
CONTINUOUS
10
123.836
20
-57.658
11
123.816
21
-57.8451
0
LINE
8
BLACK
6
CONTINUOUS
10
123.816
20
-57.8451
11
123.758
21
-58.0241
0
LINE
8
BLACK
6
CONTINUOUS
10
123.758
20
-58.0241
11
123.664
21
-58.187
0
LINE
8
BLACK
6
CONTINUOUS
10
123.664
20
-58.187
11
123.538
21
-58.3268
0
LINE
8
BLACK
6
CONTINUOUS
10
123.538
20
-58.3268
11
123.386
21
-58.4374
0
LINE
8
BLACK
6
CONTINUOUS
10
123.386
20
-58.4374
11
123.214
21
-58.514
0
LINE
8
BLACK
6
CONTINUOUS
10
123.214
20
-58.514
11
123.03
21
-58.5531
0
LINE
8
BLACK
6
CONTINUOUS
10
123.03
20
-58.5531
11
122.842
21
-58.5531
0
LINE
8
BLACK
6
CONTINUOUS
10
122.842
20
-58.5531
11
122.658
21
-58.514
0
LINE
8
BLACK
6
CONTINUOUS
10
122.658
20
-58.514
11
122.486
21
-58.4374
0
LINE
8
BLACK
6
CONTINUOUS
10
122.486
20
-58.4374
11
122.334
21
-58.3268
0
LINE
8
BLACK
6
CONTINUOUS
10
122.334
20
-58.3268
11
122.208
21
-58.187
0
LINE
8
BLACK
6
CONTINUOUS
10
122.208
20
-58.187
11
122.114
21
-58.0241
0
LINE
8
BLACK
6
CONTINUOUS
10
122.114
20
-58.0241
11
122.056
21
-57.8451
0
LINE
8
BLACK
6
CONTINUOUS
10
122.056
20
-57.8451
11
122.036
21
-57.658
0
LINE
8
BLACK
6
CONTINUOUS
10
122.036
20
-57.658
11
122.056
21
-57.4709
0
LINE
8
BLACK
6
CONTINUOUS
10
122.056
20
-57.4709
11
122.114
21
-57.2919
0
LINE
8
BLACK
6
CONTINUOUS
10
122.114
20
-57.2919
11
122.208
21
-57.129
0
LINE
8
BLACK
6
CONTINUOUS
10
122.208
20
-57.129
11
122.334
21
-56.9892
0
LINE
8
BLACK
6
CONTINUOUS
10
122.334
20
-56.9892
11
122.486
21
-56.8786
0
LINE
8
BLACK
6
CONTINUOUS
10
122.486
20
-56.8786
11
122.658
21
-56.802
0
LINE
8
BLACK
6
CONTINUOUS
10
122.658
20
-56.802
11
122.842
21
-56.7629
0
LINE
8
BLACK
6
CONTINUOUS
10
122.842
20
-56.7629
11
123.03
21
-56.7629
0
LINE
8
BLACK
6
CONTINUOUS
10
123.03
20
-56.7629
11
123.214
21
-56.802
0
LINE
8
BLACK
6
CONTINUOUS
10
90.9561
20
-56.548
11
91.128
21
-56.6246
0
LINE
8
BLACK
6
CONTINUOUS
10
91.128
20
-56.6246
11
91.2802
21
-56.7352
0
LINE
8
BLACK
6
CONTINUOUS
10
91.2802
20
-56.7352
11
91.4061
21
-56.875
0
LINE
8
BLACK
6
CONTINUOUS
10
91.4061
20
-56.875
11
91.5002
21
-57.0379
0
LINE
8
BLACK
6
CONTINUOUS
10
91.5002
20
-57.0379
11
91.5583
21
-57.2169
0
LINE
8
BLACK
6
CONTINUOUS
10
91.5583
20
-57.2169
11
91.578
21
-57.404
0
LINE
8
BLACK
6
CONTINUOUS
10
91.578
20
-57.404
11
91.5583
21
-57.5911
0
LINE
8
BLACK
6
CONTINUOUS
10
91.5583
20
-57.5911
11
91.5002
21
-57.7701
0
LINE
8
BLACK
6
CONTINUOUS
10
91.5002
20
-57.7701
11
91.4061
21
-57.933
0
LINE
8
BLACK
6
CONTINUOUS
10
91.4061
20
-57.933
11
91.2802
21
-58.0728
0
LINE
8
BLACK
6
CONTINUOUS
10
91.2802
20
-58.0728
11
91.128
21
-58.1834
0
LINE
8
BLACK
6
CONTINUOUS
10
91.128
20
-58.1834
11
90.9561
21
-58.26
0
LINE
8
BLACK
6
CONTINUOUS
10
90.9561
20
-58.26
11
90.7721
21
-58.2991
0
LINE
8
BLACK
6
CONTINUOUS
10
90.7721
20
-58.2991
11
90.5839
21
-58.2991
0
LINE
8
BLACK
6
CONTINUOUS
10
90.5839
20
-58.2991
11
90.3999
21
-58.26
0
LINE
8
BLACK
6
CONTINUOUS
10
90.3999
20
-58.26
11
90.228
21
-58.1834
0
LINE
8
BLACK
6
CONTINUOUS
10
90.228
20
-58.1834
11
90.0758
21
-58.0728
0
LINE
8
BLACK
6
CONTINUOUS
10
90.0758
20
-58.0728
11
89.9499
21
-57.933
0
LINE
8
BLACK
6
CONTINUOUS
10
89.9499
20
-57.933
11
89.8558
21
-57.7701
0
LINE
8
BLACK
6
CONTINUOUS
10
89.8558
20
-57.7701
11
89.7977
21
-57.5911
0
LINE
8
BLACK
6
CONTINUOUS
10
89.7977
20
-57.5911
11
89.778
21
-57.404
0
LINE
8
BLACK
6
CONTINUOUS
10
89.778
20
-57.404
11
89.7977
21
-57.2169
0
LINE
8
BLACK
6
CONTINUOUS
10
89.7977
20
-57.2169
11
89.8558
21
-57.0379
0
LINE
8
BLACK
6
CONTINUOUS
10
89.8558
20
-57.0379
11
89.9499
21
-56.875
0
LINE
8
BLACK
6
CONTINUOUS
10
89.9499
20
-56.875
11
90.0758
21
-56.7352
0
LINE
8
BLACK
6
CONTINUOUS
10
90.0758
20
-56.7352
11
90.228
21
-56.6246
0
LINE
8
BLACK
6
CONTINUOUS
10
90.228
20
-56.6246
11
90.3999
21
-56.548
0
LINE
8
BLACK
6
CONTINUOUS
10
90.3999
20
-56.548
11
90.5839
21
-56.5089
0
LINE
8
BLACK
6
CONTINUOUS
10
90.5839
20
-56.5089
11
90.7721
21
-56.5089
0
LINE
8
BLACK
6
CONTINUOUS
10
90.7721
20
-56.5089
11
90.9561
21
-56.548
0
LINE
8
BLACK
6
CONTINUOUS
10
123.214
20
-53.302
11
123.386
21
-53.3786
0
LINE
8
BLACK
6
CONTINUOUS
10
123.386
20
-53.3786
11
123.538
21
-53.4892
0
LINE
8
BLACK
6
CONTINUOUS
10
123.538
20
-53.4892
11
123.664
21
-53.629
0
LINE
8
BLACK
6
CONTINUOUS
10
123.664
20
-53.629
11
123.758
21
-53.7919
0
LINE
8
BLACK
6
CONTINUOUS
10
123.758
20
-53.7919
11
123.816
21
-53.9709
0
LINE
8
BLACK
6
CONTINUOUS
10
123.816
20
-53.9709
11
123.836
21
-54.158
0
LINE
8
BLACK
6
CONTINUOUS
10
123.836
20
-54.158
11
123.816
21
-54.3451
0
LINE
8
BLACK
6
CONTINUOUS
10
123.816
20
-54.3451
11
123.758
21
-54.5241
0
LINE
8
BLACK
6
CONTINUOUS
10
123.758
20
-54.5241
11
123.664
21
-54.687
0
LINE
8
BLACK
6
CONTINUOUS
10
123.664
20
-54.687
11
123.538
21
-54.8268
0
LINE
8
BLACK
6
CONTINUOUS
10
123.538
20
-54.8268
11
123.386
21
-54.9374
0
LINE
8
BLACK
6
CONTINUOUS
10
123.386
20
-54.9374
11
123.214
21
-55.014
0
LINE
8
BLACK
6
CONTINUOUS
10
123.214
20
-55.014
11
123.03
21
-55.0531
0
LINE
8
BLACK
6
CONTINUOUS
10
123.03
20
-55.0531
11
122.842
21
-55.0531
0
LINE
8
BLACK
6
CONTINUOUS
10
122.842
20
-55.0531
11
122.658
21
-55.014
0
LINE
8
BLACK
6
CONTINUOUS
10
122.658
20
-55.014
11
122.486
21
-54.9374
0
LINE
8
BLACK
6
CONTINUOUS
10
122.486
20
-54.9374
11
122.334
21
-54.8268
0
LINE
8
BLACK
6
CONTINUOUS
10
122.334
20
-54.8268
11
122.208
21
-54.687
0
LINE
8
BLACK
6
CONTINUOUS
10
122.208
20
-54.687
11
122.114
21
-54.5241
0
LINE
8
BLACK
6
CONTINUOUS
10
122.114
20
-54.5241
11
122.056
21
-54.3451
0
LINE
8
BLACK
6
CONTINUOUS
10
122.056
20
-54.3451
11
122.036
21
-54.158
0
LINE
8
BLACK
6
CONTINUOUS
10
122.036
20
-54.158
11
122.056
21
-53.9709
0
LINE
8
BLACK
6
CONTINUOUS
10
122.056
20
-53.9709
11
122.114
21
-53.7919
0
LINE
8
BLACK
6
CONTINUOUS
10
122.114
20
-53.7919
11
122.208
21
-53.629
0
LINE
8
BLACK
6
CONTINUOUS
10
122.208
20
-53.629
11
122.334
21
-53.4892
0
LINE
8
BLACK
6
CONTINUOUS
10
122.334
20
-53.4892
11
122.486
21
-53.3786
0
LINE
8
BLACK
6
CONTINUOUS
10
122.486
20
-53.3786
11
122.658
21
-53.302
0
LINE
8
BLACK
6
CONTINUOUS
10
122.658
20
-53.302
11
122.842
21
-53.2629
0
LINE
8
BLACK
6
CONTINUOUS
10
122.842
20
-53.2629
11
123.03
21
-53.2629
0
LINE
8
BLACK
6
CONTINUOUS
10
123.03
20
-53.2629
11
123.214
21
-53.302
0
LINE
8
BLACK
6
CONTINUOUS
10
109.589
20
-51.484
11
109.786
21
-51.5233
0
LINE
8
BLACK
6
CONTINUOUS
10
109.786
20
-51.5233
11
109.973
21
-51.5979
0
LINE
8
BLACK
6
CONTINUOUS
10
109.973
20
-51.5979
11
110.144
21
-51.7053
0
LINE
8
BLACK
6
CONTINUOUS
10
110.144
20
-51.7053
11
110.291
21
-51.842
0
LINE
8
BLACK
6
CONTINUOUS
10
110.291
20
-51.842
11
110.412
21
-52.0033
0
LINE
8
BLACK
6
CONTINUOUS
10
110.412
20
-52.0033
11
110.501
21
-52.1838
0
LINE
8
BLACK
6
CONTINUOUS
10
110.501
20
-52.1838
11
110.556
21
-52.3775
0
LINE
8
BLACK
6
CONTINUOUS
10
110.556
20
-52.3775
11
110.563
21
-52.453
0
LINE
8
BLACK
6
CONTINUOUS
10
110.563
20
-52.453
11
110.899
21
-52.453
0
LINE
8
BLACK
6
CONTINUOUS
10
110.899
20
-52.453
11
110.921
21
-52.4562
0
LINE
8
BLACK
6
CONTINUOUS
10
110.921
20
-52.4562
11
110.926
21
-52.4559
0
LINE
8
BLACK
6
CONTINUOUS
10
110.926
20
-52.4559
11
110.928
21
-52.4572
0
LINE
8
BLACK
6
CONTINUOUS
10
110.928
20
-52.4572
11
110.935
21
-52.4581
0
LINE
8
BLACK
6
CONTINUOUS
10
110.935
20
-52.4581
11
110.961
21
-52.4748
0
LINE
8
BLACK
6
CONTINUOUS
10
110.961
20
-52.4748
11
110.988
21
-52.4896
0
LINE
8
BLACK
6
CONTINUOUS
10
110.988
20
-52.4896
11
112.221
21
-53.723
0
LINE
8
BLACK
6
CONTINUOUS
10
112.221
20
-53.723
11
114.281
21
-53.723
0
LINE
8
BLACK
6
CONTINUOUS
10
114.281
20
-53.723
11
114.289
21
-53.6599
0
LINE
8
BLACK
6
CONTINUOUS
10
114.289
20
-53.6599
11
114.35
21
-53.4923
0
LINE
8
BLACK
6
CONTINUOUS
10
114.35
20
-53.4923
11
114.447
21
-53.3424
0
LINE
8
BLACK
6
CONTINUOUS
10
114.447
20
-53.3424
11
114.574
21
-53.2176
0
LINE
8
BLACK
6
CONTINUOUS
10
114.574
20
-53.2176
11
114.726
21
-53.1241
0
LINE
8
BLACK
6
CONTINUOUS
10
114.726
20
-53.1241
11
114.895
21
-53.0667
0
LINE
8
BLACK
6
CONTINUOUS
10
114.895
20
-53.0667
11
115.073
21
-53.048
0
LINE
8
BLACK
6
CONTINUOUS
10
115.073
20
-53.048
11
115.25
21
-53.0691
0
LINE
8
BLACK
6
CONTINUOUS
10
115.25
20
-53.0691
11
115.418
21
-53.129
0
LINE
8
BLACK
6
CONTINUOUS
10
115.418
20
-53.129
11
115.568
21
-53.2245
0
LINE
8
BLACK
6
CONTINUOUS
10
115.568
20
-53.2245
11
115.694
21
-53.3511
0
LINE
8
BLACK
6
CONTINUOUS
10
115.694
20
-53.3511
11
115.788
21
-53.5023
0
LINE
8
BLACK
6
CONTINUOUS
10
115.788
20
-53.5023
11
115.847
21
-53.6708
0
LINE
8
BLACK
6
CONTINUOUS
10
115.847
20
-53.6708
11
115.867
21
-53.848
0
LINE
8
BLACK
6
CONTINUOUS
10
115.867
20
-53.848
11
115.867
21
-53.8703
0
LINE
8
BLACK
6
CONTINUOUS
10
115.867
20
-53.8703
11
115.842
21
-54.047
0
LINE
8
BLACK
6
CONTINUOUS
10
115.842
20
-54.047
11
115.779
21
-54.2137
0
LINE
8
BLACK
6
CONTINUOUS
10
115.779
20
-54.2137
11
115.68
21
-54.3622
0
LINE
8
BLACK
6
CONTINUOUS
10
115.68
20
-54.3622
11
115.551
21
-54.4852
0
LINE
8
BLACK
6
CONTINUOUS
10
115.551
20
-54.4852
11
115.397
21
-54.5765
0
LINE
8
BLACK
6
CONTINUOUS
10
115.397
20
-54.5765
11
115.228
21
-54.6317
0
LINE
8
BLACK
6
CONTINUOUS
10
115.228
20
-54.6317
11
115.05
21
-54.6478
0
LINE
8
BLACK
6
CONTINUOUS
10
115.05
20
-54.6478
11
114.873
21
-54.6242
0
LINE
8
BLACK
6
CONTINUOUS
10
114.873
20
-54.6242
11
114.706
21
-54.5621
0
LINE
8
BLACK
6
CONTINUOUS
10
114.706
20
-54.5621
11
114.557
21
-54.4644
0
LINE
8
BLACK
6
CONTINUOUS
10
114.557
20
-54.4644
11
114.433
21
-54.3361
0
LINE
8
BLACK
6
CONTINUOUS
10
114.433
20
-54.3361
11
114.341
21
-54.1836
0
LINE
8
BLACK
6
CONTINUOUS
10
114.341
20
-54.1836
11
114.284
21
-54.0143
0
LINE
8
BLACK
6
CONTINUOUS
10
114.284
20
-54.0143
11
114.28
21
-53.973
0
LINE
8
BLACK
6
CONTINUOUS
10
114.28
20
-53.973
11
112.169
21
-53.973
0
LINE
8
BLACK
6
CONTINUOUS
10
112.169
20
-53.973
11
112.147
21
-53.9698
0
LINE
8
BLACK
6
CONTINUOUS
10
112.147
20
-53.9698
11
112.143
21
-53.9701
0
LINE
8
BLACK
6
CONTINUOUS
10
112.143
20
-53.9701
11
112.14
21
-53.9688
0
LINE
8
BLACK
6
CONTINUOUS
10
112.14
20
-53.9688
11
112.134
21
-53.9679
0
LINE
8
BLACK
6
CONTINUOUS
10
112.134
20
-53.9679
11
112.108
21
-53.9512
0
LINE
8
BLACK
6
CONTINUOUS
10
112.108
20
-53.9512
11
112.081
21
-53.9364
0
LINE
8
BLACK
6
CONTINUOUS
10
112.081
20
-53.9364
11
110.848
21
-52.703
0
LINE
8
BLACK
6
CONTINUOUS
10
110.848
20
-52.703
11
110.563
21
-52.703
0
LINE
8
BLACK
6
CONTINUOUS
10
110.563
20
-52.703
11
110.544
21
-52.8348
0
LINE
8
BLACK
6
CONTINUOUS
10
110.544
20
-52.8348
11
110.479
21
-53.0254
0
LINE
8
BLACK
6
CONTINUOUS
10
110.479
20
-53.0254
11
110.381
21
-53.201
0
LINE
8
BLACK
6
CONTINUOUS
10
110.381
20
-53.201
11
110.252
21
-53.3558
0
LINE
8
BLACK
6
CONTINUOUS
10
110.252
20
-53.3558
11
110.097
21
-53.4845
0
LINE
8
BLACK
6
CONTINUOUS
10
110.097
20
-53.4845
11
109.921
21
-53.5829
0
LINE
8
BLACK
6
CONTINUOUS
10
109.921
20
-53.5829
11
109.731
21
-53.6476
0
LINE
8
BLACK
6
CONTINUOUS
10
109.731
20
-53.6476
11
109.532
21
-53.6765
0
LINE
8
BLACK
6
CONTINUOUS
10
109.532
20
-53.6765
11
109.33
21
-53.6686
0
LINE
8
BLACK
6
CONTINUOUS
10
109.33
20
-53.6686
11
109.134
21
-53.6242
0
LINE
8
BLACK
6
CONTINUOUS
10
109.134
20
-53.6242
11
108.949
21
-53.5447
0
LINE
8
BLACK
6
CONTINUOUS
10
108.949
20
-53.5447
11
108.782
21
-53.4329
0
LINE
8
BLACK
6
CONTINUOUS
10
108.782
20
-53.4329
11
108.638
21
-53.2924
0
LINE
8
BLACK
6
CONTINUOUS
10
108.638
20
-53.2924
11
108.521
21
-53.128
0
LINE
8
BLACK
6
CONTINUOUS
10
108.521
20
-53.128
11
108.437
21
-52.9452
0
LINE
8
BLACK
6
CONTINUOUS
10
108.437
20
-52.9452
11
108.388
21
-52.7501
0
LINE
8
BLACK
6
CONTINUOUS
10
108.388
20
-52.7501
11
108.384
21
-52.703
0
LINE
8
BLACK
6
CONTINUOUS
10
108.384
20
-52.703
11
104.338
21
-52.703
0
LINE
8
BLACK
6
CONTINUOUS
10
104.338
20
-52.703
11
103.911
21
-53.1297
0
LINE
8
BLACK
6
CONTINUOUS
10
103.911
20
-53.1297
11
103.988
21
-53.157
0
LINE
8
BLACK
6
CONTINUOUS
10
103.988
20
-53.157
11
104.138
21
-53.2525
0
LINE
8
BLACK
6
CONTINUOUS
10
104.138
20
-53.2525
11
104.264
21
-53.3791
0
LINE
8
BLACK
6
CONTINUOUS
10
104.264
20
-53.3791
11
104.358
21
-53.5303
0
LINE
8
BLACK
6
CONTINUOUS
10
104.358
20
-53.5303
11
104.417
21
-53.6988
0
LINE
8
BLACK
6
CONTINUOUS
10
104.417
20
-53.6988
11
104.437
21
-53.876
0
LINE
8
BLACK
6
CONTINUOUS
10
104.437
20
-53.876
11
104.437
21
-53.8983
0
LINE
8
BLACK
6
CONTINUOUS
10
104.437
20
-53.8983
11
104.412
21
-54.075
0
LINE
8
BLACK
6
CONTINUOUS
10
104.412
20
-54.075
11
104.349
21
-54.2417
0
LINE
8
BLACK
6
CONTINUOUS
10
104.349
20
-54.2417
11
104.25
21
-54.3902
0
LINE
8
BLACK
6
CONTINUOUS
10
104.25
20
-54.3902
11
104.121
21
-54.5132
0
LINE
8
BLACK
6
CONTINUOUS
10
104.121
20
-54.5132
11
103.967
21
-54.6045
0
LINE
8
BLACK
6
CONTINUOUS
10
103.967
20
-54.6045
11
103.798
21
-54.6597
0
LINE
8
BLACK
6
CONTINUOUS
10
103.798
20
-54.6597
11
103.62
21
-54.6758
0
LINE
8
BLACK
6
CONTINUOUS
10
103.62
20
-54.6758
11
103.443
21
-54.6522
0
LINE
8
BLACK
6
CONTINUOUS
10
103.443
20
-54.6522
11
103.276
21
-54.5901
0
LINE
8
BLACK
6
CONTINUOUS
10
103.276
20
-54.5901
11
103.127
21
-54.4924
0
LINE
8
BLACK
6
CONTINUOUS
10
103.127
20
-54.4924
11
103.003
21
-54.3641
0
LINE
8
BLACK
6
CONTINUOUS
10
103.003
20
-54.3641
11
102.911
21
-54.2116
0
LINE
8
BLACK
6
CONTINUOUS
10
102.911
20
-54.2116
11
102.854
21
-54.0423
0
LINE
8
BLACK
6
CONTINUOUS
10
102.854
20
-54.0423
11
102.837
21
-53.8648
0
LINE
8
BLACK
6
CONTINUOUS
10
102.837
20
-53.8648
11
102.859
21
-53.6879
0
LINE
8
BLACK
6
CONTINUOUS
10
102.859
20
-53.6879
11
102.92
21
-53.5203
0
LINE
8
BLACK
6
CONTINUOUS
10
102.92
20
-53.5203
11
103.017
21
-53.3704
0
LINE
8
BLACK
6
CONTINUOUS
10
103.017
20
-53.3704
11
103.036
21
-53.352
0
LINE
8
BLACK
6
CONTINUOUS
10
103.036
20
-53.352
11
100.118
21
-53.352
0
LINE
8
BLACK
6
CONTINUOUS
10
100.118
20
-53.352
11
100.096
21
-53.3488
0
LINE
8
BLACK
6
CONTINUOUS
10
100.096
20
-53.3488
11
100.092
21
-53.3491
0
LINE
8
BLACK
6
CONTINUOUS
10
100.092
20
-53.3491
11
100.089
21
-53.3478
0
LINE
8
BLACK
6
CONTINUOUS
10
100.089
20
-53.3478
11
100.083
21
-53.3469
0
LINE
8
BLACK
6
CONTINUOUS
10
100.083
20
-53.3469
11
100.057
21
-53.3302
0
LINE
8
BLACK
6
CONTINUOUS
10
100.057
20
-53.3302
11
100.03
21
-53.3154
0
LINE
8
BLACK
6
CONTINUOUS
10
100.03
20
-53.3154
11
99.4175
21
-52.703
0
LINE
8
BLACK
6
CONTINUOUS
10
99.4175
20
-52.703
11
99.1327
21
-52.703
0
LINE
8
BLACK
6
CONTINUOUS
10
99.1327
20
-52.703
11
99.1136
21
-52.8348
0
LINE
8
BLACK
6
CONTINUOUS
10
99.1136
20
-52.8348
11
99.0489
21
-53.0254
0
LINE
8
BLACK
6
CONTINUOUS
10
99.0489
20
-53.0254
11
98.9505
21
-53.201
0
LINE
8
BLACK
6
CONTINUOUS
10
98.9505
20
-53.201
11
98.8218
21
-53.3558
0
LINE
8
BLACK
6
CONTINUOUS
10
98.8218
20
-53.3558
11
98.667
21
-53.4845
0
LINE
8
BLACK
6
CONTINUOUS
10
98.667
20
-53.4845
11
98.4914
21
-53.5829
0
LINE
8
BLACK
6
CONTINUOUS
10
98.4914
20
-53.5829
11
98.3008
21
-53.6476
0
LINE
8
BLACK
6
CONTINUOUS
10
98.3008
20
-53.6476
11
98.1016
21
-53.6765
0
LINE
8
BLACK
6
CONTINUOUS
10
98.1016
20
-53.6765
11
97.9004
21
-53.6686
0
LINE
8
BLACK
6
CONTINUOUS
10
97.9004
20
-53.6686
11
97.7041
21
-53.6242
0
LINE
8
BLACK
6
CONTINUOUS
10
97.7041
20
-53.6242
11
97.5191
21
-53.5447
0
LINE
8
BLACK
6
CONTINUOUS
10
97.5191
20
-53.5447
11
97.3517
21
-53.4329
0
LINE
8
BLACK
6
CONTINUOUS
10
97.3517
20
-53.4329
11
97.2076
21
-53.2924
0
LINE
8
BLACK
6
CONTINUOUS
10
97.2076
20
-53.2924
11
97.0914
21
-53.128
0
LINE
8
BLACK
6
CONTINUOUS
10
97.0914
20
-53.128
11
97.0071
21
-52.9452
0
LINE
8
BLACK
6
CONTINUOUS
10
97.0071
20
-52.9452
11
96.9575
21
-52.7501
0
LINE
8
BLACK
6
CONTINUOUS
10
96.9575
20
-52.7501
11
96.9444
21
-52.5492
0
LINE
8
BLACK
6
CONTINUOUS
10
96.9444
20
-52.5492
11
96.968
21
-52.3493
0
LINE
8
BLACK
6
CONTINUOUS
10
96.968
20
-52.3493
11
97.0277
21
-52.157
0
LINE
8
BLACK
6
CONTINUOUS
10
97.0277
20
-52.157
11
97.1215
21
-51.9789
0
LINE
8
BLACK
6
CONTINUOUS
10
97.1215
20
-51.9789
11
97.2461
21
-51.8208
0
LINE
8
BLACK
6
CONTINUOUS
10
97.2461
20
-51.8208
11
97.3974
21
-51.6881
0
LINE
8
BLACK
6
CONTINUOUS
10
97.3974
20
-51.6881
11
97.5704
21
-51.5852
0
LINE
8
BLACK
6
CONTINUOUS
10
97.5704
20
-51.5852
11
97.7593
21
-51.5155
0
LINE
8
BLACK
6
CONTINUOUS
10
97.7593
20
-51.5155
11
97.9577
21
-51.4814
0
LINE
8
BLACK
6
CONTINUOUS
10
97.9577
20
-51.4814
11
98.159
21
-51.484
0
LINE
8
BLACK
6
CONTINUOUS
10
98.159
20
-51.484
11
98.3564
21
-51.5233
0
LINE
8
BLACK
6
CONTINUOUS
10
98.3564
20
-51.5233
11
98.5434
21
-51.5979
0
LINE
8
BLACK
6
CONTINUOUS
10
98.5434
20
-51.5979
11
98.7136
21
-51.7053
0
LINE
8
BLACK
6
CONTINUOUS
10
98.7136
20
-51.7053
11
98.8615
21
-51.842
0
LINE
8
BLACK
6
CONTINUOUS
10
98.8615
20
-51.842
11
98.9819
21
-52.0033
0
LINE
8
BLACK
6
CONTINUOUS
10
98.9819
20
-52.0033
11
99.0709
21
-52.1838
0
LINE
8
BLACK
6
CONTINUOUS
10
99.0709
20
-52.1838
11
99.1256
21
-52.3775
0
LINE
8
BLACK
6
CONTINUOUS
10
99.1256
20
-52.3775
11
99.1325
21
-52.453
0
LINE
8
BLACK
6
CONTINUOUS
10
99.1325
20
-52.453
11
99.4693
21
-52.453
0
LINE
8
BLACK
6
CONTINUOUS
10
99.4693
20
-52.453
11
99.4913
21
-52.4562
0
LINE
8
BLACK
6
CONTINUOUS
10
99.4913
20
-52.4562
11
99.4959
21
-52.4559
0
LINE
8
BLACK
6
CONTINUOUS
10
99.4959
20
-52.4559
11
99.4984
21
-52.4572
0
LINE
8
BLACK
6
CONTINUOUS
10
99.4984
20
-52.4572
11
99.5048
21
-52.4581
0
LINE
8
BLACK
6
CONTINUOUS
10
99.5048
20
-52.4581
11
99.5307
21
-52.4748
0
LINE
8
BLACK
6
CONTINUOUS
10
99.5307
20
-52.4748
11
99.5577
21
-52.4896
0
LINE
8
BLACK
6
CONTINUOUS
10
99.5577
20
-52.4896
11
100.17
21
-53.102
0
LINE
8
BLACK
6
CONTINUOUS
10
100.17
20
-53.102
11
103.444
21
-53.102
0
LINE
8
BLACK
6
CONTINUOUS
10
103.444
20
-53.102
11
103.465
21
-53.0947
0
LINE
8
BLACK
6
CONTINUOUS
10
103.465
20
-53.0947
11
103.608
21
-53.0797
0
LINE
8
BLACK
6
CONTINUOUS
10
103.608
20
-53.0797
11
104.198
21
-52.4896
0
LINE
8
BLACK
6
CONTINUOUS
10
104.198
20
-52.4896
11
104.215
21
-52.4763
0
LINE
8
BLACK
6
CONTINUOUS
10
104.215
20
-52.4763
11
104.218
21
-52.4728
0
LINE
8
BLACK
6
CONTINUOUS
10
104.218
20
-52.4728
11
104.221
21
-52.472
0
LINE
8
BLACK
6
CONTINUOUS
10
104.221
20
-52.472
11
104.226
21
-52.4681
0
LINE
8
BLACK
6
CONTINUOUS
10
104.226
20
-52.4681
11
104.256
21
-52.4617
0
LINE
8
BLACK
6
CONTINUOUS
10
104.256
20
-52.4617
11
104.286
21
-52.453
0
LINE
8
BLACK
6
CONTINUOUS
10
104.286
20
-52.453
11
108.386
21
-52.453
0
LINE
8
BLACK
6
CONTINUOUS
10
108.386
20
-52.453
11
108.398
21
-52.3493
0
LINE
8
BLACK
6
CONTINUOUS
10
108.398
20
-52.3493
11
108.458
21
-52.157
0
LINE
8
BLACK
6
CONTINUOUS
10
108.458
20
-52.157
11
108.551
21
-51.9789
0
LINE
8
BLACK
6
CONTINUOUS
10
108.551
20
-51.9789
11
108.676
21
-51.8208
0
LINE
8
BLACK
6
CONTINUOUS
10
108.676
20
-51.8208
11
108.827
21
-51.6881
0
LINE
8
BLACK
6
CONTINUOUS
10
108.827
20
-51.6881
11
109
21
-51.5852
0
LINE
8
BLACK
6
CONTINUOUS
10
109
20
-51.5852
11
109.189
21
-51.5155
0
LINE
8
BLACK
6
CONTINUOUS
10
109.189
20
-51.5155
11
109.388
21
-51.4814
0
LINE
8
BLACK
6
CONTINUOUS
10
109.388
20
-51.4814
11
109.589
21
-51.484
  0
ENDSEC
  0
EOF
